<?xml version="1.0" encoding="UTF-8" standalone="no"?>
<!-- Created with Inkscape (http://www.inkscape.org/) -->

<svg
   version="1.1"
   id="svg1"
   width="473.42932"
   height="463.48267"
   viewBox="0 0 473.42932 463.48267"
   xmlns="http://www.w3.org/2000/svg"
   xmlns:svg="http://www.w3.org/2000/svg">
  <defs
     id="defs1" />
  <g
     id="g1">
    <path
       id="path1"
       d="M 0,0 -74.16515,-69.69171"
       style="fill:none;stroke:#000000;stroke-width:0.79701;stroke-linecap:butt;stroke-linejoin:miter;stroke-miterlimit:10;stroke-dasharray:none;stroke-opacity:1"
       transform="matrix(1.3333333,0,0,-1.3333333,163.56533,348.65333)" />
    <path
       id="path2"
       d="M 4.66248,0 C 3.28098,0.25902 1.0361,1.0361 -0.51805,1.94269 V -1.94269 C 1.0361,-1.0361 3.28098,-0.25902 4.66248,0"
       style="fill:#000000;fill-opacity:1;fill-rule:nonzero;stroke:none"
       transform="matrix(-0.9716,0.913,0.913,0.9716,64.678467,441.57561)" />
    <path
       id="path3"
       d="m 2.8247734,-6.2229219 c 0,-0.1992187 -0.1289062,-0.3632812 -0.3632812,-0.3632812 -0.2695313,0 -0.5390625,0.2578125 -0.5390625,0.5273437 0,0.1875 0.140625,0.3632813 0.375,0.3632813 0.234375,0 0.5273437,-0.234375 0.5273437,-0.5273438 z m -0.75,3.7382813 c 0.1171875,-0.28125 0.1171875,-0.3046875 0.2226563,-0.5742188 0.070312,-0.1992187 0.1289062,-0.3398437 0.1289062,-0.5273437 0,-0.4453125 -0.328125,-0.8203125 -0.8203125,-0.8203125 -0.93749996,0 -1.31249996,1.453125 -1.31249996,1.5351562 0,0.1054688 0.09375,0.1054688 0.1171875,0.1054688 0.09375,0 0.10546875,-0.023437 0.15234375,-0.1875 0.26953125,-0.9375 0.66796871,-1.2304688 1.00781251,-1.2304688 0.082031,0 0.2578125,0 0.2578125,0.3164063 0,0.2109375 -0.070312,0.421875 -0.1171875,0.515625 -0.082031,0.2578125 -0.5273438,1.4179687 -0.6796875,1.8515625 -0.10546876,0.2578125 -0.23437501,0.58593748 -0.23437501,0.79687498 0,0.46875 0.33984371,0.80859375 0.82031251,0.80859375 0.9375,0 1.3007812,-1.44140623 1.3007812,-1.53515623 0,-0.09375 -0.09375,-0.09375 -0.1171875,-0.09375 -0.1054687,0 -0.1054687,0.023437 -0.1523437,0.1757812 -0.1757813,0.63281253 -0.5039063,1.24218753 -1.0195313,1.24218753 -0.1640625,0 -0.234375,-0.10546875 -0.234375,-0.328125 0,-0.2578125 0.058594,-0.3984375 0.2929688,-0.99609373 z m 0,0"
       style="fill:#000000;fill-opacity:1;fill-rule:nonzero;stroke:none"
       aria-label="i"
       transform="matrix(1.3333333,0,0,1.3333333,52.690667,455.07067)" />
    <path
       id="path4"
       d="M 0,0 208.47276,-25.95076"
       style="fill:none;stroke:#000000;stroke-width:0.79701;stroke-linecap:butt;stroke-linejoin:miter;stroke-miterlimit:10;stroke-dasharray:none;stroke-opacity:1"
       transform="matrix(1.3333333,0,0,-1.3333333,163.56533,348.65333)" />
    <path
       id="path5"
       d="M 4.66248,0 C 3.28098,0.25902 1.0361,1.0361 -0.51805,1.94269 V -1.94269 C 1.0361,-1.0361 3.28098,-0.25902 4.66248,0"
       style="fill:#000000;fill-opacity:1;fill-rule:nonzero;stroke:none"
       transform="matrix(1.32308,0.16466667,0.16466667,-1.32308,441.529,383.25435)" />
    <path
       id="path6"
       d="m 3.9480859,-6.2224766 c 0,-0.1875 -0.1289062,-0.3632812 -0.375,-0.3632812 -0.2226562,0 -0.5273437,0.234375 -0.5273437,0.5273437 0,0.1992188 0.140625,0.3632813 0.375,0.3632813 0.2695312,0 0.5273437,-0.2578125 0.5273437,-0.5273438 z M 1.9558984,0.50408594 C 1.7566797,1.2540859 1.2879297,1.8283047 0.72542969,1.8283047 c -0.0585938,0 -0.2109375,0 -0.38671875,-0.09375 0.29296875,-0.070312 0.4453125,-0.328125 0.4453125,-0.5273438 0,-0.1640625 -0.10546875,-0.35156246 -0.375,-0.35156246 -0.24609375,0 -0.5390625,0.21093746 -0.5390625,0.57421876 0,0.3984375 0.3984375,0.609375 0.87890625,0.609375 0.69140621,0 1.61718751,-0.5273438 1.87500001,-1.51171876 L 3.5379297,-3.1170078 c 0.046875,-0.1992188 0.046875,-0.3398438 0.046875,-0.375 0,-0.5625 -0.421875,-0.9140625 -0.9140625,-0.9140625 -1.0195313,0 -1.5820313,1.453125 -1.5820313,1.5351562 0,0.1054688 0.09375,0.1054688 0.1171875,0.1054688 0.09375,0 0.09375,-0.011719 0.1757813,-0.1992188 0.2460937,-0.609375 0.7148437,-1.21875 1.2539062,-1.21875 0.140625,0 0.3164063,0.035156 0.3164063,0.4570313 0,0.234375 -0.023437,0.3398437 -0.058594,0.5039062 z m 0,0"
       style="fill:#000000;fill-opacity:1;fill-rule:nonzero;stroke:none"
       aria-label="j"
       transform="matrix(1.3333333,0,0,1.3333333,458.78667,388.87867)" />
    <path
       id="path7"
       d="M 0,0 V 235.07433"
       style="fill:none;stroke:#000000;stroke-width:0.79701;stroke-linecap:butt;stroke-linejoin:miter;stroke-miterlimit:10;stroke-dasharray:none;stroke-opacity:1"
       transform="matrix(1.3333333,0,0,-1.3333333,163.56533,348.65333)" />
    <path
       id="path8"
       d="M 4.66248,0 C 3.28098,0.25902 1.0361,1.0361 -0.51805,1.94269 V -1.94269 C 1.0361,-1.0361 3.28098,-0.25902 4.66248,0"
       style="fill:#000000;fill-opacity:1;fill-rule:nonzero;stroke:none"
       transform="matrix(0,-1.3333333,-1.3333333,0,163.56533,35.220893)" />
    <path
       id="path9"
       d="m 2.8592031,-6.8090547 c 0,0 0,-0.1054687 -0.1289062,-0.1054687 -0.234375,0 -0.9609375,0.082031 -1.21875,0.1054687 -0.082031,0 -0.1875,0.011719 -0.1875,0.1992188 0,0.1171875 0.09375,0.1171875 0.234375,0.1171875 0.4804687,0 0.5039062,0.070312 0.5039062,0.1640625 l -0.035156,0.1992187 -1.44140627,5.74218751 c -0.0351563,0.140625 -0.0351563,0.15234375 -0.0351563,0.22265625 0,0.22265625 0.19921875,0.26953125 0.28125,0.26953125 0.12890625,0 0.28124997,-0.08203125 0.33984367,-0.2109375 0.058594,-0.0820312 0.5039063,-1.92187501 0.5625,-2.17968751 0.3398439,0.035156 1.1601563,0.1875 1.1601563,0.8554688 0,0.070312 0,0.1054687 -0.035156,0.1992187 -0.023437,0.1289063 -0.035156,0.24609376 -0.035156,0.35156251 0,0.5859375 0.3984375,0.984375 0.9140625,0.984375 0.2929687,0 0.5625,-0.15234375 0.7851562,-0.52734375 0.2460938,-0.43359375 0.3632813,-0.98437496 0.3632813,-1.00781246 0,-0.09375 -0.09375,-0.09375 -0.1289063,-0.09375 -0.09375,0 -0.1054687,0.035156 -0.140625,0.1757812 -0.1992187,0.72656251 -0.421875,1.24218751 -0.8671875,1.24218751 -0.1875,0 -0.3164061,-0.1171875 -0.3164061,-0.46875 0,-0.17578125 0.046875,-0.3984375 0.082031,-0.56250001 0.035156,-0.1640625 0.035156,-0.2109375 0.035156,-0.3046875 0,-0.65625 -0.6210938,-0.9375 -1.4648438,-1.0546875 0.3046875,-0.1757812 0.6210938,-0.4921875 0.8554688,-0.7265625 0.4804687,-0.5273437 0.9375,-0.9609375 1.4179686,-0.9609375 0.058594,0 0.070312,0 0.09375,0.011719 0.1171875,0.023437 0.1289063,0.023437 0.2109375,0.082031 0.023437,0 0.023437,0.011719 0.035156,0.035156 -0.4804688,0.035156 -0.5625,0.421875 -0.5625,0.5390625 0,0.1640625 0.1054687,0.3515625 0.375,0.3515625 0.2578125,0 0.5507812,-0.2226563 0.5507812,-0.609375 0,-0.3046875 -0.234375,-0.6328125 -0.6796875,-0.6328125 -0.28125,0 -0.7382811,0.082031 -1.4531249,0.8789062 -0.3398437,0.375 -0.7265625,0.7734375 -1.1015625,0.9257813 z m 0,0"
       style="fill:#000000;fill-opacity:1;fill-rule:nonzero;stroke:none"
       aria-label="k"
       transform="matrix(1.3333333,0,0,1.3333333,159.89867,17.637333)" />
    <path
       id="path10"
       d="M -48.47667,-45.55272 58.07301,-58.81602"
       style="fill:none;stroke:#000000;stroke-width:0.3985;stroke-linecap:butt;stroke-linejoin:miter;stroke-miterlimit:10;stroke-dasharray:2.98883, 2.98883;stroke-dashoffset:0;stroke-opacity:1"
       transform="matrix(1.3333333,0,0,-1.3333333,163.56533,348.65333)" />
    <g
       id="g10"
       aria-label="x&#10;0"
       transform="matrix(1.3333333,0,0,1.3333333,80.686667,402.704)">
      <path
         id="path11"
         d="m 3.32875,-3.012375 c 0.058594,-0.2578125 0.2929688,-1.171875 0.984375,-1.171875 0.046875,0 0.2929688,0 0.5039063,0.1289062 -0.28125,0.046875 -0.4804688,0.3046875 -0.4804688,0.5390625 0,0.1640625 0.1054688,0.3515625 0.375,0.3515625 0.2226563,0 0.5390625,-0.1875 0.5390625,-0.5859375 0,-0.515625 -0.5859375,-0.65625 -0.9257812,-0.65625 -0.5742188,0 -0.9257813,0.5273438 -1.0429688,0.7617188 -0.2578125,-0.65625 -0.7851562,-0.7617188 -1.078125,-0.7617188 -1.0429687,0 -1.60546875,1.2890625 -1.60546875,1.5351563 0,0.1054687 0.10546875,0.1054687 0.1171875,0.1054687 0.0820313,0 0.1171875,-0.023437 0.12890625,-0.1171875 0.3398438,-1.0546875 0.9960938,-1.3007812 1.3359375,-1.3007812 0.1875,0 0.5390625,0.09375 0.5390625,0.6679687 0,0.3046875 -0.1640625,0.9726563 -0.5390625,2.3671875 C 2.0279688,-0.528 1.6764063,-0.106125 1.2310938,-0.106125 c -0.058594,0 -0.28125005,0 -0.49218755,-0.12890625 C 0.985,-0.293625 1.2076563,-0.5045625 1.2076563,-0.77409375 1.2076563,-1.043625 0.985,-1.1256563 0.83265625,-1.1256563 c -0.29296875,0 -0.5390625,0.25781255 -0.5390625,0.5742188 0,0.45703125 0.4921875,0.65625 0.93750005,0.65625 0.65625,0 1.0078125,-0.69140625 1.0429687,-0.75 0.1171875,0.36328125 0.4804688,0.75 1.078125,0.75 1.0195313,0 1.59375,-1.2773438 1.59375,-1.5351563 0,-0.09375 -0.09375,-0.09375 -0.1289062,-0.09375 -0.082031,0 -0.1054688,0.035156 -0.1289063,0.1054688 -0.328125,1.06640625 -0.9960937,1.3125 -1.3242187,1.3125 -0.3867188,0 -0.5390625,-0.328125 -0.5390625,-0.65625 0,-0.22265625 0.058594,-0.4453125 0.1640625,-0.8789063 z m 0,0"
         style="fill:#000000;fill-opacity:1;fill-rule:nonzero;stroke:none" />
      <path
         id="path12"
         d="m 9.2906641,-0.73307813 c 0,-0.76171877 -0.09375,-1.31249997 -0.4101563,-1.80468747 -0.2226562,-0.3164063 -0.6445312,-0.5976563 -1.2070312,-0.5976563 -1.6171875,0 -1.6171875,1.8984375 -1.6171875,2.40234377 0,0.50390625 0,2.36718753 1.6171875,2.36718753 1.6171875,0 1.6171875,-1.86328128 1.6171875,-2.36718753 z M 7.6734766,1.4348906 c -0.3164063,0 -0.75,-0.1875 -0.890625,-0.76171873 -0.09375,-0.41015625 -0.09375,-0.984375 -0.09375,-1.5 0,-0.50390627 0,-1.03124997 0.1054687,-1.41796877 0.1523438,-0.5507812 0.5976563,-0.6914062 0.8789063,-0.6914062 0.375,0 0.7382812,0.2226562 0.8671875,0.6328125 0.1054687,0.375 0.1171875,0.8789062 0.1171875,1.47656247 0,0.515625 0,1.04296875 -0.09375,1.4765625 C 8.4234766,1.2825469 7.9547266,1.4348906 7.6734766,1.4348906 Z m 0,0"
         style="fill:#000000;fill-opacity:1;fill-rule:nonzero;stroke:none" />
    </g>
    <path
       id="path13"
       d="M 106.54968,-13.26329 58.07301,-58.81602"
       style="fill:none;stroke:#000000;stroke-width:0.3985;stroke-linecap:butt;stroke-linejoin:miter;stroke-miterlimit:10;stroke-dasharray:2.98883, 2.98883;stroke-dashoffset:0;stroke-opacity:1"
       transform="matrix(1.3333333,0,0,-1.3333333,163.56533,348.65333)" />
    <g
       id="g13"
       aria-label="y&#10;0"
       transform="matrix(1.3333333,0,0,1.3333333,299.39467,359.06133)">
      <path
         id="path14"
         d="m 4.8397422,-3.796 c 0.046875,-0.140625 0.046875,-0.1523438 0.046875,-0.2226563 0,-0.1875 -0.140625,-0.2695312 -0.2929688,-0.2695312 -0.1054687,0 -0.2578125,0.058594 -0.3515625,0.1992187 -0.023437,0.058594 -0.09375,0.3632813 -0.140625,0.5390625 -0.070312,0.2578125 -0.140625,0.5273438 -0.1992187,0.796875 l -0.4453125,1.7929688 c -0.035156,0.15234375 -0.46875,0.85546875 -1.125,0.85546875 -0.5039063,0 -0.6210938,-0.4453125 -0.6210938,-0.80859375 0,-0.4570313 0.1757813,-1.078125 0.515625,-1.9570313 0.1523438,-0.4101562 0.1992188,-0.515625 0.1992188,-0.7148437 0,-0.4453125 -0.328125,-0.8203125 -0.8203125,-0.8203125 -0.94921876,0 -1.31250001,1.453125 -1.31250001,1.5351562 0,0.1054688 0.09375,0.1054688 0.1171875,0.1054688 0.09375,0 0.10546875,-0.023437 0.15234375,-0.1875 0.26953125,-0.9375 0.66796876,-1.2304688 1.00781246,-1.2304688 0.082031,0 0.2578125,0 0.2578125,0.3164063 0,0.2460937 -0.1054687,0.515625 -0.1757812,0.703125 C 1.2538047,-2.1085 1.0780234,-1.546 1.0780234,-1.07725 c 0,0.890625 0.6210938,1.18359375 1.21875,1.18359375 0.3867188,0 0.7265625,-0.1640625 0.9960938,-0.4453125 C 3.1639609,0.17665625 3.0467734,0.66884375 2.6483359,1.1961875 2.3905234,1.5360312 2.0155234,1.829 1.5584922,1.829 c -0.140625,0 -0.59765626,-0.035156 -0.76171876,-0.421875 0.1640625,0 0.29296876,0 0.43359376,-0.1171875 0.09375,-0.09375 0.1992187,-0.2226563 0.1992187,-0.41015625 0,-0.31640625 -0.2695312,-0.3515625 -0.375,-0.3515625 -0.22265621,0 -0.55078121,0.1640625 -0.55078121,0.64453125 0,0.5039062 0.43359375,0.8671875 1.05468751,0.8671875 1.0195312,0 2.0507812,-0.9023438 2.3320312,-2.02734375 z m 0,0"
         style="fill:#000000;fill-opacity:1;fill-rule:nonzero;stroke:none" />
      <path
         id="path15"
         d="m 8.4813438,-0.73154688 c 0,-0.76171872 -0.09375,-1.31250002 -0.4101563,-1.80468752 -0.2226562,-0.3164062 -0.6445312,-0.5976562 -1.2070312,-0.5976562 -1.6171875,0 -1.6171875,1.8984375 -1.6171875,2.40234372 0,0.50390625 0,2.36718748 1.6171875,2.36718748 1.6171875,0 1.6171875,-1.86328123 1.6171875,-2.36718748 z M 6.8641563,1.4364219 c -0.3164063,0 -0.75,-0.1875 -0.890625,-0.76171878 -0.09375,-0.41015625 -0.09375,-0.984375 -0.09375,-1.5 0,-0.50390622 0,-1.03125002 0.1054687,-1.41796872 0.1523438,-0.5507813 0.5976563,-0.6914063 0.8789063,-0.6914063 0.375,0 0.7382812,0.2226563 0.8671875,0.6328125 0.1054687,0.375 0.1171875,0.8789063 0.1171875,1.47656252 0,0.515625 0,1.04296875 -0.09375,1.4765625 C 7.6141563,1.2840781 7.1454063,1.4364219 6.8641563,1.4364219 Z m 0,0"
         style="fill:#000000;fill-opacity:1;fill-rule:nonzero;stroke:none" />
    </g>
    <path
       id="path16"
       d="M 0,154.4967 58.07301,95.68068"
       style="fill:none;stroke:#000000;stroke-width:0.3985;stroke-linecap:butt;stroke-linejoin:miter;stroke-miterlimit:10;stroke-dasharray:2.98883, 2.98883;stroke-dashoffset:0;stroke-opacity:1"
       transform="matrix(1.3333333,0,0,-1.3333333,163.56533,348.65333)" />
    <g
       id="g16"
       aria-label="z&#10;0"
       transform="matrix(1.3333333,0,0,1.3333333,146.736,144.52267)">
      <path
         id="path17"
         d="M 1.323,-0.83145313 C 1.8620625,-1.4056719 2.1550313,-1.6517656 2.5065938,-1.9564531 c 0,-0.011719 0.6210937,-0.5390625 0.984375,-0.9023438 0.9375,-0.9257812 1.1601562,-1.40625 1.1601562,-1.4414062 0,-0.1054688 -0.09375,-0.1054688 -0.1054687,-0.1054688 -0.070312,0 -0.1054688,0.023437 -0.1523438,0.1171875 -0.3046875,0.46875 -0.5039062,0.6328125 -0.75,0.6328125 -0.234375,0 -0.3515625,-0.1523437 -0.5039062,-0.3164062 -0.1875,-0.234375 -0.3632813,-0.4335938 -0.6914063,-0.4335938 -0.75,0 -1.2070312,0.9257813 -1.2070312,1.1367188 0,0.046875 0.035156,0.1171875 0.1171875,0.1171875 0.09375,0 0.1171875,-0.058594 0.140625,-0.1171875 0.1875,-0.4570313 0.7617187,-0.46875 0.84375,-0.46875 0.2109375,0 0.3984375,0.070312 0.6210937,0.1523437 0.3984375,0.1523438 0.515625,0.1523438 0.7734375,0.1523438 C 3.3737813,-3.0111406 2.54175,-2.2962969 2.35425,-2.1322344 L 1.4519063,-1.3002031 C 0.77221875,-0.63223438 0.432375,-0.05801563 0.432375,0.01229687 c 0,0.09375 0.09375,0.09375 0.1171875,0.09375 0.0820313,0 0.09375,-0.01171875 0.15234375,-0.12890625 0.234375,-0.33984375 0.52734375,-0.609375 0.85546875,-0.609375 0.2226563,0 0.328125,0.0820313 0.5742188,0.375 0.1640625,0.2109375 0.3515625,0.36328125 0.6328125,0.36328125 0.984375,0 1.5703125,-1.26562497 1.5703125,-1.53515627 0,-0.046875 -0.046875,-0.09375 -0.1171875,-0.09375 -0.09375,0 -0.1171875,0.058594 -0.140625,0.1289063 -0.234375,0.64453122 -0.8671875,0.83203122 -1.1953125,0.83203122 -0.1992188,0 -0.3867188,-0.0585938 -0.5859375,-0.12890625 -0.3398438,-0.12890625 -0.4921875,-0.1640625 -0.703125,-0.1640625 -0.023437,0 -0.1757813,0 -0.2695313,0.0234375 z m 0,0"
         style="fill:#000000;fill-opacity:1;fill-rule:nonzero;stroke:none" />
      <path
         id="path18"
         d="m 8.2312031,-0.73184375 c 0,-0.76171875 -0.09375,-1.31250005 -0.4101562,-1.80468755 -0.2226563,-0.3164062 -0.6445313,-0.5976562 -1.2070313,-0.5976562 -1.6171875,0 -1.6171875,1.8984375 -1.6171875,2.40234375 0,0.50390625 0,2.36718745 1.6171875,2.36718745 1.6171875,0 1.6171875,-1.8632812 1.6171875,-2.36718745 z M 6.6140156,1.436125 c -0.3164062,0 -0.75,-0.1875 -0.890625,-0.76171875 -0.09375,-0.41015625 -0.09375,-0.984375 -0.09375,-1.5 0,-0.50390625 0,-1.03125005 0.1054688,-1.41796875 0.1523437,-0.5507813 0.5976562,-0.6914063 0.8789062,-0.6914063 0.375,0 0.7382813,0.2226563 0.8671875,0.6328125 0.1054688,0.375 0.1171875,0.8789063 0.1171875,1.47656255 0,0.515625 0,1.04296875 -0.09375,1.4765625 C 7.3640156,1.2837812 6.8952656,1.436125 6.6140156,1.436125 Z m 0,0"
         style="fill:#000000;fill-opacity:1;fill-rule:nonzero;stroke:none" />
    </g>
    <path
       id="path19"
       d="M 0,0 53.98543,90.25832"
       style="fill:none;stroke:#0000ff;stroke-width:0.79701;stroke-linecap:butt;stroke-linejoin:miter;stroke-miterlimit:10;stroke-dasharray:none;stroke-opacity:1"
       transform="matrix(1.3333333,0,0,-1.3333333,163.56533,348.65333)" />
    <path
       id="path20"
       d="M 4.66248,0 C 3.28098,0.25902 1.0361,1.0361 -0.51805,1.94269 V -1.94269 C 1.0361,-1.0361 3.28098,-0.25902 4.66248,0"
       style="fill:#0000ff;fill-opacity:1;fill-rule:nonzero;stroke:none"
       transform="matrix(0.6844,-1.1442267,-1.1442267,-0.6844,235.54588,228.30893)" />
    <g
       id="g20"
       aria-label="⃗x&#10;0"
       transform="matrix(1.3333333,0,0,1.3333333,182.38533,278.86267)">
      <path
         id="path21"
         d="m 5.3447891,-5.9292266 c -0.1289063,0.1289063 -0.4570313,0.4101563 -0.4570313,0.5859375 0,0.1054688 0.09375,0.1992188 0.1992188,0.1992188 0.082031,0 0.1289062,-0.070312 0.1875,-0.1289063 0.1171875,-0.140625 0.3398437,-0.421875 0.7851562,-0.6445312 0.070312,-0.035156 0.1640625,-0.09375 0.1640625,-0.2109375 0,-0.09375 -0.070312,-0.1523438 -0.140625,-0.1992188 -0.2109375,-0.1523437 -0.328125,-0.328125 -0.3984375,-0.5625 -0.023437,-0.09375 -0.070312,-0.2226562 -0.1992187,-0.2226562 -0.140625,0 -0.1992188,0.1289062 -0.1992188,0.2109375 0,0.046875 0.070312,0.3632812 0.234375,0.5742187 H 2.1572891 c -0.1640625,0 -0.3398438,0 -0.3398438,0.1992188 0,0.1992187 0.1757813,0.1992187 0.3398438,0.1992187 z m 0,0"
         style="fill:#0000ff;fill-opacity:1;fill-rule:nonzero;stroke:none" />
      <path
         id="path22"
         d="m 3.4873672,-2.3432891 c 0.2929687,-0.375 0.6796875,-0.8671875 0.9140625,-1.125 0.3164062,-0.3515625 0.7148437,-0.5039062 1.1835937,-0.515625 v -0.3046875 c -0.2578125,0.011719 -0.5507812,0.023437 -0.8085937,0.023437 -0.3046875,0 -0.8320313,-0.023437 -0.9609375,-0.023437 v 0.3046875 c 0.2109375,0.023437 0.2929687,0.1523438 0.2929687,0.3046875 0,0.1640625 -0.1054687,0.2929688 -0.1523437,0.3515625 L 3.3350234,-2.5542266 2.5615859,-3.5503203 c -0.09375,-0.1054688 -0.09375,-0.1289063 -0.09375,-0.1875 0,-0.1523438 0.1523438,-0.234375 0.3515625,-0.2460938 v -0.3046875 c -0.2578125,0 -0.9140625,0.023437 -1.078125,0.023437 -0.2109375,0 -0.6796875,-0.011719 -0.94921871,-0.023437 v 0.3046875 c 0.70312501,0 0.71484371,0.011719 1.18359371,0.609375 l 0.984375,1.2773438 -0.9375,1.19531249 C 1.5420547,-0.32766406 0.95611719,-0.30422656 0.74517969,-0.30422656 V 4.609375e-4 C 1.0029922,-0.02297656 1.3193984,-0.03469531 1.5772109,-0.03469531 c 0.28125,0 0.703125,0.0234375 0.9492188,0.0351562475 V -0.30422656 c -0.2226563,-0.0351563 -0.2929688,-0.1640625 -0.2929688,-0.31640625 0,-0.2109375 0.2929688,-0.53906249 0.890625,-1.26562499 l 0.7617188,0.99609374 c 0.082031,0.1171875 0.2109375,0.26953125 0.2109375,0.328125 0,0.09375 -0.09375,0.24609375 -0.3632813,0.2578125 V 4.609375e-4 C 4.0381484,-0.01125781 4.5889297,-0.03469531 4.8115859,-0.03469531 c 0.2695313,0 0.65625,0.01171875 0.9609375,0.0351562475 V -0.30422656 c -0.5390625,0 -0.7265625,-0.0234375 -0.9492187,-0.31640625 z m 0,0"
         style="fill:#0000ff;fill-opacity:1;fill-rule:nonzero;stroke:none" />
      <path
         id="path23"
         d="m 9.4844375,-0.73196094 c 0,-0.76171876 -0.09375,-1.31249996 -0.4101562,-1.80468746 C 8.851625,-2.8530547 8.42975,-3.1343047 7.86725,-3.1343047 c -1.6171875,0 -1.6171875,1.8984375 -1.6171875,2.40234376 0,0.50390625 0,2.36718754 1.6171875,2.36718754 1.6171875,0 1.6171875,-1.86328129 1.6171875,-2.36718754 z M 7.86725,1.4360078 c -0.3164062,0 -0.75,-0.1875 -0.890625,-0.76171874 -0.09375,-0.41015625 -0.09375,-0.984375 -0.09375,-1.5 0,-0.50390626 0,-1.03124996 0.1054688,-1.41796876 C 7.1406875,-2.7944609 7.586,-2.9350859 7.86725,-2.9350859 c 0.375,0 0.7382813,0.2226562 0.8671875,0.6328125 0.1054688,0.375 0.1171875,0.8789062 0.1171875,1.47656246 0,0.515625 0,1.04296875 -0.09375,1.4765625 C 8.61725,1.2836641 8.1485,1.4360078 7.86725,1.4360078 Z m 0,0"
         style="fill:#0000ff;fill-opacity:1;fill-rule:nonzero;stroke:none" />
    </g>
    <path
       id="path24"
       d="M 140.43387,135.0272 V -38.11603"
       style="fill:none;stroke:#000000;stroke-width:0.3985;stroke-linecap:butt;stroke-linejoin:miter;stroke-miterlimit:10;stroke-dasharray:2.98883, 2.98883;stroke-dashoffset:0;stroke-opacity:1"
       transform="matrix(1.3333333,0,0,-1.3333333,163.56533,348.65333)" />
    <path
       id="path25"
       d="M -19.39066,-18.22108 140.43387,-38.11603"
       style="fill:none;stroke:#000000;stroke-width:0.3985;stroke-linecap:butt;stroke-linejoin:miter;stroke-miterlimit:10;stroke-dasharray:2.98883, 2.98883;stroke-dashoffset:0;stroke-opacity:1"
       transform="matrix(1.3333333,0,0,-1.3333333,163.56533,348.65333)" />
    <path
       id="path26"
       d="m 3.3274609,-3.0122891 c 0.058594,-0.2578125 0.2929688,-1.171875 0.984375,-1.171875 0.046875,0 0.2929688,0 0.5039063,0.1289063 -0.28125,0.046875 -0.4804688,0.3046875 -0.4804688,0.5390625 0,0.1640625 0.1054688,0.3515625 0.375,0.3515625 0.2226563,0 0.5390625,-0.1875 0.5390625,-0.5859375 0,-0.515625 -0.5859375,-0.65625 -0.9257812,-0.65625 -0.5742188,0 -0.9257813,0.5273437 -1.0429688,0.7617187 -0.2578125,-0.65625 -0.7851562,-0.7617187 -1.078125,-0.7617187 -1.0429687,0 -1.60546871,1.2890625 -1.60546871,1.5351562 0,0.1054688 0.10546875,0.1054688 0.1171875,0.1054688 0.0820313,0 0.1171875,-0.023437 0.12890625,-0.1171875 0.33984376,-1.0546875 0.99609376,-1.3007813 1.33593746,-1.3007813 0.1875,0 0.5390625,0.09375 0.5390625,0.6679688 0,0.3046875 -0.1640625,0.9726562 -0.5390625,2.3671875 -0.1523437,0.62109374 -0.5039062,1.04296874 -0.9492187,1.04296874 -0.058594,0 -0.28125001,0 -0.49218751,-0.12890625 0.24609375,-0.0585938 0.46875001,-0.26953125 0.46875001,-0.5390625 0,-0.26953129 -0.22265626,-0.35156249 -0.37500001,-0.35156249 -0.29296875,0 -0.5390625,0.25781249 -0.5390625,0.57421874 0,0.45703125 0.4921875,0.65625 0.93750001,0.65625 0.65625,0 1.0078125,-0.69140625 1.0429687,-0.75 0.1171875,0.36328125 0.4804688,0.75 1.078125,0.75 1.0195313,0 1.59375,-1.27734374 1.59375,-1.53515624 0,-0.09375 -0.09375,-0.09375 -0.1289062,-0.09375 -0.082031,0 -0.1054688,0.035156 -0.1289063,0.1054687 -0.328125,1.06640629 -0.9960937,1.31250004 -1.3242187,1.31250004 -0.3867188,0 -0.5390625,-0.328125 -0.5390625,-0.65625 0,-0.22265625 0.058594,-0.44531254 0.1640625,-0.87890624 z m 0,0"
       style="fill:#000000;fill-opacity:1;fill-rule:nonzero;stroke:none"
       aria-label="x"
       transform="matrix(1.3333333,0,0,1.3333333,125.42667,368.25467)" />
    <path
       id="path27"
       d="M 159.82454,-19.89494 140.43387,-38.11603"
       style="fill:none;stroke:#000000;stroke-width:0.3985;stroke-linecap:butt;stroke-linejoin:miter;stroke-miterlimit:10;stroke-dasharray:2.98883, 2.98883;stroke-dashoffset:0;stroke-opacity:1"
       transform="matrix(1.3333333,0,0,-1.3333333,163.56533,348.65333)" />
    <path
       id="path28"
       d="m 4.8398203,-3.7971172 c 0.046875,-0.140625 0.046875,-0.1523437 0.046875,-0.2226562 0,-0.1875 -0.140625,-0.2695313 -0.2929687,-0.2695313 -0.1054688,0 -0.2578125,0.058594 -0.3515625,0.1992188 -0.023437,0.058594 -0.09375,0.3632812 -0.140625,0.5390625 -0.070312,0.2578125 -0.140625,0.5273437 -0.1992188,0.796875 l -0.4453125,1.79296871 c -0.035156,0.15234375 -0.46875,0.85546875 -1.125,0.85546875 -0.5039062,0 -0.6210937,-0.4453125 -0.6210937,-0.80859375 0,-0.45703121 0.1757812,-1.07812501 0.515625,-1.95703121 0.1523437,-0.4101563 0.1992187,-0.515625 0.1992187,-0.7148438 0,-0.4453125 -0.328125,-0.8203125 -0.8203125,-0.8203125 -0.94921874,0 -1.31249999,1.453125 -1.31249999,1.5351563 0,0.1054687 0.09375,0.1054687 0.1171875,0.1054687 0.09375,0 0.10546875,-0.023437 0.15234375,-0.1875 0.26953125,-0.9375 0.66796874,-1.2304687 1.00781254,-1.2304687 0.082031,0 0.2578125,0 0.2578125,0.3164062 0,0.2460938 -0.1054688,0.515625 -0.1757813,0.703125 -0.3984375,1.0546875 -0.5742187,1.6171875 -0.5742187,2.0859375 0,0.89062501 0.6210937,1.18359376 1.21875,1.18359376 0.3867187,0 0.7265625,-0.1640625 0.9960937,-0.4453125 -0.1289062,0.515625 -0.2460937,1.0078125 -0.6445312,1.53515624 -0.2578125,0.3398438 -0.6328125,0.6328125 -1.0898438,0.6328125 -0.140625,0 -0.59765624,-0.035156 -0.76171874,-0.421875 0.1640625,0 0.29296874,0 0.43359374,-0.1171875 0.09375,-0.09375 0.1992188,-0.2226562 0.1992188,-0.41015624 0,-0.31640625 -0.2695313,-0.3515625 -0.375,-0.3515625 -0.22265629,0 -0.55078129,0.1640625 -0.55078129,0.64453124 0,0.5039063 0.43359375,0.8671875 1.05468749,0.8671875 1.0195313,0 2.0507813,-0.9023437 2.3320313,-2.02734374 z m 0,0"
       style="fill:#000000;fill-opacity:1;fill-rule:nonzero;stroke:none"
       aria-label="y"
       transform="matrix(1.3333333,0,0,1.3333333,373.168,367.90267)" />
    <path
       id="path29"
       d="M 0,173.14325 140.43387,135.0272"
       style="fill:none;stroke:#000000;stroke-width:0.3985;stroke-linecap:butt;stroke-linejoin:miter;stroke-miterlimit:10;stroke-dasharray:2.98883, 2.98883;stroke-dashoffset:0;stroke-opacity:1"
       transform="matrix(1.3333333,0,0,-1.3333333,163.56533,348.65333)" />
    <path
       id="path30"
       d="M 1.3229922,-0.83336719 C 1.8620547,-1.4075859 2.1550234,-1.6536797 2.5065859,-1.9583672 c 0,-0.011719 0.6210938,-0.5390625 0.984375,-0.9023437 0.9375,-0.9257813 1.1601563,-1.40625 1.1601563,-1.4414063 0,-0.1054687 -0.09375,-0.1054687 -0.1054688,-0.1054687 -0.070312,0 -0.1054687,0.023437 -0.1523437,0.1171875 -0.3046875,0.46875 -0.5039063,0.6328125 -0.75,0.6328125 -0.234375,0 -0.3515625,-0.1523438 -0.5039063,-0.3164063 -0.1875,-0.234375 -0.3632812,-0.4335937 -0.6914062,-0.4335937 -0.75,0 -1.2070313,0.9257812 -1.2070313,1.1367187 0,0.046875 0.035156,0.1171875 0.1171875,0.1171875 0.09375,0 0.1171875,-0.058594 0.140625,-0.1171875 0.1875,-0.4570312 0.7617188,-0.46875 0.84375,-0.46875 0.2109375,0 0.3984375,0.070312 0.6210938,0.1523438 0.3984375,0.1523437 0.515625,0.1523437 0.7734375,0.1523437 -0.3632813,0.421875 -1.1953125,1.1367188 -1.3828125,1.3007813 l -0.9023438,0.8320312 c -0.67968746,0.66796876 -1.01953121,1.24218751 -1.01953121,1.31250001 0,0.09375 0.09375,0.09375 0.1171875,0.09375 0.0820313,0 0.09375,-0.01171875 0.15234375,-0.12890625 0.234375,-0.33984375 0.52734376,-0.609375 0.85546876,-0.609375 0.2226562,0 0.328125,0.0820313 0.5742187,0.375 0.1640625,0.2109375 0.3515625,0.36328125 0.6328125,0.36328125 0.984375,0 1.5703125,-1.26562501 1.5703125,-1.53515621 0,-0.046875 -0.046875,-0.09375 -0.1171875,-0.09375 -0.09375,0 -0.1171875,0.058594 -0.140625,0.1289062 -0.234375,0.64453126 -0.8671875,0.83203126 -1.1953125,0.83203126 -0.1992187,0 -0.3867187,-0.0585938 -0.5859375,-0.12890625 -0.3398437,-0.12890625 -0.4921875,-0.1640625 -0.703125,-0.1640625 -0.023437,0 -0.1757812,0 -0.2695312,0.0234375 z m 0,0"
       style="fill:#000000;fill-opacity:1;fill-rule:nonzero;stroke:none"
       aria-label="z"
       transform="matrix(1.3333333,0,0,1.3333333,141.45867,115.576)" />
    <path
       id="path31"
       d="M 0,0 135.38121,130.37198"
       style="fill:none;stroke:#0000ff;stroke-width:0.79701;stroke-linecap:butt;stroke-linejoin:miter;stroke-miterlimit:10;stroke-dasharray:none;stroke-opacity:1"
       transform="matrix(1.3333333,0,0,-1.3333333,163.56533,348.65333)" />
    <path
       id="path32"
       d="M 4.66248,0 C 3.28098,0.25902 1.0361,1.0361 -0.51805,1.94269 V -1.94269 C 1.0361,-1.0361 3.28098,-0.25902 4.66248,0"
       style="fill:#0000ff;fill-opacity:1;fill-rule:nonzero;stroke:none"
       transform="matrix(0.96038667,-0.92484,-0.92484,-0.96038667,344.07361,174.82405)" />
    <g
       id="g32"
       aria-label="⃗x"
       transform="matrix(1.3333333,0,0,1.3333333,297.96133,229.49733)">
      <path
         id="path33"
         d="m 5.3434531,-5.9306172 c -0.1289062,0.1289063 -0.4570312,0.4101563 -0.4570312,0.5859375 0,0.1054688 0.09375,0.1992188 0.1992187,0.1992188 0.082031,0 0.1289063,-0.070312 0.1875,-0.1289063 0.1171875,-0.140625 0.3398438,-0.421875 0.7851563,-0.6445312 0.070312,-0.035156 0.1640625,-0.09375 0.1640625,-0.2109375 0,-0.09375 -0.070312,-0.1523438 -0.140625,-0.1992188 -0.2109375,-0.1523437 -0.328125,-0.328125 -0.3984375,-0.5625 -0.023437,-0.09375 -0.070312,-0.2226562 -0.1992188,-0.2226562 -0.140625,0 -0.1992187,0.1289062 -0.1992187,0.2109375 0,0.046875 0.070312,0.3632812 0.234375,0.5742187 H 2.1559531 c -0.1640625,0 -0.3398437,0 -0.3398437,0.1992188 0,0.1992187 0.1757812,0.1992187 0.3398437,0.1992187 z m 0,0"
         style="fill:#0000ff;fill-opacity:1;fill-rule:nonzero;stroke:none" />
      <path
         id="path34"
         d="m 3.4860313,-2.3446797 c 0.2929687,-0.375 0.6796875,-0.8671875 0.9140625,-1.125 0.3164062,-0.3515625 0.7148437,-0.5039062 1.1835937,-0.515625 v -0.3046875 c -0.2578125,0.011719 -0.5507812,0.023437 -0.8085937,0.023437 -0.3046875,0 -0.8320313,-0.023437 -0.9609375,-0.023437 v 0.3046875 c 0.2109375,0.023437 0.2929687,0.1523438 0.2929687,0.3046875 0,0.1640625 -0.1054687,0.2929688 -0.1523437,0.3515625 L 3.3336875,-2.5556172 2.56025,-3.5517109 C 2.4665,-3.6571797 2.4665,-3.6806172 2.4665,-3.7392109 c 0,-0.1523438 0.1523438,-0.234375 0.3515625,-0.2460938 v -0.3046875 c -0.2578125,0 -0.9140625,0.023437 -1.078125,0.023437 -0.2109375,0 -0.6796875,-0.011719 -0.94921875,-0.023437 v 0.3046875 c 0.70312505,0 0.71484375,0.011719 1.18359375,0.609375 l 0.984375,1.2773438 -0.9375,1.19531246 C 1.5407188,-0.32905469 0.95478125,-0.30561719 0.74384375,-0.30561719 V -9.296875e-4 C 1.0016563,-0.02436719 1.3180625,-0.03608594 1.575875,-0.03608594 c 0.28125,0 0.703125,0.0234375 0.9492188,0.0351562525 V -0.30561719 C 2.3024375,-0.34077344 2.232125,-0.46967969 2.232125,-0.62202344 c 0,-0.2109375 0.2929688,-0.53906246 0.890625,-1.26562496 l 0.7617188,0.99609371 c 0.082031,0.1171875 0.2109375,0.26953125 0.2109375,0.328125 0,0.09375 -0.09375,0.24609375 -0.3632813,0.2578125 V -9.296875e-4 C 4.0368125,-0.01264844 4.5875938,-0.03608594 4.81025,-0.03608594 c 0.2695313,0 0.65625,0.01171875 0.9609375,0.0351562525 V -0.30561719 c -0.5390625,0 -0.7265625,-0.0234375 -0.9492187,-0.31640625 z m 0,0"
         style="fill:#0000ff;fill-opacity:1;fill-rule:nonzero;stroke:none" />
    </g>
    <path
       id="path35"
       d="m 62.05812,55.72496 c 0,2.20094 -1.78416,3.98511 -3.98511,3.98511 -2.20094,0 -3.98511,-1.78417 -3.98511,-3.98511 0,-2.20094 1.78417,-3.98511 3.98511,-3.98511 2.20095,0 3.98511,1.78417 3.98511,3.98511 z"
       style="fill:#ffffff;fill-opacity:1;fill-rule:nonzero;stroke:none"
       transform="matrix(1.3333333,0,0,-1.3333333,163.56533,348.65333)" />
    <path
       id="path36"
       d="M 58.07301,95.68068 V -58.81602"
       style="fill:none;stroke:#000000;stroke-width:0.3985;stroke-linecap:butt;stroke-linejoin:miter;stroke-miterlimit:10;stroke-dasharray:2.98883, 2.98883;stroke-dashoffset:0;stroke-opacity:1"
       transform="matrix(1.3333333,0,0,-1.3333333,163.56533,348.65333)" />
    <path
       id="path37"
       d="m 58.07301,95.68068 78.15413,37.33687"
       style="fill:none;stroke:#ff0000;stroke-width:0.79701;stroke-linecap:butt;stroke-linejoin:miter;stroke-miterlimit:10;stroke-dasharray:none;stroke-opacity:1"
       transform="matrix(1.3333333,0,0,-1.3333333,163.56533,348.65333)" />
    <path
       id="path38"
       d="M 4.66248,0 C 3.28098,0.25902 1.0361,1.0361 -0.51805,1.94269 V -1.94269 C 1.0361,-1.0361 3.28098,-0.25902 4.66248,0"
       style="fill:#ff0000;fill-opacity:1;fill-rule:nonzero;stroke:none"
       transform="matrix(1.203,-0.57470667,-0.57470667,-1.203,345.20151,171.29663)" />
    <g
       id="g38"
       aria-label="⃗r"
       transform="matrix(1.3333333,0,0,1.3333333,280.57733,195.13733)">
      <path
         id="path39"
         d="m 5.3443438,-5.9301484 c -0.1289063,0.1289062 -0.4570313,0.4101562 -0.4570313,0.5859375 0,0.1054687 0.09375,0.1992187 0.1992188,0.1992187 0.082031,0 0.1289062,-0.070312 0.1875,-0.1289062 0.1171875,-0.140625 0.3398437,-0.421875 0.7851562,-0.6445313 0.070312,-0.035156 0.1640625,-0.09375 0.1640625,-0.2109375 0,-0.09375 -0.070312,-0.1523437 -0.140625,-0.1992187 -0.2109375,-0.1523438 -0.328125,-0.328125 -0.3984375,-0.5625 -0.023437,-0.09375 -0.070312,-0.2226563 -0.1992187,-0.2226563 -0.140625,0 -0.1992188,0.1289063 -0.1992188,0.2109375 0,0.046875 0.070312,0.3632813 0.234375,0.5742188 H 2.1568438 c -0.1640625,0 -0.3398438,0 -0.3398438,0.1992187 0,0.1992188 0.1757813,0.1992188 0.3398438,0.1992188 z m 0,0"
         style="fill:#ff0000;fill-opacity:1;fill-rule:nonzero;stroke:none" />
      <path
         id="path40"
         d="m 2.9712969,-3.3051484 v -1.1015625 l -1.3828125,0.1171875 v 0.3046875 c 0.6914062,0 0.7734375,0.070312 0.7734375,0.5625 v 2.66015621 c 0,0.45703125 -0.1054688,0.45703125 -0.7734375,0.45703125 V -4.609375e-4 C 1.9752031,-0.01217969 2.4439531,-0.03561719 2.7252031,-0.03561719 c 0.3984375,0 0.8671875,0 1.265625,0.0351562525 V -0.30514844 H 3.7798906 c -0.7382812,0 -0.7617187,-0.1171875 -0.7617187,-0.46875 V -2.3090547 c 0,-0.984375 0.421875,-1.875 1.1835937,-1.875 0.058594,0 0.082031,0 0.1054688,0.011719 -0.035156,0.011719 -0.234375,0.1289062 -0.234375,0.3867187 0,0.28125 0.2109375,0.4335938 0.4335937,0.4335938 0.1757813,0 0.421875,-0.1289063 0.421875,-0.4453125 0,-0.3164063 -0.3046875,-0.609375 -0.7265625,-0.609375 -0.7382812,0 -1.0898437,0.6679687 -1.2304687,1.1015623 z m 0,0"
         style="fill:#ff0000;fill-opacity:1;fill-rule:nonzero;stroke:none" />
    </g>
    <path
       id="path41"
       d="m 60.36446,95.68068 c 0,1.26553 -1.02591,2.29144 -2.29145,2.29144 -1.26553,0 -2.29144,-1.02591 -2.29144,-2.29144 0,-1.26553 1.02591,-2.29144 2.29144,-2.29144 1.26554,0 2.29145,1.02591 2.29145,2.29144 z"
       style="fill:#000000;fill-opacity:1;fill-rule:nonzero;stroke:none"
       transform="matrix(1.3333333,0,0,-1.3333333,163.56533,348.65333)" />
    <path
       id="path42"
       d="m 4.5007266,-4.2885469 c 0,-0.046875 -0.023437,-0.1054687 -0.09375,-0.1054687 -0.1171875,0 -0.515625,0.3984375 -0.6796875,0.6914062 -0.2226563,-0.5390625 -0.609375,-0.703125 -0.9257813,-0.703125 -1.171875,0 -2.40234374,1.4765625 -2.40234374,2.9179688 0,0.98437497 0.5859375,1.59374997 1.31250004,1.59374997 0.4335937,0 0.8203125,-0.234375 1.1835937,-0.59765625 -0.09375,0.3515625 -0.421875,1.69921878 -0.4570312,1.79296878 -0.082031,0.2695312 -0.1523438,0.3164062 -0.7148438,0.328125 -0.1289062,0 -0.2226562,0 -0.2226562,0.1992187 0,0 0,0.1054688 0.1289062,0.1054688 0.3164063,0 0.6679688,-0.035156 0.9960938,-0.035156 0.328125,0 0.6914062,0.035156 1.0195312,0.035156 0.046875,0 0.1757813,0 0.1757813,-0.1992188 0,-0.1054687 -0.09375,-0.1054687 -0.2578125,-0.1054687 -0.46875,0 -0.46875,-0.070312 -0.46875,-0.1640625 0,-0.070312 0.011719,-0.1289063 0.035156,-0.2226563 z m -2.7539063,4.18359377 c -0.5976562,0 -0.6445312,-0.7734375 -0.6445312,-0.93749997 0,-0.4804688 0.2929687,-1.5703125 0.4570312,-1.9804688 0.3164063,-0.7382812 0.8320313,-1.1601562 1.2421875,-1.1601562 0.6445313,0 0.7851563,0.8085937 0.7851563,0.8789062 0,0.058594 -0.5507813,2.2382813 -0.5742188,2.2734375 -0.1523437,0.28125002 -0.7148437,0.92578127 -1.265625,0.92578127 z m 0,0"
       style="fill:#000000;fill-opacity:1;fill-rule:nonzero;stroke:none"
       aria-label="q"
       transform="matrix(1.3333333,0,0,1.3333333,237.792,213.804)" />
    <path
       id="path43"
       d="m 140.43387,135.0272 28.73709,13.72907"
       style="fill:none;stroke:#ff0000;stroke-width:0.79701;stroke-linecap:butt;stroke-linejoin:miter;stroke-miterlimit:10;stroke-dasharray:none;stroke-opacity:1"
       transform="matrix(1.3333333,0,0,-1.3333333,163.56533,348.65333)" />
    <path
       id="path44"
       d="M 4.66248,0 C 3.28098,0.25902 1.0361,1.0361 -0.51805,1.94269 V -1.94269 C 1.0361,-1.0361 3.28098,-0.25902 4.66248,0"
       style="fill:#ff0000;fill-opacity:1;fill-rule:nonzero;stroke:none"
       transform="matrix(1.203,-0.57470667,-0.57470667,-1.203,389.12659,150.31165)" />
    <g
       id="g44"
       aria-label="ˆr"
       transform="matrix(1.3333333,0,0,1.3333333,365.79467,155.26667)">
      <path
         id="path45"
         d="m 2.4948203,-6.9148438 -1.3359375,1.359375 0.1757813,0.1757813 1.1601562,-1.0195313 1.1367188,1.0195313 0.1875,-0.1757813 z m 0,0"
         style="fill:#ff0000;fill-opacity:1;fill-rule:nonzero;stroke:none" />
      <path
         id="path46"
         d="m 0.43232031,-0.58671875 c -0.0351563,0.15234375 -0.09375,0.375 -0.09375,0.421875 0,0.1875 0.140625,0.26953125 0.29296875,0.26953125 0.1171875,0 0.29296875,-0.0703125 0.36328125,-0.26953125 C 1.0182578,-0.21171875 1.3581016,-1.559375 1.3932578,-1.746875 1.4752891,-2.075 1.6510703,-2.7664063 1.7096641,-3.0359375 c 0.046875,-0.1289063 0.328125,-0.5976563 0.5625,-0.8203125 0.082031,-0.070312 0.375,-0.328125 0.796875,-0.328125 0.2578125,0 0.4101562,0.1171875 0.421875,0.1171875 -0.3046875,0.046875 -0.515625,0.2929687 -0.515625,0.5507812 0,0.1640625 0.1054687,0.3515625 0.375,0.3515625 0.2695312,0 0.5507812,-0.234375 0.5507812,-0.5859375 0,-0.3515625 -0.328125,-0.65625 -0.8320312,-0.65625 -0.6445313,0 -1.0898438,0.4921875 -1.2773438,0.7734375 -0.082031,-0.4570312 -0.4335937,-0.7734375 -0.90234374,-0.7734375 -0.45703125,0 -0.64453125,0.3867188 -0.73828125,0.5742188 -0.17578125,0.3398437 -0.3046875,0.9375 -0.3046875,0.9609375 0,0.1054687 0.09375,0.1054687 0.1171875,0.1054687 0.09375,0 0.10546875,-0.011719 0.1640625,-0.234375 0.17578125,-0.703125 0.375,-1.1835937 0.7265625,-1.1835937 0.17578129,0 0.31640629,0.082031 0.31640629,0.4570312 0,0.2109375 -0.035156,0.3164063 -0.1640625,0.8320313 z m 0,0"
         style="fill:#ff0000;fill-opacity:1;fill-rule:nonzero;stroke:none" />
    </g>
  </g>
</svg>
