<?xml version="1.0" encoding="UTF-8" standalone="no"?>
<!-- Created with Inkscape (http://www.inkscape.org/) -->

<svg
   version="1.1"
   id="svg1"
   width="453.46268"
   height="425.29068"
   viewBox="0 0 453.46268 425.29068"
   xmlns="http://www.w3.org/2000/svg"
   xmlns:svg="http://www.w3.org/2000/svg">
  <defs
     id="defs1" />
  <g
     id="g1">
    <path
       id="path1"
       d="M 0,0 -64.4698,-60.58116"
       style="fill:none;stroke:#000000;stroke-width:0.79701;stroke-linecap:butt;stroke-linejoin:miter;stroke-miterlimit:10;stroke-dasharray:none;stroke-opacity:1"
       transform="matrix(1.3333333,0,0,-1.3333333,169.57733,310.004)" />
    <path
       id="path2"
       d="M 4.66248,0 C 3.28098,0.25902 1.0361,1.0361 -0.51805,1.94269 V -1.94269 C 1.0361,-1.0361 3.28098,-0.25902 4.66248,0"
       style="fill:#000000;fill-opacity:1;fill-rule:nonzero;stroke:none"
       transform="matrix(-0.9716,0.913,0.913,0.9716,83.6176,390.77888)" />
    <path
       id="path3"
       d="m 2.831575,-6.2247156 c 0,-0.2015625 -0.140625,-0.3609375 -0.3703125,-0.3609375 -0.2671875,0 -0.5390625,0.2625 -0.5390625,0.5296875 0,0.1875 0.140625,0.35625 0.3796875,0.35625 0.2296875,0 0.5296875,-0.225 0.5296875,-0.525 z M 2.0722,-2.4794031 c 0.121875,-0.290625 0.121875,-0.309375 0.2203125,-0.5765625 0.079687,-0.2015625 0.1265625,-0.3421875 0.1265625,-0.5296875 0,-0.45 -0.31875,-0.815625 -0.815625,-0.815625 -0.9375,0 -1.3125,1.44375 -1.3125,1.5328125 0,0.098437 0.0984375,0.098437 0.1171875,0.098437 0.0984375,0 0.1125,-0.01875 0.159375,-0.178125 0.271875,-0.9375 0.6703125,-1.2375 1.0078125,-1.2375 0.079687,0 0.2484375,0 0.2484375,0.31875 0,0.2109375 -0.070312,0.421875 -0.1078125,0.5203125 -0.079688,0.2578125 -0.5296875,1.415625 -0.6890625,1.8421875 C 0.92845,-1.2465906 0.7972,-0.91846562 0.7972,-0.70752812 c 0,0.46875 0.3375,0.815625 0.815625,0.815625 0.9375,0 1.3078125,-1.44374998 1.3078125,-1.53281248 0,-0.098437 -0.089063,-0.098437 -0.121875,-0.098437 -0.098438,0 -0.098438,0.028125 -0.15,0.178125 -0.178125,0.62812498 -0.50625,1.23749998 -1.0125,1.23749998 -0.1734375,0 -0.2390625,-0.103125 -0.2390625,-0.3328125 0,-0.2484375 0.05625,-0.384375 0.2859375,-0.99374998 z m 0,0"
       style="fill:#000000;fill-opacity:1;fill-rule:nonzero;stroke:none"
       aria-label="i"
       transform="matrix(3.3333333,0,0,3.3333333,68.842667,410.23733)" />
    <path
       id="path4"
       d="M 0,0 181.83534,-22.63493"
       style="fill:none;stroke:#000000;stroke-width:0.79701;stroke-linecap:butt;stroke-linejoin:miter;stroke-miterlimit:10;stroke-dasharray:none;stroke-opacity:1"
       transform="matrix(1.3333333,0,0,-1.3333333,169.57733,310.004)" />
    <path
       id="path5"
       d="M 4.66248,0 C 3.28098,0.25902 1.0361,1.0361 -0.51805,1.94269 V -1.94269 C 1.0361,-1.0361 3.28098,-0.25902 4.66248,0"
       style="fill:#000000;fill-opacity:1;fill-rule:nonzero;stroke:none"
       transform="matrix(1.32308,0.16466667,0.16466667,-1.32308,412.02444,340.18391)" />
    <path
       id="path6"
       d="m 3.9562594,-6.2246031 c 0,-0.1921875 -0.140625,-0.3609375 -0.3796875,-0.3609375 -0.2296875,0 -0.5296875,0.2296875 -0.5296875,0.5296875 0,0.196875 0.140625,0.35625 0.3703125,0.35625 0.2671875,0 0.5390625,-0.2578125 0.5390625,-0.525 z M 1.9546969,0.49727188 C 1.7625094,1.2566469 1.2843844,1.8238344 0.72657187,1.8238344 c -0.0609375,0 -0.20625,0 -0.3890625,-0.089063 0.3,-0.070312 0.45,-0.328125 0.45,-0.5296875 0,-0.159375 -0.1078125,-0.34687502 -0.3796875,-0.34687502 -0.24843749,0 -0.5390625,0.20625002 -0.5390625,0.56718752 0,0.3984375 0.3984375,0.61875 0.87656251,0.61875 0.69843752,0 1.62656252,-0.5296875 1.87500002,-1.51406252 L 3.5343844,-3.1167906 c 0.051563,-0.2015625 0.051563,-0.3375 0.051563,-0.3703125 0,-0.5671875 -0.4171875,-0.9140625 -0.9140625,-0.9140625 -1.0171875,0 -1.584375,1.44375 -1.584375,1.5328125 0,0.098438 0.098437,0.098438 0.1171875,0.098438 0.089062,0 0.098437,-0.00937 0.178125,-0.196875 0.253125,-0.609375 0.7078125,-1.21875 1.25625,-1.21875 0.140625,0 0.31875,0.042188 0.31875,0.459375 0,0.2296875 -0.028125,0.3375 -0.070312,0.5109375 z m 0,0"
       style="fill:#000000;fill-opacity:1;fill-rule:nonzero;stroke:none"
       aria-label="j"
       transform="matrix(3.3333333,0,0,3.3333333,422.832,350.22133)" />
    <path
       id="path7"
       d="M 0,0 V 197.78209"
       style="fill:none;stroke:#000000;stroke-width:0.79701;stroke-linecap:butt;stroke-linejoin:miter;stroke-miterlimit:10;stroke-dasharray:none;stroke-opacity:1"
       transform="matrix(1.3333333,0,0,-1.3333333,169.57733,310.004)" />
    <path
       id="path8"
       d="M 4.66248,0 C 3.28098,0.25902 1.0361,1.0361 -0.51805,1.94269 V -1.94269 C 1.0361,-1.0361 3.28098,-0.25902 4.66248,0"
       style="fill:#000000;fill-opacity:1;fill-rule:nonzero;stroke:none"
       transform="matrix(0,-1.3333333,-1.3333333,0,169.57733,46.294547)" />
    <path
       id="path9"
       d="m 2.8596219,-6.8019781 c 0,-0.014062 0,-0.1125 -0.13125,-0.1125 -0.2296875,0 -0.95625,0.079688 -1.2140625,0.098438 -0.079687,0.014062 -0.1875,0.023437 -0.1875,0.2015625 0,0.1171875 0.089063,0.1171875 0.2390625,0.1171875 0.478125,0 0.496875,0.070312 0.496875,0.1734375 l -0.028125,0.196875 -1.44843752,5.73749998 c -0.0375,0.140625 -0.0375,0.159375 -0.0375,0.2203125 0,0.2296875 0.196875,0.2765625 0.290625,0.2765625 0.1265625,0 0.27656252,-0.0890625 0.33750002,-0.20625 0.046875,-0.0890625 0.496875,-1.93593748 0.5578125,-2.18437498 0.3375,0.032812 1.153125,0.1921875 1.153125,0.8484375 0,0.070312 0,0.1078125 -0.028125,0.2109375 -0.01875,0.1171875 -0.042188,0.23906248 -0.042188,0.34687498 0,0.5859375 0.3984375,0.984375 0.91875,0.984375 0.3,0 0.5671875,-0.159375 0.7875,-0.525 0.2484375,-0.440625 0.35625,-0.98906248 0.35625,-1.00781248 0,-0.098437 -0.089062,-0.098437 -0.1171875,-0.098437 -0.098438,0 -0.1125,0.0375 -0.140625,0.178125 -0.196875,0.72656248 -0.4265625,1.23749998 -0.8671875,1.23749998 -0.1875,0 -0.31875,-0.1125 -0.31875,-0.46875 0,-0.16875 0.042187,-0.3984375 0.079687,-0.55781248 0.042187,-0.16875 0.042187,-0.2109375 0.042187,-0.309375 0,-0.646875 -0.628125,-0.9375 -1.4765625,-1.0453125 0.309375,-0.1828125 0.628125,-0.5015625 0.8578125,-0.740625 0.478125,-0.525 0.9375,-0.95625 1.425,-0.95625 0.060938,0 0.070312,0 0.089062,0.014062 0.1171875,0.01875 0.13125,0.01875 0.2109375,0.079688 0.01875,0.00937 0.01875,0.01875 0.0375,0.0375 -0.478125,0.028125 -0.5671875,0.4171875 -0.5671875,0.5390625 0,0.159375 0.1078125,0.346875 0.3796875,0.346875 0.2578125,0 0.5484375,-0.2203125 0.5484375,-0.6046875 0,-0.3 -0.2296875,-0.628125 -0.6796875,-0.628125 -0.2765625,0 -0.7359375,0.079688 -1.453125,0.8765625 -0.3375,0.375 -0.7265625,0.7734375 -1.10625,0.9234375 z m 0,0"
       style="fill:#000000;fill-opacity:1;fill-rule:nonzero;stroke:none"
       aria-label="k"
       transform="matrix(3.3333333,0,0,3.3333333,160.40933,38.114667)" />
    <path
       id="path10"
       d="M -48.47667,-45.55272 58.07301,-58.81602"
       style="fill:none;stroke:#000000;stroke-width:0.3985;stroke-linecap:butt;stroke-linejoin:miter;stroke-miterlimit:10;stroke-dasharray:2.98883, 2.98883;stroke-dashoffset:0;stroke-opacity:1"
       transform="matrix(1.3333333,0,0,-1.3333333,169.57733,310.004)" />
    <g
       id="g10"
       aria-label="x&#10;0"
       transform="matrix(3.3333333,0,0,3.3333333,59.333333,375.39867)">
      <path
         id="path11"
         d="m 3.3277344,-3.0094437 c 0.060937,-0.2578125 0.2859375,-1.1765625 0.984375,-1.1765625 0.051563,0 0.290625,0 0.496875,0.13125 -0.2765625,0.051563 -0.478125,0.3 -0.478125,0.5390625 0,0.159375 0.1125,0.346875 0.3796875,0.346875 0.2203125,0 0.5390625,-0.178125 0.5390625,-0.5765625 0,-0.5203125 -0.5859375,-0.65625 -0.928125,-0.65625 -0.5765625,0 -0.9234375,0.525 -1.0453125,0.7546875 -0.2484375,-0.65625 -0.7875,-0.7546875 -1.0734375,-0.7546875 -1.0359375,0 -1.60312502,1.284375 -1.60312502,1.5328125 0,0.098437 0.0984375,0.098437 0.1171875,0.098437 0.0796875,0 0.1078125,-0.01875 0.13125,-0.1078125 0.33750002,-1.0546875 0.99375002,-1.3078125 1.33125002,-1.3078125 0.1921875,0 0.5390625,0.09375 0.5390625,0.6703125 0,0.309375 -0.16875,0.975 -0.5390625,2.371875 -0.159375,0.61406245 -0.50625,1.03593745 -0.9421875,1.03593745 -0.060938,0 -0.29062502,0 -0.50156252,-0.13125 0.2484375,-0.0515625 0.46875002,-0.2578125 0.46875002,-0.5390625 0,-0.26718745 -0.22031252,-0.34687495 -0.36562502,-0.34687495 -0.3,0 -0.5484375,0.25781245 -0.5484375,0.57656245 0,0.459375 0.496875,0.65625 0.93281252,0.65625 0.6609375,0 1.0171875,-0.69375 1.05,-0.7546875 0.1171875,0.365625 0.478125,0.7546875 1.0734375,0.7546875 1.0265625,0 1.59375,-1.28437495 1.59375,-1.53281245 0,-0.098437 -0.089062,-0.098437 -0.1171875,-0.098437 -0.09375,0 -0.1125,0.0375 -0.13125,0.1078125 -0.328125,1.06874995 -1.0078125,1.30781245 -1.3265625,1.30781245 -0.3890625,0 -0.5484375,-0.31875 -0.5484375,-0.6609375 0,-0.215625 0.060938,-0.43593745 0.1734375,-0.87656245 z m 0,0"
         style="fill:#000000;fill-opacity:1;fill-rule:nonzero;stroke:none" />
      <path
         id="path12"
         d="m 9.29375,-0.73249062 c 0,-0.76406248 -0.09375,-1.31718748 -0.4125,-1.80468748 -0.215625,-0.3234375 -0.646875,-0.6 -1.2046875,-0.6 -1.621875,0 -1.621875,1.903125 -1.621875,2.40468748 0,0.5015625 0,2.36718752 1.621875,2.36718752 1.6171875,0 1.6171875,-1.86562502 1.6171875,-2.36718752 z M 7.6765625,1.4378219 c -0.3234375,0 -0.75,-0.1875 -0.8859375,-0.75937502 -0.098438,-0.4125 -0.098438,-0.984375 -0.098438,-1.5 0,-0.51093748 0,-1.04062498 0.103125,-1.42499998 0.1453125,-0.5484375 0.5953125,-0.69375 0.88125,-0.69375 0.375,0 0.7359375,0.2296875 0.8625,0.6328125 0.1125,0.375 0.1171875,0.88125 0.1171875,1.48593748 0,0.515625 0,1.03125 -0.089063,1.471875 C 8.4265625,1.2831344 7.953125,1.4378219 7.6765625,1.4378219 Z m 0,0"
         style="fill:#000000;fill-opacity:1;fill-rule:nonzero;stroke:none" />
    </g>
    <path
       id="path13"
       d="M 106.54968,-13.26329 58.07301,-58.81602"
       style="fill:none;stroke:#000000;stroke-width:0.3985;stroke-linecap:butt;stroke-linejoin:miter;stroke-miterlimit:10;stroke-dasharray:2.98883, 2.98883;stroke-dashoffset:0;stroke-opacity:1"
       transform="matrix(1.3333333,0,0,-1.3333333,169.57733,310.004)" />
    <g
       id="g13"
       aria-label="y&#10;0"
       transform="matrix(3.3333333,0,0,3.3333333,296.052,309.49867)">
      <path
         id="path14"
         d="m 4.8418219,-3.796475 c 0.0375,-0.1359375 0.0375,-0.159375 0.0375,-0.2296875 0,-0.178125 -0.1359375,-0.2671875 -0.2859375,-0.2671875 -0.103125,0 -0.2625,0.060938 -0.3515625,0.2109375 -0.01875,0.046875 -0.098437,0.35625 -0.1359375,0.534375 -0.070312,0.2625 -0.140625,0.5296875 -0.2015625,0.796875 l -0.45,1.7953125 c -0.0375,0.15 -0.4640625,0.8484375 -1.125,0.8484375 -0.50625,0 -0.6140625,-0.440625 -0.6140625,-0.8109375 0,-0.4546875 0.16875,-1.0734375 0.50625,-1.95 0.159375,-0.4078125 0.196875,-0.5203125 0.196875,-0.7171875 0,-0.45 -0.31875,-0.815625 -0.815625,-0.815625 -0.94687502,0 -1.31250002,1.44375 -1.31250002,1.5328125 0,0.098437 0.0984375,0.098437 0.1171875,0.098437 0.0984375,0 0.1125,-0.01875 0.159375,-0.178125 0.271875,-0.9375 0.67031252,-1.2375 1.00781252,-1.2375 0.079687,0 0.2484375,0 0.2484375,0.31875 0,0.253125 -0.098437,0.5109375 -0.16875,0.6984375 -0.3984375,1.0546875 -0.5765625,1.6265625 -0.5765625,2.090625 0,0.890625 0.6234375,1.1859375 1.2140625,1.1859375 0.3890625,0 0.7265625,-0.16875 1.003125,-0.4453125 -0.1265625,0.515625 -0.2484375,1.003125 -0.646875,1.5328125 -0.2578125,0.3375 -0.6375,0.628125 -1.0921875,0.628125 -0.140625,0 -0.59062502,-0.028125 -0.75937502,-0.4171875 0.159375,0 0.29062502,0 0.42656252,-0.121875 0.103125,-0.089063 0.2015625,-0.2203125 0.2015625,-0.4078125 0,-0.309375 -0.2671875,-0.346875 -0.3703125,-0.346875 -0.22968752,0 -0.55781252,0.159375 -0.55781252,0.646875 0,0.496875 0.440625,0.8671875 1.05937502,0.8671875 1.021875,0 2.0484375,-0.909375 2.3296875,-2.034375 z m 0,0"
         style="fill:#000000;fill-opacity:1;fill-rule:nonzero;stroke:none" />
      <path
         id="path15"
         d="m 8.4840094,-0.73202187 c 0,-0.76406253 -0.09375,-1.31718753 -0.4125,-1.80468753 -0.215625,-0.3234375 -0.646875,-0.6 -1.2046875,-0.6 -1.621875,0 -1.621875,1.903125 -1.621875,2.40468753 0,0.5015625 0,2.36718747 1.621875,2.36718747 1.6171875,0 1.6171875,-1.86562497 1.6171875,-2.36718747 z M 6.8668219,1.4382906 c -0.3234375,0 -0.75,-0.1875 -0.8859375,-0.75937497 -0.098438,-0.4125 -0.098438,-0.984375 -0.098438,-1.5 0,-0.51093753 0,-1.04062503 0.103125,-1.42500003 0.1453125,-0.5484375 0.5953125,-0.69375 0.88125,-0.69375 0.375,0 0.7359375,0.2296875 0.8625,0.6328125 0.1125,0.375 0.1171875,0.88125 0.1171875,1.48593753 0,0.515625 0,1.03125 -0.089063,1.471875 C 7.6168219,1.2836031 7.1433844,1.4382906 6.8668219,1.4382906 Z m 0,0"
         style="fill:#000000;fill-opacity:1;fill-rule:nonzero;stroke:none" />
    </g>
    <path
       id="path16"
       d="M 0,154.4967 58.07301,95.68068"
       style="fill:none;stroke:#000000;stroke-width:0.3985;stroke-linecap:butt;stroke-linejoin:miter;stroke-miterlimit:10;stroke-dasharray:2.98883, 2.98883;stroke-dashoffset:0;stroke-opacity:1"
       transform="matrix(1.3333333,0,0,-1.3333333,169.57733,310.004)" />
    <g
       id="g16"
       aria-label="z&#10;0"
       transform="matrix(3.3333333,0,0,3.3333333,127.50267,108.66933)">
      <path
         id="path17"
         d="m 1.3269344,-0.82540937 c 0.534375,-0.58125003 0.825,-0.82968753 1.1859375,-1.13906253 0,-0.00938 0.6140625,-0.534375 0.975,-0.8953125 0.946875,-0.928125 1.1625,-1.40625 1.1625,-1.44375 0,-0.098438 -0.089062,-0.098438 -0.1078125,-0.098438 -0.070312,0 -0.098438,0.01875 -0.15,0.1078125 -0.3,0.478125 -0.50625,0.6375 -0.7453125,0.6375 -0.2390625,0 -0.3609375,-0.15 -0.5109375,-0.31875 -0.1875,-0.2296875 -0.35625,-0.4265625 -0.684375,-0.4265625 -0.75,0 -1.2046875,0.9234375 -1.2046875,1.134375 0,0.051563 0.028125,0.1078125 0.1171875,0.1078125 0.089063,0 0.1125,-0.046875 0.13125,-0.1078125 0.1875,-0.459375 0.7640625,-0.46875 0.84375,-0.46875 0.2109375,0 0.3984375,0.070312 0.628125,0.15 0.3984375,0.15 0.5109375,0.15 0.76875,0.15 -0.3609375,0.4265625 -1.1953125,1.14375 -1.3828125,1.303125 l -0.9,0.8390625 c -0.67500002,0.66562503 -1.02656252,1.23281253 -1.02656252,1.30312503 0,0.0984375 0.103125,0.0984375 0.121875,0.0984375 0.0796875,0 0.0984375,-0.01875 0.159375,-0.1265625 0.2296875,-0.3515625 0.52968752,-0.61875 0.84843752,-0.61875 0.225,0 0.328125,0.0890625 0.5765625,0.3796875 0.16875,0.20625 0.346875,0.365625 0.6375,0.365625 0.984375,0 1.5609375,-1.26562503 1.5609375,-1.53281253 0,-0.051562 -0.0375,-0.098437 -0.1171875,-0.098437 -0.089062,0 -0.1078125,0.060937 -0.140625,0.1265625 -0.2296875,0.65156253 -0.8671875,0.83906253 -1.1953125,0.83906253 -0.196875,0 -0.3796875,-0.0609375 -0.5859375,-0.13125 -0.3375,-0.1265625 -0.4875,-0.16875 -0.6984375,-0.16875 -0.01875,0 -0.178125,0 -0.2671875,0.0328125 z m 0,0"
         style="fill:#000000;fill-opacity:1;fill-rule:nonzero;stroke:none" />
      <path
         id="path18"
         d="m 8.2327938,-0.73283125 c 0,-0.76406245 -0.09375,-1.31718745 -0.4125,-1.80468745 -0.215625,-0.3234375 -0.646875,-0.6 -1.2046875,-0.6 -1.621875,0 -1.621875,1.903125 -1.621875,2.40468745 0,0.5015625 0,2.36718755 1.621875,2.36718755 1.6171875,0 1.6171875,-1.86562505 1.6171875,-2.36718755 z M 6.6156063,1.4374813 c -0.3234375,0 -0.75,-0.1875 -0.8859375,-0.75937505 -0.098438,-0.4125 -0.098438,-0.984375 -0.098438,-1.5 0,-0.51093745 0,-1.04062495 0.103125,-1.42499995 0.1453125,-0.5484375 0.5953125,-0.69375 0.88125,-0.69375 0.375,0 0.7359375,0.2296875 0.8625,0.6328125 0.1125,0.375 0.1171875,0.88125 0.1171875,1.48593745 0,0.515625 0,1.03125 -0.089063,1.471875 C 7.3656063,1.2827938 6.8921688,1.4374813 6.6156063,1.4374813 Z m 0,0"
         style="fill:#000000;fill-opacity:1;fill-rule:nonzero;stroke:none" />
    </g>
    <path
       id="path19"
       d="M 0,0 53.98543,90.25832"
       style="fill:none;stroke:#0000ff;stroke-width:0.79701;stroke-linecap:butt;stroke-linejoin:miter;stroke-miterlimit:10;stroke-dasharray:none;stroke-opacity:1"
       transform="matrix(1.3333333,0,0,-1.3333333,169.57733,310.004)" />
    <path
       id="path20"
       d="M 4.66248,0 C 3.28098,0.25902 1.0361,1.0361 -0.51805,1.94269 V -1.94269 C 1.0361,-1.0361 3.28098,-0.25902 4.66248,0"
       style="fill:#0000ff;fill-opacity:1;fill-rule:nonzero;stroke:none"
       transform="matrix(0.6844,-1.1442267,-1.1442267,-0.6844,241.55788,189.6596)" />
    <g
       id="g20"
       aria-label="⃗x&#10;0"
       transform="matrix(3.3333333,0,0,3.3333333,179.04,225.11733)">
      <path
         id="path21"
         d="m 5.3481563,-5.9250437 c -0.140625,0.1265625 -0.46875,0.4078125 -0.46875,0.5859375 0,0.098438 0.103125,0.196875 0.2015625,0.196875 0.089062,0 0.140625,-0.065625 0.1875,-0.1265625 0.121875,-0.15 0.3515625,-0.43125 0.7875,-0.646875 0.070312,-0.042187 0.16875,-0.089062 0.16875,-0.2109375 0,-0.098437 -0.070312,-0.15 -0.140625,-0.196875 -0.215625,-0.15 -0.328125,-0.3328125 -0.4078125,-0.571875 -0.01875,-0.089062 -0.05625,-0.215625 -0.196875,-0.215625 -0.140625,0 -0.2015625,0.1265625 -0.2015625,0.20625 0,0.051562 0.079687,0.3703125 0.2390625,0.58125 h -3.35625 c -0.16875,0 -0.346875,0 -0.346875,0.196875 0,0.2015625 0.178125,0.2015625 0.346875,0.2015625 z m 0,0"
         style="fill:#0000ff;fill-opacity:1;fill-rule:nonzero;stroke:none" />
      <path
         id="path22"
         d="m 3.4872188,-2.3391062 c 0.3,-0.3796875 0.675,-0.8671875 0.9140625,-1.1296875 0.309375,-0.35625 0.7171875,-0.50625 1.1859375,-0.515625 v -0.309375 c -0.2578125,0.01875 -0.5578125,0.028125 -0.815625,0.028125 -0.3,0 -0.825,-0.01875 -0.95625,-0.028125 v 0.309375 c 0.2109375,0.01875 0.290625,0.15 0.290625,0.309375 0,0.159375 -0.103125,0.2859375 -0.15,0.346875 l -0.61875,0.778125 -0.778125,-1.0078125 c -0.089062,-0.098438 -0.089062,-0.1171875 -0.089062,-0.178125 0,-0.15 0.15,-0.2390625 0.3515625,-0.2484375 v -0.309375 c -0.2625,0.00938 -0.91875,0.028125 -1.078125,0.028125 -0.2109375,0 -0.675,-0.00938 -0.94687505,-0.028125 v 0.309375 c 0.69843755,0 0.70781255,0.00937 1.17656255,0.609375 l 0.984375,1.284375 -0.9328125,1.18593745 c -0.478125,0.5765625 -1.06875005,0.5953125 -1.27500005,0.5953125 v 0.309375 c 0.25781255,-0.01875 0.56718755,-0.028125 0.82500005,-0.028125 0.290625,0 0.7078125,0.01875 0.946875,0.028125 v -0.309375 c -0.2203125,-0.028125 -0.290625,-0.159375 -0.290625,-0.309375 0,-0.2203125 0.290625,-0.54843745 0.8953125,-1.26562495 l 0.759375,0.99843745 c 0.079687,0.1078125 0.2109375,0.2671875 0.2109375,0.328125 0,0.0890625 -0.09375,0.2390625 -0.3609375,0.2484375 v 0.309375 c 0.3,-0.009375 0.8578125,-0.028125 1.078125,-0.028125 0.2671875,0 0.65625,0.009375 0.95625,0.028125 v -0.309375 c -0.5390625,0 -0.7171875,-0.01875 -0.946875,-0.309375 z m 0,0"
         style="fill:#0000ff;fill-opacity:1;fill-rule:nonzero;stroke:none" />
      <path
         id="path23"
         d="m 9.4860469,-0.73129375 c 0,-0.76406245 -0.09375,-1.31718745 -0.4125,-1.80468745 -0.215625,-0.3234375 -0.646875,-0.6 -1.2046875,-0.6 -1.621875,0 -1.621875,1.903125 -1.621875,2.40468745 0,0.5015625 0,2.36718755 1.621875,2.36718755 1.6171875,0 1.6171875,-1.86562505 1.6171875,-2.36718755 z M 7.8688594,1.4390188 c -0.3234375,0 -0.75,-0.1875 -0.8859375,-0.75937505 -0.098438,-0.4125 -0.098438,-0.984375 -0.098438,-1.5 0,-0.51093745 0,-1.04062495 0.103125,-1.42499995 0.1453125,-0.5484375 0.5953125,-0.69375 0.88125,-0.69375 0.375,0 0.7359375,0.2296875 0.8625,0.6328125 0.1125,0.375 0.1171875,0.88125 0.1171875,1.48593745 0,0.515625 0,1.03125 -0.089063,1.471875 C 8.6188594,1.2843313 8.1454219,1.4390188 7.8688594,1.4390188 Z m 0,0"
         style="fill:#0000ff;fill-opacity:1;fill-rule:nonzero;stroke:none" />
    </g>
    <path
       id="path24"
       d="M -19.39066,-18.22108 140.43387,-38.11603"
       style="fill:none;stroke:#000000;stroke-width:0.3985;stroke-linecap:butt;stroke-linejoin:miter;stroke-miterlimit:10;stroke-dasharray:2.98883, 2.98883;stroke-dashoffset:0;stroke-opacity:1"
       transform="matrix(1.3333333,0,0,-1.3333333,169.57733,310.004)" />
    <path
       id="path25"
       d="m 3.3284406,-3.0090094 c 0.060938,-0.2578125 0.2859375,-1.1765625 0.984375,-1.1765625 0.051562,0 0.290625,0 0.496875,0.13125 -0.2765625,0.051562 -0.478125,0.3 -0.478125,0.5390625 0,0.159375 0.1125,0.346875 0.3796875,0.346875 0.2203125,0 0.5390625,-0.178125 0.5390625,-0.5765625 0,-0.5203125 -0.5859375,-0.65625 -0.928125,-0.65625 -0.5765625,0 -0.9234375,0.525 -1.0453125,0.7546875 -0.2484375,-0.65625 -0.7875,-0.7546875 -1.0734375,-0.7546875 -1.0359375,0 -1.60312497,1.284375 -1.60312497,1.5328125 0,0.098438 0.0984375,0.098438 0.1171875,0.098438 0.0796875,0 0.1078125,-0.01875 0.13125,-0.1078125 0.33749997,-1.0546875 0.99374997,-1.3078125 1.33124997,-1.3078125 0.1921875,0 0.5390625,0.09375 0.5390625,0.6703125 0,0.309375 -0.16875,0.975 -0.5390625,2.371875 -0.159375,0.61406253 -0.50625,1.03593753 -0.9421875,1.03593753 -0.060938,0 -0.29062497,0 -0.50156247,-0.13125 0.2484375,-0.0515625 0.46874997,-0.2578125 0.46874997,-0.5390625 0,-0.26718753 -0.22031247,-0.34687503 -0.36562497,-0.34687503 -0.3,0 -0.5484375,0.25781253 -0.5484375,0.57656253 0,0.459375 0.496875,0.65625 0.93281247,0.65625 0.6609375,0 1.0171875,-0.69375 1.05,-0.7546875 0.1171875,0.365625 0.478125,0.7546875 1.0734375,0.7546875 1.0265625,0 1.59375,-1.28437503 1.59375,-1.53281253 0,-0.098437 -0.089062,-0.098437 -0.1171875,-0.098437 -0.09375,0 -0.1125,0.0375 -0.13125,0.1078125 -0.328125,1.06875003 -1.0078125,1.30781253 -1.3265625,1.30781253 -0.3890625,0 -0.5484375,-0.31875 -0.5484375,-0.6609375 0,-0.215625 0.060937,-0.43593753 0.1734375,-0.87656253 z m 0,0"
       style="fill:#000000;fill-opacity:1;fill-rule:nonzero;stroke:none"
       aria-label="x"
       transform="matrix(3.3333333,0,0,3.3333333,113.01067,341.448)" />
    <path
       id="path26"
       d="M 159.82454,-19.89494 140.43387,-38.11603"
       style="fill:none;stroke:#000000;stroke-width:0.3985;stroke-linecap:butt;stroke-linejoin:miter;stroke-miterlimit:10;stroke-dasharray:2.98883, 2.98883;stroke-dashoffset:0;stroke-opacity:1"
       transform="matrix(1.3333333,0,0,-1.3333333,169.57733,310.004)" />
    <path
       id="path27"
       d="m 4.8422375,-3.7969219 c 0.0375,-0.1359375 0.0375,-0.159375 0.0375,-0.2296875 0,-0.178125 -0.1359375,-0.2671875 -0.2859375,-0.2671875 -0.103125,0 -0.2625,0.060938 -0.3515625,0.2109375 -0.01875,0.046875 -0.098438,0.35625 -0.1359375,0.534375 -0.070312,0.2625 -0.140625,0.5296875 -0.2015625,0.796875 l -0.45,1.79531253 c -0.0375,0.15 -0.4640625,0.8484375 -1.125,0.8484375 -0.50625,0 -0.6140625,-0.440625 -0.6140625,-0.8109375 0,-0.45468753 0.16875,-1.07343753 0.50625,-1.95000003 C 2.3813,-3.2766094 2.4188,-3.3891094 2.4188,-3.5859844 c 0,-0.45 -0.31875,-0.815625 -0.815625,-0.815625 -0.946875,0 -1.3125,1.44375 -1.3125,1.5328125 0,0.098438 0.0984375,0.098438 0.1171875,0.098438 0.0984375,0 0.1125,-0.01875 0.159375,-0.178125 0.271875,-0.9375 0.6703125,-1.2375 1.0078125,-1.2375 0.079687,0 0.2484375,0 0.2484375,0.31875 0,0.253125 -0.098437,0.5109375 -0.16875,0.6984375 -0.3984375,1.0546875 -0.5765625,1.6265625 -0.5765625,2.090625 0,0.89062503 0.6234375,1.18593753 1.2140625,1.18593753 0.3890625,0 0.7265625,-0.16875 1.003125,-0.4453125 -0.1265625,0.515625 -0.2484375,1.003125 -0.646875,1.53281247 -0.2578125,0.3375 -0.6375,0.628125 -1.0921875,0.628125 -0.140625,0 -0.590625,-0.028125 -0.759375,-0.4171875 0.159375,0 0.290625,0 0.4265625,-0.121875 0.103125,-0.089063 0.2015625,-0.220313 0.2015625,-0.40781297 0,-0.309375 -0.2671875,-0.346875 -0.3703125,-0.346875 -0.2296875,0 -0.5578125,0.159375 -0.5578125,0.64687497 0,0.496875 0.440625,0.8671875 1.059375,0.8671875 1.021875,0 2.0484375,-0.909375 2.3296875,-2.03437497 z m 0,0"
       style="fill:#000000;fill-opacity:1;fill-rule:nonzero;stroke:none"
       aria-label="y"
       transform="matrix(3.3333333,0,0,3.3333333,373.93733,318.34)" />
    <path
       id="path28"
       d="m 143.4227,-16.80603 c 0,1.65071 -1.33814,2.98883 -2.98883,2.98883 -1.65071,0 -2.98883,-1.33812 -2.98883,-2.98883 0,-1.6507 1.33812,-2.98883 2.98883,-2.98883 1.65069,0 2.98883,1.33813 2.98883,2.98883 z"
       style="fill:#ffffff;fill-opacity:1;fill-rule:nonzero;stroke:none"
       transform="matrix(1.3333333,0,0,-1.3333333,169.57733,310.004)" />
    <path
       id="path29"
       d="M 140.43387,135.0272 V -38.11603"
       style="fill:none;stroke:#000000;stroke-width:0.3985;stroke-linecap:butt;stroke-linejoin:miter;stroke-miterlimit:10;stroke-dasharray:2.98883, 2.98883;stroke-dashoffset:0;stroke-opacity:1"
       transform="matrix(1.3333333,0,0,-1.3333333,169.57733,310.004)" />
    <path
       id="path30"
       d="M 0,173.14325 140.43387,135.0272"
       style="fill:none;stroke:#000000;stroke-width:0.3985;stroke-linecap:butt;stroke-linejoin:miter;stroke-miterlimit:10;stroke-dasharray:2.98883, 2.98883;stroke-dashoffset:0;stroke-opacity:1"
       transform="matrix(1.3333333,0,0,-1.3333333,169.57733,310.004)" />
    <path
       id="path31"
       d="m 1.3269844,-0.8255375 c 0.534375,-0.58125 0.825,-0.8296875 1.1859375,-1.1390625 0,-0.00938 0.6140625,-0.534375 0.975,-0.8953125 0.946875,-0.928125 1.1625,-1.40625 1.1625,-1.44375 0,-0.098438 -0.089063,-0.098438 -0.1078125,-0.098438 -0.070312,0 -0.098438,0.01875 -0.15,0.1078125 -0.3,0.478125 -0.50625,0.6375 -0.7453125,0.6375 -0.2390625,0 -0.3609375,-0.15 -0.5109375,-0.31875 -0.1875,-0.2296875 -0.35625,-0.4265625 -0.684375,-0.4265625 -0.75,0 -1.2046875,0.9234375 -1.2046875,1.134375 0,0.051563 0.028125,0.1078125 0.1171875,0.1078125 0.089063,0 0.1125,-0.046875 0.13125,-0.1078125 0.1875,-0.459375 0.7640625,-0.46875 0.84375,-0.46875 0.2109375,0 0.3984375,0.070312 0.628125,0.15 0.3984375,0.15 0.5109375,0.15 0.76875,0.15 -0.3609375,0.4265625 -1.1953125,1.14375 -1.3828125,1.303125 l -0.9,0.8390625 c -0.67500002,0.665625 -1.02656252,1.2328125 -1.02656252,1.303125 0,0.0984375 0.103125,0.0984375 0.12187499,0.0984375 0.0796875,0 0.0984375,-0.01875 0.15937501,-0.1265625 0.2296875,-0.3515625 0.52968752,-0.61875 0.84843752,-0.61875 0.225,0 0.328125,0.0890625 0.5765625,0.3796875 0.16875,0.20625 0.346875,0.365625 0.6375,0.365625 0.984375,0 1.5609375,-1.265625 1.5609375,-1.5328125 0,-0.051563 -0.0375,-0.098438 -0.1171875,-0.098438 -0.089062,0 -0.1078125,0.060938 -0.140625,0.1265625 C 3.8441719,-0.74585 3.2066719,-0.55835 2.8785469,-0.55835 c -0.196875,0 -0.3796875,-0.0609375 -0.5859375,-0.13125 -0.3375,-0.1265625 -0.4875,-0.16875 -0.6984375,-0.16875 -0.01875,0 -0.178125,0 -0.2671875,0.0328125 z m 0,0"
       style="fill:#000000;fill-opacity:1;fill-rule:nonzero;stroke:none"
       aria-label="z"
       transform="matrix(3.3333333,0,0,3.3333333,140.94,86.298667)" />
    <path
       id="path32"
       d="M 0,0 135.38121,130.37198"
       style="fill:none;stroke:#0000ff;stroke-width:0.79701;stroke-linecap:butt;stroke-linejoin:miter;stroke-miterlimit:10;stroke-dasharray:none;stroke-opacity:1"
       transform="matrix(1.3333333,0,0,-1.3333333,169.57733,310.004)" />
    <path
       id="path33"
       d="M 4.66248,0 C 3.28098,0.25902 1.0361,1.0361 -0.51805,1.94269 V -1.94269 C 1.0361,-1.0361 3.28098,-0.25902 4.66248,0"
       style="fill:#0000ff;fill-opacity:1;fill-rule:nonzero;stroke:none"
       transform="matrix(0.96038667,-0.92484,-0.92484,-0.96038667,350.08561,136.17472)" />
    <g
       id="g33"
       aria-label="⃗x"
       transform="matrix(3.3333333,0,0,3.3333333,297.45733,212.52267)">
      <path
         id="path34"
         d="m 5.3483469,-5.9247687 c -0.140625,0.1265625 -0.46875,0.4078125 -0.46875,0.5859375 0,0.098438 0.103125,0.196875 0.2015625,0.196875 0.089062,0 0.140625,-0.065625 0.1875,-0.1265625 0.121875,-0.15 0.3515625,-0.43125 0.7875,-0.646875 0.070312,-0.042187 0.16875,-0.089062 0.16875,-0.2109375 0,-0.098438 -0.070312,-0.15 -0.140625,-0.196875 -0.215625,-0.15 -0.328125,-0.3328125 -0.4078125,-0.571875 -0.01875,-0.089062 -0.05625,-0.215625 -0.196875,-0.215625 -0.140625,0 -0.2015625,0.1265625 -0.2015625,0.20625 0,0.051563 0.079687,0.3703125 0.2390625,0.58125 h -3.35625 c -0.16875,0 -0.346875,0 -0.346875,0.196875 0,0.2015625 0.178125,0.2015625 0.346875,0.2015625 z m 0,0"
         style="fill:#0000ff;fill-opacity:1;fill-rule:nonzero;stroke:none" />
      <path
         id="path35"
         d="m 3.4874094,-2.3388312 c 0.3,-0.3796875 0.675,-0.8671875 0.9140625,-1.1296875 0.309375,-0.35625 0.7171875,-0.50625 1.1859375,-0.515625 v -0.309375 c -0.2578125,0.01875 -0.5578125,0.028125 -0.815625,0.028125 -0.3,0 -0.825,-0.01875 -0.95625,-0.028125 v 0.309375 c 0.2109375,0.01875 0.290625,0.15 0.290625,0.309375 0,0.159375 -0.103125,0.2859375 -0.15,0.346875 l -0.61875,0.778125 -0.778125,-1.0078125 c -0.089063,-0.098438 -0.089063,-0.1171875 -0.089063,-0.178125 0,-0.15 0.15,-0.2390625 0.3515625,-0.2484375 v -0.309375 c -0.2625,0.00937 -0.91875,0.028125 -1.078125,0.028125 -0.2109375,0 -0.675,-0.00938 -0.94687503,-0.028125 v 0.309375 c 0.69843753,0 0.70781253,0.00938 1.17656253,0.609375 l 0.984375,1.284375 -0.9328125,1.18593745 c -0.478125,0.5765625 -1.06875003,0.5953125 -1.27500003,0.5953125 v 0.309375 c 0.25781253,-0.01875 0.56718753,-0.028125 0.82500003,-0.028125 0.290625,0 0.7078125,0.01875 0.946875,0.028125 v -0.309375 c -0.2203125,-0.028125 -0.290625,-0.159375 -0.290625,-0.309375 0,-0.2203125 0.290625,-0.54843745 0.8953125,-1.26562495 l 0.759375,0.99843745 c 0.079687,0.1078125 0.2109375,0.2671875 0.2109375,0.328125 0,0.0890625 -0.09375,0.2390625 -0.3609375,0.2484375 v 0.309375 c 0.3,-0.009375 0.8578125,-0.028125 1.078125,-0.028125 0.2671875,0 0.65625,0.009375 0.95625,0.028125 v -0.309375 c -0.5390625,0 -0.7171875,-0.01875 -0.946875,-0.309375 z m 0,0"
         style="fill:#0000ff;fill-opacity:1;fill-rule:nonzero;stroke:none" />
    </g>
    <path
       id="path36"
       d="m 62.05812,55.72496 c 0,2.20094 -1.78416,3.98511 -3.98511,3.98511 -2.20094,0 -3.98511,-1.78417 -3.98511,-3.98511 0,-2.20094 1.78417,-3.98511 3.98511,-3.98511 2.20095,0 3.98511,1.78417 3.98511,3.98511 z"
       style="fill:#ffffff;fill-opacity:1;fill-rule:nonzero;stroke:none"
       transform="matrix(1.3333333,0,0,-1.3333333,169.57733,310.004)" />
    <path
       id="path37"
       d="m 62.05812,-28.18315 c 0,2.20094 -1.78416,3.98511 -3.98511,3.98511 -2.20094,0 -3.98511,-1.78417 -3.98511,-3.98511 0,-2.20095 1.78417,-3.98511 3.98511,-3.98511 2.20095,0 3.98511,1.78416 3.98511,3.98511 z"
       style="fill:#ffffff;fill-opacity:1;fill-rule:nonzero;stroke:none"
       transform="matrix(1.3333333,0,0,-1.3333333,169.57733,310.004)" />
    <path
       id="path38"
       d="m 61.06184,-6.87314 c 0,1.65071 -1.33813,2.98883 -2.98883,2.98883 -1.65071,0 -2.98883,-1.33812 -2.98883,-2.98883 0,-1.65071 1.33812,-2.98883 2.98883,-2.98883 1.6507,0 2.98883,1.33812 2.98883,2.98883 z"
       style="fill:#ffffff;fill-opacity:1;fill-rule:nonzero;stroke:none"
       transform="matrix(1.3333333,0,0,-1.3333333,169.57733,310.004)" />
    <path
       id="path39"
       d="M 58.07301,95.68068 V -58.81602"
       style="fill:none;stroke:#000000;stroke-width:0.3985;stroke-linecap:butt;stroke-linejoin:miter;stroke-miterlimit:10;stroke-dasharray:2.98883, 2.98883;stroke-dashoffset:0;stroke-opacity:1"
       transform="matrix(1.3333333,0,0,-1.3333333,169.57733,310.004)" />
    <path
       id="path40"
       d="m 58.07301,95.68068 78.15413,37.33687"
       style="fill:none;stroke:#ff0000;stroke-width:0.79701;stroke-linecap:butt;stroke-linejoin:miter;stroke-miterlimit:10;stroke-dasharray:none;stroke-opacity:1"
       transform="matrix(1.3333333,0,0,-1.3333333,169.57733,310.004)" />
    <path
       id="path41"
       d="M 4.66248,0 C 3.28098,0.25902 1.0361,1.0361 -0.51805,1.94269 V -1.94269 C 1.0361,-1.0361 3.28098,-0.25902 4.66248,0"
       style="fill:#ff0000;fill-opacity:1;fill-rule:nonzero;stroke:none"
       transform="matrix(1.203,-0.57470667,-0.57470667,-1.203,351.21351,132.64729)" />
    <g
       id="g41"
       aria-label="⃗r"
       transform="matrix(3.3333333,0,0,3.3333333,280.07467,149.05067)">
      <path
         id="path42"
         d="m 5.3483031,-5.9249656 c -0.140625,0.1265625 -0.46875,0.4078125 -0.46875,0.5859375 0,0.098438 0.103125,0.196875 0.2015625,0.196875 0.089062,0 0.140625,-0.065625 0.1875,-0.1265625 0.121875,-0.15 0.3515625,-0.43125 0.7875,-0.646875 0.070312,-0.042187 0.16875,-0.089062 0.16875,-0.2109375 0,-0.098438 -0.070312,-0.15 -0.140625,-0.196875 -0.215625,-0.15 -0.328125,-0.3328125 -0.4078125,-0.571875 -0.01875,-0.089063 -0.05625,-0.215625 -0.196875,-0.215625 -0.140625,0 -0.2015625,0.1265625 -0.2015625,0.20625 0,0.051563 0.079688,0.3703125 0.2390625,0.58125 h -3.35625 c -0.16875,0 -0.346875,0 -0.346875,0.196875 0,0.2015625 0.178125,0.2015625 0.346875,0.2015625 z m 0,0"
         style="fill:#ff0000;fill-opacity:1;fill-rule:nonzero;stroke:none" />
      <path
         id="path43"
         d="m 2.9705688,-3.3093406 v -1.0921875 l -1.3828125,0.1078125 v 0.309375 c 0.69375,0 0.7734375,0.070312 0.7734375,0.5578125 v 2.66718748 c 0,0.45 -0.1078125,0.45 -0.7734375,0.45 V 3.4375e-5 c 0.384375,-0.009374995 0.853125,-0.028124995 1.134375,-0.028124995 0.3984375,0 0.8671875,0 1.265625,0.028124995 V -0.30934062 H 3.7768188 c -0.7359375,0 -0.7546875,-0.1078125 -0.7546875,-0.46875 V -2.3109031 c 0,-0.984375 0.4171875,-1.875 1.171875,-1.875 0.070312,0 0.089062,0 0.1125,0.014062 -0.032812,0.00938 -0.2296875,0.1265625 -0.2296875,0.384375 0,0.28125 0.20625,0.43125 0.4265625,0.43125 0.178125,0 0.43125,-0.121875 0.43125,-0.440625 0,-0.31875 -0.309375,-0.6046875 -0.740625,-0.6046875 -0.7265625,0 -1.0828125,0.665625 -1.2234375,1.092188 z m 0,0"
         style="fill:#ff0000;fill-opacity:1;fill-rule:nonzero;stroke:none" />
    </g>
    <path
       id="path44"
       d="m 61.06184,95.68068 c 0,1.65071 -1.33813,2.98883 -2.98883,2.98883 -1.65071,0 -2.98883,-1.33812 -2.98883,-2.98883 0,-1.65071 1.33812,-2.98883 2.98883,-2.98883 1.6507,0 2.98883,1.33812 2.98883,2.98883 z"
       style="fill:#000000;fill-opacity:1;fill-rule:nonzero;stroke:none"
       transform="matrix(1.3333333,0,0,-1.3333333,169.57733,310.004)" />
    <path
       id="path45"
       d="m 4.5050875,-4.2934937 c 0,-0.0375 -0.032813,-0.098438 -0.103125,-0.098438 -0.1078125,0 -0.50625,0.3984375 -0.675,0.684375 -0.2203125,-0.534375 -0.609375,-0.69375 -0.928125,-0.69375 -1.1765625,0 -2.4,1.471875 -2.4,2.915625 0,0.97968745 0.5859375,1.59374995 1.3171875,1.59374995 0.4265625,0 0.815625,-0.2390625 1.171875,-0.5953125 -0.089063,0.346875 -0.4171875,1.69218755 -0.4453125,1.78125005 -0.079688,0.28125 -0.159375,0.31875 -0.7171875,0.328125 -0.13125,0 -0.2296875,0 -0.2296875,0.2015625 0,0.00937 0,0.1078125 0.1265625,0.1078125 0.31875,0 0.6703125,-0.028125 0.9984375,-0.028125 0.3375,0 0.6984375,0.028125 1.0265625,0.028125 0.046875,0 0.178125,0 0.178125,-0.196875 0,-0.1125 -0.098438,-0.1125 -0.2578125,-0.1125 -0.478125,0 -0.478125,-0.065625 -0.478125,-0.159375 0,-0.065625 0.01875,-0.1265625 0.0375,-0.215625 z M 1.74415,-0.10755625 c -0.6,0 -0.6375,-0.76875 -0.6375,-0.93749995 0,-0.478125 0.290625,-1.565625 0.459375,-1.9828125 0.309375,-0.7359375 0.825,-1.1578125 1.2328125,-1.1578125 0.646875,0 0.7875,0.8109375 0.7875,0.8765625 0,0.060938 -0.5484375,2.2453125 -0.5765625,2.2828125 -0.15,0.28124995 -0.7078125,0.91874995 -1.265625,0.91874995 z m 0,0"
       style="fill:#000000;fill-opacity:1;fill-rule:nonzero;stroke:none"
       aria-label="q"
       transform="matrix(3.3333333,0,0,3.3333333,238.99867,164.24133)" />
    <path
       id="path46"
       d="m 140.43387,135.0272 28.73709,13.72907"
       style="fill:none;stroke:#ff0000;stroke-width:0.79701;stroke-linecap:butt;stroke-linejoin:miter;stroke-miterlimit:10;stroke-dasharray:none;stroke-opacity:1"
       transform="matrix(1.3333333,0,0,-1.3333333,169.57733,310.004)" />
    <path
       id="path47"
       d="M 4.66248,0 C 3.28098,0.25902 1.0361,1.0361 -0.51805,1.94269 V -1.94269 C 1.0361,-1.0361 3.28098,-0.25902 4.66248,0"
       style="fill:#ff0000;fill-opacity:1;fill-rule:nonzero;stroke:none"
       transform="matrix(1.203,-0.57470667,-0.57470667,-1.203,395.13859,111.66232)" />
    <g
       id="g47"
       aria-label="ˆr"
       transform="matrix(3.3333333,0,0,3.3333333,367.93267,109.18)">
      <path
         id="path48"
         d="m 2.4893406,-6.9141562 -1.33125,1.3546875 0.178125,0.178125 1.153125,-1.0125 1.1484375,1.0125 0.178125,-0.178125 z m 0,0"
         style="fill:#ff0000;fill-opacity:1;fill-rule:nonzero;stroke:none" />
      <path
         id="path49"
         d="m 0.4280125,-0.58603125 c -0.028125,0.1453125 -0.0890625,0.375 -0.0890625,0.4265625 0,0.178125 0.140625,0.2671875 0.290625,0.2671875 0.1171875,0 0.2953125,-0.0796875 0.365625,-0.2765625 0.01875,-0.0421875 0.3609375,-1.39687495 0.3984375,-1.57499995 0.079687,-0.328125 0.2578125,-1.0265625 0.31875,-1.29375 0.042188,-0.13125 0.31875,-0.6 0.5578125,-0.815625 0.079687,-0.070312 0.3703125,-0.3328125 0.796875,-0.3328125 0.2578125,0 0.4078125,0.121875 0.4171875,0.121875 -0.2953125,0.051563 -0.515625,0.290625 -0.515625,0.5484375 0,0.159375 0.1078125,0.346875 0.3796875,0.346875 0.2671875,0 0.5484375,-0.2296875 0.5484375,-0.5859375 0,-0.3515625 -0.31875,-0.646875 -0.8296875,-0.646875 -0.646875,0 -1.0828125,0.4875 -1.275,0.7640625 -0.079688,-0.4453125 -0.4359375,-0.7640625 -0.9046875,-0.7640625 -0.459375,0 -0.646875,0.3890625 -0.7359375,0.5671875 -0.1828125,0.3375 -0.309375,0.9375 -0.309375,0.965625 0,0.098438 0.0984375,0.098438 0.1171875,0.098438 0.0984375,0 0.1125,-0.00937 0.16875,-0.2296875 0.16875,-0.7078125 0.3703125,-1.1859375 0.7265625,-1.1859375 0.1734375,0 0.309375,0.079688 0.309375,0.459375 0,0.2109375 -0.028125,0.31875 -0.159375,0.8390625 z m 0,0"
         style="fill:#ff0000;fill-opacity:1;fill-rule:nonzero;stroke:none" />
    </g>
  </g>
</svg>
