<?xml version="1.0" encoding="UTF-8" standalone="no"?>
<!-- Created with Inkscape (http://www.inkscape.org/) -->

<svg
   version="1.1"
   id="svg1"
   width="422.564"
   height="398.51999"
   viewBox="0 0 422.564 398.51999"
   xmlns="http://www.w3.org/2000/svg"
   xmlns:svg="http://www.w3.org/2000/svg">
  <defs
     id="defs1" />
  <g
     id="g1">
    <path
       id="path1"
       d="M 0,0 -64.4698,-60.58116"
       style="fill:none;stroke:#000000;stroke-width:0.79701;stroke-linecap:butt;stroke-linejoin:miter;stroke-miterlimit:10;stroke-dasharray:none;stroke-opacity:1"
       transform="matrix(1.3333333,0,0,-1.3333333,149.992,296.44533)" />
    <path
       id="path2"
       d="M 4.66248,0 C 3.28098,0.25902 1.0361,1.0361 -0.51805,1.94269 V -1.94269 C 1.0361,-1.0361 3.28098,-0.25902 4.66248,0"
       style="fill:#000000;fill-opacity:1;fill-rule:nonzero;stroke:none"
       transform="matrix(-0.9716,0.913,0.913,0.9716,64.032267,377.22021)" />
    <path
       id="path3"
       d="m 2.8247734,-6.221625 c 0,-0.1992188 -0.1289062,-0.3632813 -0.3632812,-0.3632813 -0.2695313,0 -0.5390625,0.2578125 -0.5390625,0.5273438 0,0.1875 0.140625,0.3632812 0.375,0.3632812 0.234375,0 0.5273437,-0.234375 0.5273437,-0.5273437 z m -0.75,3.7382812 c 0.1171875,-0.28125 0.1171875,-0.3046875 0.2226563,-0.5742187 0.070312,-0.1992188 0.1289062,-0.3398438 0.1289062,-0.5273438 0,-0.4453125 -0.328125,-0.8203125 -0.8203125,-0.8203125 -0.93749996,0 -1.31249996,1.453125 -1.31249996,1.5351563 0,0.1054687 0.09375,0.1054687 0.1171875,0.1054687 0.09375,0 0.10546875,-0.023437 0.15234375,-0.1875 0.26953125,-0.9375 0.66796871,-1.2304687 1.00781251,-1.2304687 0.082031,0 0.2578125,0 0.2578125,0.3164062 0,0.2109375 -0.070312,0.421875 -0.1171875,0.515625 -0.082031,0.2578125 -0.5273438,1.4179688 -0.6796875,1.8515625 -0.10546876,0.2578125 -0.23437501,0.58593755 -0.23437501,0.79687505 0,0.46875 0.33984371,0.80859375 0.82031251,0.80859375 0.9375,0 1.3007812,-1.4414063 1.3007812,-1.5351563 0,-0.09375 -0.09375,-0.09375 -0.1171875,-0.09375 -0.1054687,0 -0.1054687,0.023437 -0.1523437,0.1757813 -0.1757813,0.6328125 -0.5039063,1.2421875 -1.0195313,1.2421875 -0.1640625,0 -0.234375,-0.10546875 -0.234375,-0.328125 0,-0.2578125 0.058594,-0.3984375 0.2929688,-0.9960938 z m 0,0"
       style="fill:#000000;fill-opacity:1;fill-rule:nonzero;stroke:none"
       aria-label="i"
       transform="matrix(1.3333333,0,0,1.3333333,52.690667,390.108)" />
    <path
       id="path4"
       d="M 0,0 181.83534,-22.63493"
       style="fill:none;stroke:#000000;stroke-width:0.79701;stroke-linecap:butt;stroke-linejoin:miter;stroke-miterlimit:10;stroke-dasharray:none;stroke-opacity:1"
       transform="matrix(1.3333333,0,0,-1.3333333,149.992,296.44533)" />
    <path
       id="path5"
       d="M 4.66248,0 C 3.28098,0.25902 1.0361,1.0361 -0.51805,1.94269 V -1.94269 C 1.0361,-1.0361 3.28098,-0.25902 4.66248,0"
       style="fill:#000000;fill-opacity:1;fill-rule:nonzero;stroke:none"
       transform="matrix(1.32308,0.16466667,0.16466667,-1.32308,392.43911,326.62524)" />
    <path
       id="path6"
       d="m 3.949625,-6.2231484 c 0,-0.1875 -0.1289063,-0.3632813 -0.375,-0.3632813 -0.2226563,0 -0.5273438,0.234375 -0.5273438,0.5273438 0,0.1992187 0.140625,0.3632812 0.375,0.3632812 0.2695313,0 0.5273438,-0.2578125 0.5273438,-0.5273437 z M 1.9574375,0.50341406 C 1.7582187,1.2534141 1.2894687,1.8276328 0.72696875,1.8276328 c -0.0585938,0 -0.2109375,0 -0.38671875,-0.09375 0.29296875,-0.070312 0.4453125,-0.328125 0.4453125,-0.5273437 0,-0.1640625 -0.10546875,-0.35156254 -0.375,-0.35156254 -0.24609375,0 -0.5390625,0.21093754 -0.5390625,0.57421874 0,0.3984375 0.3984375,0.609375 0.87890625,0.609375 0.69140625,0 1.61718745,-0.5273437 1.87499995,-1.51171874 L 3.5394687,-3.1176797 c 0.046875,-0.1992187 0.046875,-0.3398437 0.046875,-0.375 0,-0.5625 -0.421875,-0.9140625 -0.9140625,-0.9140625 -1.0195312,0 -1.5820312,1.453125 -1.5820312,1.5351563 0,0.1054687 0.09375,0.1054687 0.1171875,0.1054687 0.09375,0 0.09375,-0.011719 0.1757812,-0.1992187 0.2460938,-0.609375 0.7148438,-1.21875 1.2539063,-1.21875 0.140625,0 0.3164062,0.035156 0.3164062,0.4570312 0,0.234375 -0.023437,0.3398438 -0.058594,0.5039063 z m 0,0"
       style="fill:#000000;fill-opacity:1;fill-rule:nonzero;stroke:none"
       aria-label="j"
       transform="matrix(1.3333333,0,0,1.3333333,407.92133,332.028)" />
    <path
       id="path7"
       d="M 0,0 V 197.78209"
       style="fill:none;stroke:#000000;stroke-width:0.79701;stroke-linecap:butt;stroke-linejoin:miter;stroke-miterlimit:10;stroke-dasharray:none;stroke-opacity:1"
       transform="matrix(1.3333333,0,0,-1.3333333,149.992,296.44533)" />
    <path
       id="path8"
       d="M 4.66248,0 C 3.28098,0.25902 1.0361,1.0361 -0.51805,1.94269 V -1.94269 C 1.0361,-1.0361 3.28098,-0.25902 4.66248,0"
       style="fill:#000000;fill-opacity:1;fill-rule:nonzero;stroke:none"
       transform="matrix(0,-1.3333333,-1.3333333,0,149.992,32.73588)" />
    <path
       id="path9"
       d="m 2.8585391,-6.8090547 c 0,0 0,-0.1054687 -0.1289063,-0.1054687 -0.234375,0 -0.9609375,0.082031 -1.21875,0.1054687 -0.082031,0 -0.1875,0.011719 -0.1875,0.1992188 0,0.1171875 0.09375,0.1171875 0.234375,0.1171875 0.4804688,0 0.5039063,0.070312 0.5039063,0.1640625 l -0.035156,0.1992187 -1.44140624,5.74218751 c -0.0351563,0.140625 -0.0351563,0.15234375 -0.0351563,0.22265625 0,0.22265625 0.19921875,0.26953125 0.28125,0.26953125 0.12890625,0 0.28124994,-0.08203125 0.33984374,-0.2109375 0.058594,-0.0820312 0.5039062,-1.92187501 0.5625,-2.17968751 0.3398438,0.035156 1.1601563,0.1875 1.1601563,0.8554688 0,0.070312 0,0.1054687 -0.035156,0.1992187 -0.023437,0.1289063 -0.035156,0.24609376 -0.035156,0.35156251 0,0.5859375 0.3984375,0.984375 0.9140625,0.984375 0.2929687,0 0.5624999,-0.15234375 0.7851562,-0.52734375 0.2460937,-0.43359375 0.3632812,-0.98437496 0.3632812,-1.00781246 0,-0.09375 -0.09375,-0.09375 -0.1289062,-0.09375 -0.09375,0 -0.1054688,0.035156 -0.140625,0.1757812 -0.1992188,0.72656251 -0.421875,1.24218751 -0.8671875,1.24218751 -0.1875,0 -0.3164063,-0.1171875 -0.3164063,-0.46875 0,-0.17578125 0.046875,-0.3984375 0.082031,-0.56250001 0.035156,-0.1640625 0.035156,-0.2109375 0.035156,-0.3046875 0,-0.65625 -0.6210937,-0.9375 -1.4648437,-1.0546875 0.3046875,-0.1757812 0.6210937,-0.4921875 0.8554687,-0.7265625 0.4804688,-0.5273437 0.9375,-0.9609375 1.4179687,-0.9609375 0.058594,0 0.070312,0 0.09375,0.011719 0.1171875,0.023437 0.1289063,0.023437 0.2109375,0.082031 0.023437,0 0.023437,0.011719 0.035156,0.035156 -0.4804687,0.035156 -0.5625,0.421875 -0.5625,0.5390625 0,0.1640625 0.1054688,0.3515625 0.375,0.3515625 0.2578125,0 0.5507813,-0.2226563 0.5507813,-0.609375 0,-0.3046875 -0.234375,-0.6328125 -0.6796875,-0.6328125 -0.28125,0 -0.7382813,0.082031 -1.453125,0.8789062 -0.3398438,0.375 -0.7265625,0.7734375 -1.1015625,0.9257813 z m 0,0"
       style="fill:#000000;fill-opacity:1;fill-rule:nonzero;stroke:none"
       aria-label="k"
       transform="matrix(1.3333333,0,0,1.3333333,146.32533,17.637333)" />
    <path
       id="path10"
       d="M -48.47667,-45.55272 58.07301,-58.81602"
       style="fill:none;stroke:#000000;stroke-width:0.3985;stroke-linecap:butt;stroke-linejoin:miter;stroke-miterlimit:10;stroke-dasharray:2.98883, 2.98883;stroke-dashoffset:0;stroke-opacity:1"
       transform="matrix(1.3333333,0,0,-1.3333333,149.992,296.44533)" />
    <g
       id="g10"
       aria-label="x&#10;0"
       transform="matrix(1.3333333,0,0,1.3333333,67.113333,350.496)">
      <path
         id="path11"
         d="m 3.3280859,-3.0116484 c 0.058594,-0.2578125 0.2929688,-1.171875 0.984375,-1.171875 0.046875,0 0.2929688,0 0.5039063,0.1289062 -0.28125,0.046875 -0.4804688,0.3046875 -0.4804688,0.5390625 0,0.1640625 0.1054688,0.3515625 0.375,0.3515625 0.2226563,0 0.5390625,-0.1875 0.5390625,-0.5859375 0,-0.515625 -0.5859375,-0.65625 -0.9257812,-0.65625 -0.5742188,0 -0.9257813,0.5273438 -1.0429688,0.7617188 -0.2578125,-0.65625 -0.7851562,-0.7617188 -1.078125,-0.7617188 -1.0429687,0 -1.60546871,1.2890625 -1.60546871,1.5351563 0,0.1054687 0.10546875,0.1054687 0.1171875,0.1054687 0.0820313,0 0.1171875,-0.023437 0.12890625,-0.1171875 0.33984376,-1.0546875 0.99609376,-1.3007812 1.33593746,-1.3007812 0.1875,0 0.5390625,0.09375 0.5390625,0.6679687 0,0.3046875 -0.1640625,0.9726563 -0.5390625,2.3671875 -0.1523437,0.62109376 -0.5039062,1.04296876 -0.9492187,1.04296876 -0.058594,0 -0.28125001,0 -0.49218751,-0.12890625 0.24609375,-0.0585937 0.46875001,-0.26953125 0.46875001,-0.5390625 0,-0.26953121 -0.22265626,-0.35156251 -0.37500001,-0.35156251 -0.29296875,0 -0.5390625,0.25781251 -0.5390625,0.57421876 0,0.45703125 0.4921875,0.65625 0.93750001,0.65625 0.65625,0 1.0078125,-0.69140625 1.0429687,-0.75 0.1171875,0.36328125 0.4804688,0.75 1.078125,0.75 1.0195313,0 1.59375,-1.27734376 1.59375,-1.53515626 0,-0.09375 -0.09375,-0.09375 -0.1289062,-0.09375 -0.082031,0 -0.1054688,0.035156 -0.1289063,0.1054688 -0.328125,1.06640621 -0.9960937,1.31249996 -1.3242187,1.31249996 -0.3867188,0 -0.5390625,-0.328125 -0.5390625,-0.65625 0,-0.22265625 0.058594,-0.44531246 0.1640625,-0.87890626 z m 0,0"
         style="fill:#000000;fill-opacity:1;fill-rule:nonzero;stroke:none" />
      <path
         id="path12"
         d="m 9.2929297,-0.73235156 c 0,-0.76171874 -0.09375,-1.31250004 -0.4101563,-1.80468754 -0.2226562,-0.3164062 -0.6445312,-0.5976562 -1.2070312,-0.5976562 -1.6171875,0 -1.6171875,1.8984375 -1.6171875,2.40234374 0,0.50390625 0,2.36718746 1.6171875,2.36718746 1.6171875,0 1.6171875,-1.86328121 1.6171875,-2.36718746 z M 7.6757422,1.4356172 c -0.3164063,0 -0.75,-0.1875 -0.890625,-0.76171876 -0.09375,-0.41015625 -0.09375,-0.984375 -0.09375,-1.5 0,-0.50390624 0,-1.03125004 0.1054687,-1.41796874 0.1523438,-0.5507813 0.5976563,-0.6914063 0.8789063,-0.6914063 0.375,0 0.7382812,0.2226563 0.8671875,0.6328125 0.1054687,0.375 0.1171875,0.8789063 0.1171875,1.47656254 0,0.515625 0,1.04296875 -0.09375,1.4765625 C 8.4257422,1.2832734 7.9569922,1.4356172 7.6757422,1.4356172 Z m 0,0"
         style="fill:#000000;fill-opacity:1;fill-rule:nonzero;stroke:none" />
    </g>
    <path
       id="path13"
       d="M 106.54968,-13.26329 58.07301,-58.81602"
       style="fill:none;stroke:#000000;stroke-width:0.3985;stroke-linecap:butt;stroke-linejoin:miter;stroke-miterlimit:10;stroke-dasharray:2.98883, 2.98883;stroke-dashoffset:0;stroke-opacity:1"
       transform="matrix(1.3333333,0,0,-1.3333333,149.992,296.44533)" />
    <g
       id="g13"
       aria-label="y&#10;0"
       transform="matrix(1.3333333,0,0,1.3333333,285.82133,306.85333)">
      <path
         id="path14"
         d="m 4.8390781,-3.7982031 c 0.046875,-0.140625 0.046875,-0.1523438 0.046875,-0.2226563 0,-0.1875 -0.140625,-0.2695312 -0.2929687,-0.2695312 -0.1054688,0 -0.2578125,0.058594 -0.3515625,0.1992187 -0.023437,0.058594 -0.09375,0.3632813 -0.140625,0.5390625 -0.070312,0.2578125 -0.140625,0.5273438 -0.1992188,0.796875 l -0.4453125,1.79296877 c -0.035156,0.15234375 -0.46875,0.85546875 -1.125,0.85546875 -0.5039062,0 -0.6210937,-0.4453125 -0.6210937,-0.80859375 0,-0.45703127 0.1757812,-1.07812497 0.515625,-1.95703127 0.1523437,-0.4101562 0.1992187,-0.515625 0.1992187,-0.7148437 0,-0.4453125 -0.328125,-0.8203125 -0.8203125,-0.8203125 -0.94921872,0 -1.31249997,1.453125 -1.31249997,1.5351562 0,0.1054688 0.09375,0.1054688 0.1171875,0.1054688 0.09375,0 0.10546875,-0.023437 0.15234375,-0.1875 0.26953125,-0.9375 0.66796872,-1.2304688 1.00781252,-1.2304688 0.082031,0 0.2578125,0 0.2578125,0.3164063 0,0.2460937 -0.1054688,0.515625 -0.1757813,0.703125 -0.3984375,1.0546875 -0.5742187,1.6171875 -0.5742187,2.0859375 0,0.89062497 0.6210937,1.18359372 1.21875,1.18359372 0.3867187,0 0.7265625,-0.1640625 0.9960937,-0.4453125 -0.1289062,0.515625 -0.2460937,1.0078125 -0.6445312,1.53515628 -0.2578125,0.3398437 -0.6328125,0.6328125 -1.0898438,0.6328125 -0.140625,0 -0.59765622,-0.035156 -0.76171872,-0.421875 0.1640625,0 0.29296872,0 0.43359372,-0.1171875 0.09375,-0.09375 0.1992188,-0.2226563 0.1992188,-0.41015628 0,-0.31640625 -0.2695313,-0.3515625 -0.375,-0.3515625 -0.22265627,0 -0.55078127,0.1640625 -0.55078127,0.64453128 0,0.5039062 0.43359375,0.8671875 1.05468747,0.8671875 1.0195313,0 2.0507813,-0.9023438 2.3320313,-2.02734378 z m 0,0"
         style="fill:#000000;fill-opacity:1;fill-rule:nonzero;stroke:none" />
      <path
         id="path15"
         d="m 8.4806797,-0.73375 c 0,-0.7617188 -0.09375,-1.3125 -0.4101563,-1.8046875 -0.2226562,-0.3164063 -0.6445312,-0.5976563 -1.2070312,-0.5976563 -1.6171875,0 -1.6171875,1.8984375 -1.6171875,2.4023438 0,0.50390625 0,2.3671875 1.6171875,2.3671875 1.6171875,0 1.6171875,-1.86328125 1.6171875,-2.3671875 z M 6.8634922,1.4342187 c -0.3164063,0 -0.75,-0.1875 -0.890625,-0.7617187 -0.09375,-0.41015625 -0.09375,-0.984375 -0.09375,-1.5 0,-0.5039063 0,-1.03125 0.1054687,-1.4179688 0.1523438,-0.5507812 0.5976563,-0.6914062 0.8789063,-0.6914062 0.375,0 0.7382812,0.2226562 0.8671875,0.6328125 0.1054687,0.375 0.1171875,0.8789062 0.1171875,1.4765625 0,0.515625 0,1.04296875 -0.09375,1.4765625 -0.140625,0.6328125 -0.609375,0.7851562 -0.890625,0.7851562 z m 0,0"
         style="fill:#000000;fill-opacity:1;fill-rule:nonzero;stroke:none" />
    </g>
    <path
       id="path16"
       d="M 0,154.4967 58.07301,95.68068"
       style="fill:none;stroke:#000000;stroke-width:0.3985;stroke-linecap:butt;stroke-linejoin:miter;stroke-miterlimit:10;stroke-dasharray:2.98883, 2.98883;stroke-dashoffset:0;stroke-opacity:1"
       transform="matrix(1.3333333,0,0,-1.3333333,149.992,296.44533)" />
    <g
       id="g16"
       aria-label="z&#10;0"
       transform="matrix(1.3333333,0,0,1.3333333,133.16267,92.314667)">
      <path
         id="path17"
         d="M 1.3252656,-0.83072656 C 1.8643281,-1.4049453 2.1572969,-1.6510391 2.5088594,-1.9557266 c 0,-0.011719 0.6210937,-0.5390625 0.984375,-0.9023437 0.9375,-0.9257813 1.1601562,-1.40625 1.1601562,-1.4414063 0,-0.1054687 -0.09375,-0.1054687 -0.1054687,-0.1054687 -0.070312,0 -0.1054688,0.023437 -0.1523438,0.1171875 -0.3046875,0.46875 -0.5039062,0.6328125 -0.75,0.6328125 -0.234375,0 -0.3515625,-0.1523438 -0.5039062,-0.3164063 -0.1875,-0.234375 -0.3632813,-0.4335937 -0.6914063,-0.4335937 -0.75,0 -1.2070312,0.9257812 -1.2070312,1.1367187 0,0.046875 0.035156,0.1171875 0.1171875,0.1171875 0.09375,0 0.1171875,-0.058594 0.140625,-0.1171875 0.1875,-0.4570312 0.7617187,-0.46875 0.84375,-0.46875 0.2109375,0 0.3984375,0.070312 0.6210937,0.1523438 0.3984375,0.1523437 0.515625,0.1523437 0.7734375,0.1523437 -0.3632812,0.421875 -1.1953125,1.1367188 -1.3828125,1.3007813 l -0.9023437,0.8320312 c -0.67968753,0.66796879 -1.01953128,1.24218754 -1.01953128,1.31250004 0,0.09375 0.09375,0.09375 0.1171875,0.09375 0.0820313,0 0.09375,-0.01171875 0.15234375,-0.12890625 0.234375,-0.33984375 0.52734373,-0.609375 0.85546873,-0.609375 0.2226563,0 0.328125,0.0820313 0.5742188,0.375 0.1640625,0.2109375 0.3515625,0.36328125 0.6328125,0.36328125 0.984375,0 1.5703125,-1.26562504 1.5703125,-1.53515624 0,-0.046875 -0.046875,-0.09375 -0.1171875,-0.09375 -0.09375,0 -0.1171875,0.058594 -0.140625,0.1289062 -0.234375,0.64453129 -0.8671875,0.83203129 -1.1953125,0.83203129 -0.1992188,0 -0.3867188,-0.0585938 -0.5859375,-0.12890625 -0.3398438,-0.12890625 -0.4921875,-0.1640625 -0.703125,-0.1640625 -0.023437,0 -0.1757813,0 -0.2695313,0.0234375 z m 0,0"
         style="fill:#000000;fill-opacity:1;fill-rule:nonzero;stroke:none" />
      <path
         id="path18"
         d="m 8.2305391,-0.73111719 c 0,-0.76171871 -0.09375,-1.31250001 -0.4101563,-1.80468751 -0.2226562,-0.3164062 -0.6445312,-0.5976562 -1.2070312,-0.5976562 -1.6171875,0 -1.6171875,1.8984375 -1.6171875,2.40234371 0,0.50390625 0,2.36718749 1.6171875,2.36718749 1.6171875,0 1.6171875,-1.86328124 1.6171875,-2.36718749 z M 6.6133516,1.4368516 c -0.3164063,0 -0.75,-0.1875 -0.890625,-0.76171879 -0.09375,-0.41015625 -0.09375,-0.984375 -0.09375,-1.5 0,-0.50390621 0,-1.03125001 0.1054687,-1.41796871 0.1523438,-0.5507813 0.5976563,-0.6914063 0.8789063,-0.6914063 0.375,0 0.7382812,0.2226563 0.8671875,0.6328125 0.1054687,0.375 0.1171875,0.8789063 0.1171875,1.47656251 0,0.515625 0,1.04296875 -0.09375,1.4765625 C 7.3633516,1.2845078 6.8946016,1.4368516 6.6133516,1.4368516 Z m 0,0"
         style="fill:#000000;fill-opacity:1;fill-rule:nonzero;stroke:none" />
    </g>
    <path
       id="path19"
       d="M 0,0 53.98543,90.25832"
       style="fill:none;stroke:#0000ff;stroke-width:0.79701;stroke-linecap:butt;stroke-linejoin:miter;stroke-miterlimit:10;stroke-dasharray:none;stroke-opacity:1"
       transform="matrix(1.3333333,0,0,-1.3333333,149.992,296.44533)" />
    <path
       id="path20"
       d="M 4.66248,0 C 3.28098,0.25902 1.0361,1.0361 -0.51805,1.94269 V -1.94269 C 1.0361,-1.0361 3.28098,-0.25902 4.66248,0"
       style="fill:#0000ff;fill-opacity:1;fill-rule:nonzero;stroke:none"
       transform="matrix(0.6844,-1.1442267,-1.1442267,-0.6844,221.97255,176.10093)" />
    <g
       id="g20"
       aria-label="⃗x&#10;0"
       transform="matrix(1.3333333,0,0,1.3333333,168.812,226.65467)">
      <path
         id="path21"
         d="m 5.344125,-5.9285 c -0.1289062,0.1289063 -0.4570312,0.4101563 -0.4570312,0.5859375 0,0.1054688 0.09375,0.1992188 0.1992187,0.1992188 0.082031,0 0.1289063,-0.070312 0.1875,-0.1289063 0.1171875,-0.140625 0.3398438,-0.421875 0.7851563,-0.6445312 0.070312,-0.035156 0.1640625,-0.09375 0.1640625,-0.2109375 0,-0.09375 -0.070312,-0.1523438 -0.140625,-0.1992188 -0.2109375,-0.1523437 -0.328125,-0.328125 -0.3984375,-0.5625 -0.023437,-0.09375 -0.070312,-0.2226562 -0.1992188,-0.2226562 -0.140625,0 -0.1992187,0.1289062 -0.1992187,0.2109375 0,0.046875 0.070312,0.3632812 0.234375,0.5742187 H 2.156625 c -0.1640625,0 -0.3398437,0 -0.3398437,0.1992188 0,0.1992187 0.1757812,0.1992187 0.3398437,0.1992187 z m 0,0"
         style="fill:#0000ff;fill-opacity:1;fill-rule:nonzero;stroke:none" />
      <path
         id="path22"
         d="m 3.4867031,-2.3425625 c 0.2929688,-0.375 0.6796875,-0.8671875 0.9140625,-1.125 0.3164063,-0.3515625 0.7148438,-0.5039062 1.1835938,-0.515625 V -4.287875 c -0.2578125,0.011719 -0.5507813,0.023437 -0.8085938,0.023437 -0.3046875,0 -0.8320312,-0.023437 -0.9609375,-0.023437 v 0.3046875 c 0.2109375,0.023437 0.2929688,0.1523438 0.2929688,0.3046875 0,0.1640625 -0.1054688,0.2929688 -0.1523438,0.3515625 L 3.3343594,-2.5535 2.5609219,-3.5495937 c -0.09375,-0.1054688 -0.09375,-0.1289063 -0.09375,-0.1875 0,-0.1523438 0.1523437,-0.234375 0.3515625,-0.2460938 V -4.287875 c -0.2578125,0 -0.9140625,0.023437 -1.078125,0.023437 -0.2109375,0 -0.6796875,-0.011719 -0.94921877,-0.023437 v 0.3046875 c 0.70312497,0 0.71484377,0.011719 1.18359377,0.609375 l 0.984375,1.2773438 -0.9375,1.19531245 C 1.5413906,-0.3269375 0.95545313,-0.3035 0.74451563,-0.3035 V 0.0011875 C 1.0023281,-0.02225 1.3187344,-0.03396875 1.5765469,-0.03396875 c 0.28125,0 0.703125,0.0234375 0.9492187,0.03515625 V -0.3035 C 2.3031094,-0.3386563 2.2327969,-0.4675625 2.2327969,-0.61990625 c 0,-0.2109375 0.2929687,-0.53906245 0.890625,-1.26562495 l 0.7617187,0.9960937 c 0.082031,0.1171875 0.2109375,0.26953125 0.2109375,0.328125 0,0.09375 -0.09375,0.24609375 -0.3632812,0.2578125 v 0.3046875 c 0.3046875,-0.01171875 0.8554687,-0.03515625 1.078125,-0.03515625 0.2695312,0 0.65625,0.01171875 0.9609375,0.03515625 V -0.3035 c -0.5390625,0 -0.7265625,-0.0234375 -0.9492188,-0.31640625 z m 0,0"
         style="fill:#0000ff;fill-opacity:1;fill-rule:nonzero;stroke:none" />
      <path
         id="path23"
         d="m 9.4837734,-0.73123437 c 0,-0.76171873 -0.09375,-1.31250003 -0.4101562,-1.80468753 -0.2226563,-0.3164062 -0.6445313,-0.5976562 -1.2070313,-0.5976562 -1.6171875,0 -1.6171875,1.8984375 -1.6171875,2.40234373 0,0.50390625 0,2.36718747 1.6171875,2.36718747 1.6171875,0 1.6171875,-1.86328122 1.6171875,-2.36718747 z M 7.8665859,1.4367344 c -0.3164062,0 -0.75,-0.1875 -0.890625,-0.76171877 -0.09375,-0.41015625 -0.09375,-0.984375 -0.09375,-1.5 0,-0.50390623 0,-1.03125003 0.1054688,-1.41796873 0.1523437,-0.5507813 0.5976562,-0.6914063 0.8789062,-0.6914063 0.375,0 0.7382813,0.2226563 0.8671875,0.6328125 0.1054688,0.375 0.1171875,0.8789063 0.1171875,1.47656253 0,0.515625 0,1.04296875 -0.09375,1.4765625 C 8.6165859,1.2843906 8.1478359,1.4367344 7.8665859,1.4367344 Z m 0,0"
         style="fill:#0000ff;fill-opacity:1;fill-rule:nonzero;stroke:none" />
    </g>
    <path
       id="path24"
       d="M -19.39066,-18.22108 140.43387,-38.11603"
       style="fill:none;stroke:#000000;stroke-width:0.3985;stroke-linecap:butt;stroke-linejoin:miter;stroke-miterlimit:10;stroke-dasharray:2.98883, 2.98883;stroke-dashoffset:0;stroke-opacity:1"
       transform="matrix(1.3333333,0,0,-1.3333333,149.992,296.44533)" />
    <path
       id="path25"
       d="m 3.3267969,-3.0115625 c 0.058594,-0.2578125 0.2929687,-1.171875 0.984375,-1.171875 0.046875,0 0.2929687,0 0.5039062,0.1289063 -0.28125,0.046875 -0.4804687,0.3046875 -0.4804687,0.5390625 0,0.1640625 0.1054687,0.3515625 0.375,0.3515625 0.2226562,0 0.5390625,-0.1875 0.5390625,-0.5859375 0,-0.515625 -0.5859375,-0.65625 -0.9257813,-0.65625 -0.5742187,0 -0.9257812,0.5273437 -1.0429687,0.7617187 -0.2578125,-0.65625 -0.7851563,-0.7617187 -1.078125,-0.7617187 -1.0429688,0 -1.60546878,1.2890625 -1.60546878,1.5351562 0,0.1054688 0.10546875,0.1054688 0.1171875,0.1054688 0.0820313,0 0.1171875,-0.023437 0.12890625,-0.1171875 0.33984373,-1.0546875 0.99609373,-1.3007813 1.33593753,-1.3007813 0.1875,0 0.5390625,0.09375 0.5390625,0.6679688 0,0.3046875 -0.1640625,0.9726562 -0.5390625,2.3671875 -0.1523438,0.6210937 -0.5039063,1.0429687 -0.9492188,1.0429687 -0.058594,0 -0.28124998,0 -0.49218748,-0.12890625 0.24609375,-0.0585937 0.46874998,-0.26953125 0.46874998,-0.5390625 0,-0.26953125 -0.22265623,-0.35156245 -0.37499998,-0.35156245 -0.29296875,0 -0.5390625,0.25781245 -0.5390625,0.5742187 0,0.45703125 0.4921875,0.65625 0.93749998,0.65625 0.65625,0 1.0078125,-0.69140625 1.0429688,-0.75 0.1171875,0.36328125 0.4804687,0.75 1.078125,0.75 1.0195312,0 1.59375,-1.2773437 1.59375,-1.5351562 0,-0.09375 -0.09375,-0.09375 -0.1289063,-0.09375 -0.082031,0 -0.1054687,0.035156 -0.1289062,0.1054687 -0.328125,1.06640625 -0.9960938,1.3125 -1.3242188,1.3125 -0.3867187,0 -0.5390625,-0.328125 -0.5390625,-0.65625 0,-0.22265625 0.058594,-0.4453125 0.1640625,-0.8789062 z m 0,0"
       style="fill:#000000;fill-opacity:1;fill-rule:nonzero;stroke:none"
       aria-label="x"
       transform="matrix(1.3333333,0,0,1.3333333,111.85333,316.04667)" />
    <path
       id="path26"
       d="M 159.82454,-19.89494 140.43387,-38.11603"
       style="fill:none;stroke:#000000;stroke-width:0.3985;stroke-linecap:butt;stroke-linejoin:miter;stroke-miterlimit:10;stroke-dasharray:2.98883, 2.98883;stroke-dashoffset:0;stroke-opacity:1"
       transform="matrix(1.3333333,0,0,-1.3333333,149.992,296.44533)" />
    <path
       id="path27"
       d="m 4.8391562,-3.7963906 c 0.046875,-0.140625 0.046875,-0.1523438 0.046875,-0.2226563 0,-0.1875 -0.140625,-0.2695312 -0.2929687,-0.2695312 -0.1054688,0 -0.2578125,0.058594 -0.3515625,0.1992187 -0.023437,0.058594 -0.09375,0.3632813 -0.140625,0.5390625 -0.070312,0.2578125 -0.140625,0.5273438 -0.1992188,0.796875 l -0.4453125,1.79296878 c -0.035156,0.15234375 -0.46875,0.85546875 -1.125,0.85546875 -0.5039062,0 -0.6210937,-0.4453125 -0.6210937,-0.80859375 0,-0.45703128 0.1757812,-1.07812498 0.515625,-1.95703128 0.1523437,-0.4101562 0.1992187,-0.515625 0.1992187,-0.7148437 0,-0.4453125 -0.328125,-0.8203125 -0.8203125,-0.8203125 -0.9492187,0 -1.31249995,1.453125 -1.31249995,1.5351562 0,0.1054688 0.09375,0.1054688 0.1171875,0.1054688 0.09375,0 0.10546875,-0.023437 0.15234375,-0.1875 0.26953125,-0.9375 0.6679687,-1.2304688 1.0078125,-1.2304688 0.082031,0 0.2578125,0 0.2578125,0.3164063 0,0.2460937 -0.1054688,0.515625 -0.1757813,0.703125 -0.3984375,1.0546875 -0.5742187,1.6171875 -0.5742187,2.0859375 0,0.89062498 0.6210937,1.18359373 1.21875,1.18359373 0.3867187,0 0.7265625,-0.1640625 0.9960937,-0.4453125 C 3.163375,0.17626563 3.0461875,0.66845313 2.64775,1.1957969 2.3899375,1.5356406 2.0149375,1.8286094 1.5579062,1.8286094 c -0.140625,0 -0.5976562,-0.035156 -0.7617187,-0.421875 0.1640625,0 0.2929687,0 0.4335937,-0.1171875 C 1.3235312,1.1957969 1.429,1.0668906 1.429,0.87939063 c 0,-0.31640625 -0.2695313,-0.3515625 -0.375,-0.3515625 -0.22265625,0 -0.55078125,0.1640625 -0.55078125,0.64453127 0,0.5039062 0.43359375,0.8671875 1.05468745,0.8671875 1.0195313,0 2.0507813,-0.9023438 2.3320313,-2.02734377 z m 0,0"
       style="fill:#000000;fill-opacity:1;fill-rule:nonzero;stroke:none"
       aria-label="y"
       transform="matrix(1.3333333,0,0,1.3333333,359.59467,315.69467)" />
    <path
       id="path28"
       d="m 143.4227,-16.80603 c 0,1.65071 -1.33814,2.98883 -2.98883,2.98883 -1.65071,0 -2.98883,-1.33812 -2.98883,-2.98883 0,-1.6507 1.33812,-2.98883 2.98883,-2.98883 1.65069,0 2.98883,1.33813 2.98883,2.98883 z"
       style="fill:#ffffff;fill-opacity:1;fill-rule:nonzero;stroke:none"
       transform="matrix(1.3333333,0,0,-1.3333333,149.992,296.44533)" />
    <path
       id="path29"
       d="M 140.43387,135.0272 V -38.11603"
       style="fill:none;stroke:#000000;stroke-width:0.3985;stroke-linecap:butt;stroke-linejoin:miter;stroke-miterlimit:10;stroke-dasharray:2.98883, 2.98883;stroke-dashoffset:0;stroke-opacity:1"
       transform="matrix(1.3333333,0,0,-1.3333333,149.992,296.44533)" />
    <path
       id="path30"
       d="M 0,173.14325 140.43387,135.0272"
       style="fill:none;stroke:#000000;stroke-width:0.3985;stroke-linecap:butt;stroke-linejoin:miter;stroke-miterlimit:10;stroke-dasharray:2.98883, 2.98883;stroke-dashoffset:0;stroke-opacity:1"
       transform="matrix(1.3333333,0,0,-1.3333333,149.992,296.44533)" />
    <path
       id="path31"
       d="M 1.3255156,-0.83211719 C 1.8645781,-1.4063359 2.1575469,-1.6524297 2.5091094,-1.9571172 c 0,-0.011719 0.6210937,-0.5390625 0.984375,-0.9023437 0.9375,-0.9257813 1.1601562,-1.40625 1.1601562,-1.4414063 0,-0.1054687 -0.09375,-0.1054687 -0.1054687,-0.1054687 -0.070312,0 -0.1054688,0.023437 -0.1523438,0.1171875 -0.3046875,0.46875 -0.5039062,0.6328125 -0.75,0.6328125 -0.234375,0 -0.3515625,-0.1523438 -0.5039062,-0.3164063 -0.1875,-0.234375 -0.3632813,-0.4335937 -0.6914063,-0.4335937 -0.75,0 -1.2070312,0.9257812 -1.2070312,1.1367187 0,0.046875 0.035156,0.1171875 0.1171875,0.1171875 0.09375,0 0.1171875,-0.058594 0.140625,-0.1171875 0.1875,-0.4570312 0.7617187,-0.46875 0.84375,-0.46875 0.2109375,0 0.3984375,0.070312 0.6210937,0.1523438 0.3984375,0.1523437 0.515625,0.1523437 0.7734375,0.1523437 -0.3632812,0.421875 -1.1953125,1.1367188 -1.3828125,1.3007813 l -0.9023437,0.8320312 c -0.67968753,0.66796876 -1.01953128,1.24218751 -1.01953128,1.31250001 0,0.09375 0.09375,0.09375 0.1171875,0.09375 0.0820313,0 0.09375,-0.01171875 0.15234375,-0.12890625 0.234375,-0.33984375 0.52734373,-0.609375 0.85546873,-0.609375 0.2226563,0 0.328125,0.0820313 0.5742188,0.375 0.1640625,0.2109375 0.3515625,0.36328125 0.6328125,0.36328125 0.984375,0 1.5703125,-1.26562501 1.5703125,-1.53515621 0,-0.046875 -0.046875,-0.09375 -0.1171875,-0.09375 -0.09375,0 -0.1171875,0.058594 -0.140625,0.1289062 -0.234375,0.64453126 -0.8671875,0.83203126 -1.1953125,0.83203126 -0.1992188,0 -0.3867188,-0.0585938 -0.5859375,-0.12890625 -0.3398438,-0.12890625 -0.4921875,-0.1640625 -0.703125,-0.1640625 -0.023437,0 -0.1757813,0 -0.2695313,0.0234375 z m 0,0"
       style="fill:#000000;fill-opacity:1;fill-rule:nonzero;stroke:none"
       aria-label="z"
       transform="matrix(1.3333333,0,0,1.3333333,138.53733,68.449333)" />
    <path
       id="path32"
       d="M 0,0 135.38121,130.37198"
       style="fill:none;stroke:#0000ff;stroke-width:0.79701;stroke-linecap:butt;stroke-linejoin:miter;stroke-miterlimit:10;stroke-dasharray:none;stroke-opacity:1"
       transform="matrix(1.3333333,0,0,-1.3333333,149.992,296.44533)" />
    <path
       id="path33"
       d="M 4.66248,0 C 3.28098,0.25902 1.0361,1.0361 -0.51805,1.94269 V -1.94269 C 1.0361,-1.0361 3.28098,-0.25902 4.66248,0"
       style="fill:#0000ff;fill-opacity:1;fill-rule:nonzero;stroke:none"
       transform="matrix(0.96038667,-0.92484,-0.92484,-0.96038667,330.50028,122.61605)" />
    <g
       id="g33"
       aria-label="⃗x"
       transform="matrix(1.3333333,0,0,1.3333333,284.388,177.28933)">
      <path
         id="path34"
         d="m 5.3427891,-5.9298906 c -0.1289063,0.1289062 -0.4570313,0.4101562 -0.4570313,0.5859375 0,0.1054687 0.09375,0.1992187 0.1992188,0.1992187 0.082031,0 0.1289062,-0.070312 0.1875,-0.1289062 0.1171875,-0.140625 0.3398437,-0.421875 0.7851562,-0.6445313 0.070312,-0.035156 0.1640625,-0.09375 0.1640625,-0.2109375 0,-0.09375 -0.070312,-0.1523437 -0.140625,-0.1992187 -0.2109375,-0.1523438 -0.328125,-0.328125 -0.3984375,-0.5625 -0.023437,-0.09375 -0.070312,-0.2226563 -0.1992187,-0.2226563 -0.140625,0 -0.1992188,0.1289063 -0.1992188,0.2109375 0,0.046875 0.070312,0.3632813 0.234375,0.5742188 H 2.1552891 c -0.1640625,0 -0.3398438,0 -0.3398438,0.1992187 0,0.1992188 0.1757813,0.1992188 0.3398438,0.1992188 z m 0,0"
         style="fill:#0000ff;fill-opacity:1;fill-rule:nonzero;stroke:none" />
      <path
         id="path35"
         d="m 3.4853672,-2.3439531 c 0.2929687,-0.375 0.6796875,-0.8671875 0.9140625,-1.125 0.3164062,-0.3515625 0.7148437,-0.5039063 1.1835937,-0.515625 v -0.3046875 c -0.2578125,0.011719 -0.5507812,0.023437 -0.8085937,0.023437 -0.3046875,0 -0.8320313,-0.023437 -0.9609375,-0.023437 v 0.3046875 c 0.2109375,0.023437 0.2929687,0.1523437 0.2929687,0.3046875 0,0.1640625 -0.1054687,0.2929687 -0.1523437,0.3515625 L 3.3330234,-2.5548906 2.5595859,-3.5509844 c -0.09375,-0.1054687 -0.09375,-0.1289062 -0.09375,-0.1875 0,-0.1523437 0.1523438,-0.234375 0.3515625,-0.2460937 v -0.3046875 c -0.2578125,0 -0.9140625,0.023437 -1.078125,0.023437 -0.2109375,0 -0.6796875,-0.011719 -0.94921871,-0.023437 v 0.3046875 c 0.70312501,0 0.71484371,0.011719 1.18359371,0.609375 l 0.984375,1.2773437 -0.9375,1.19531253 C 1.5400547,-0.32832812 0.95411719,-0.30489062 0.74317969,-0.30489062 V -2.03125e-4 C 1.0009922,-0.02364062 1.3173984,-0.03535937 1.5752109,-0.03535937 c 0.28125,0 0.703125,0.0234375 0.9492188,0.035156245 V -0.30489062 c -0.2226563,-0.0351563 -0.2929688,-0.1640625 -0.2929688,-0.31640625 0,-0.2109375 0.2929688,-0.53906253 0.890625,-1.26562503 l 0.7617188,0.99609378 c 0.082031,0.1171875 0.2109375,0.26953125 0.2109375,0.328125 0,0.09375 -0.09375,0.24609375 -0.3632813,0.2578125 v 0.304687495 c 0.3046875,-0.011718745 0.8554688,-0.035156245 1.078125,-0.035156245 0.2695313,0 0.65625,0.01171875 0.9609375,0.035156245 V -0.30489062 c -0.5390625,0 -0.7265625,-0.0234375 -0.9492187,-0.31640625 z m 0,0"
         style="fill:#0000ff;fill-opacity:1;fill-rule:nonzero;stroke:none" />
    </g>
    <path
       id="path36"
       d="m 62.05812,55.72496 c 0,2.20094 -1.78416,3.98511 -3.98511,3.98511 -2.20094,0 -3.98511,-1.78417 -3.98511,-3.98511 0,-2.20094 1.78417,-3.98511 3.98511,-3.98511 2.20095,0 3.98511,1.78417 3.98511,3.98511 z"
       style="fill:#ffffff;fill-opacity:1;fill-rule:nonzero;stroke:none"
       transform="matrix(1.3333333,0,0,-1.3333333,149.992,296.44533)" />
    <path
       id="path37"
       d="m 62.05812,-28.18315 c 0,2.20094 -1.78416,3.98511 -3.98511,3.98511 -2.20094,0 -3.98511,-1.78417 -3.98511,-3.98511 0,-2.20095 1.78417,-3.98511 3.98511,-3.98511 2.20095,0 3.98511,1.78416 3.98511,3.98511 z"
       style="fill:#ffffff;fill-opacity:1;fill-rule:nonzero;stroke:none"
       transform="matrix(1.3333333,0,0,-1.3333333,149.992,296.44533)" />
    <path
       id="path38"
       d="m 61.06184,-6.87314 c 0,1.65071 -1.33813,2.98883 -2.98883,2.98883 -1.65071,0 -2.98883,-1.33812 -2.98883,-2.98883 0,-1.65071 1.33812,-2.98883 2.98883,-2.98883 1.6507,0 2.98883,1.33812 2.98883,2.98883 z"
       style="fill:#ffffff;fill-opacity:1;fill-rule:nonzero;stroke:none"
       transform="matrix(1.3333333,0,0,-1.3333333,149.992,296.44533)" />
    <path
       id="path39"
       d="M 58.07301,95.68068 V -58.81602"
       style="fill:none;stroke:#000000;stroke-width:0.3985;stroke-linecap:butt;stroke-linejoin:miter;stroke-miterlimit:10;stroke-dasharray:2.98883, 2.98883;stroke-dashoffset:0;stroke-opacity:1"
       transform="matrix(1.3333333,0,0,-1.3333333,149.992,296.44533)" />
    <path
       id="path40"
       d="m 58.07301,95.68068 78.15413,37.33687"
       style="fill:none;stroke:#ff0000;stroke-width:0.79701;stroke-linecap:butt;stroke-linejoin:miter;stroke-miterlimit:10;stroke-dasharray:none;stroke-opacity:1"
       transform="matrix(1.3333333,0,0,-1.3333333,149.992,296.44533)" />
    <path
       id="path41"
       d="M 4.66248,0 C 3.28098,0.25902 1.0361,1.0361 -0.51805,1.94269 V -1.94269 C 1.0361,-1.0361 3.28098,-0.25902 4.66248,0"
       style="fill:#ff0000;fill-opacity:1;fill-rule:nonzero;stroke:none"
       transform="matrix(1.203,-0.57470667,-0.57470667,-1.203,331.62817,119.08863)" />
    <g
       id="g41"
       aria-label="⃗r"
       transform="matrix(1.3333333,0,0,1.3333333,267.004,142.92933)">
      <path
         id="path42"
         d="m 5.3436797,-5.9294219 c -0.1289063,0.1289063 -0.4570313,0.4101563 -0.4570313,0.5859375 0,0.1054688 0.09375,0.1992188 0.1992188,0.1992188 0.082031,0 0.1289062,-0.070312 0.1875,-0.1289063 0.1171875,-0.140625 0.3398437,-0.421875 0.7851562,-0.6445312 0.070312,-0.035156 0.1640625,-0.09375 0.1640625,-0.2109375 0,-0.09375 -0.070312,-0.1523438 -0.140625,-0.1992188 -0.2109375,-0.1523437 -0.328125,-0.328125 -0.3984375,-0.5625 -0.023437,-0.09375 -0.070312,-0.2226562 -0.1992187,-0.2226562 -0.140625,0 -0.1992188,0.1289062 -0.1992188,0.2109375 0,0.046875 0.070312,0.3632812 0.234375,0.5742187 H 2.1561797 c -0.1640625,0 -0.3398438,0 -0.3398438,0.1992188 0,0.1992187 0.1757813,0.1992187 0.3398438,0.1992187 z m 0,0"
         style="fill:#ff0000;fill-opacity:1;fill-rule:nonzero;stroke:none" />
      <path
         id="path43"
         d="m 2.9706328,-3.3044219 v -1.1015625 l -1.3828125,0.1171875 v 0.3046875 c 0.6914063,0 0.7734375,0.070312 0.7734375,0.5625 v 2.66015627 c 0,0.45703125 -0.1054687,0.45703125 -0.7734375,0.45703125 V 2.65625e-4 C 1.9745391,-0.01145313 2.4432891,-0.03489063 2.7245391,-0.03489063 c 0.3984375,0 0.8671875,0 1.265625,0.035156255 V -0.30442188 H 3.7792266 c -0.7382813,0 -0.7617188,-0.1171875 -0.7617188,-0.46875 V -2.3083281 c 0,-0.984375 0.421875,-1.875 1.1835938,-1.875 0.058594,0 0.082031,0 0.1054687,0.011719 -0.035156,0.011719 -0.234375,0.1289063 -0.234375,0.3867188 0,0.28125 0.2109375,0.4335937 0.4335938,0.4335937 0.1757812,0 0.421875,-0.1289062 0.421875,-0.4453125 0,-0.3164062 -0.3046875,-0.609375 -0.7265625,-0.609375 -0.7382813,0 -1.0898438,0.6679688 -1.2304688,1.1015622 z m 0,0"
         style="fill:#ff0000;fill-opacity:1;fill-rule:nonzero;stroke:none" />
    </g>
    <path
       id="path44"
       d="m 60.36446,95.68068 c 0,1.26553 -1.02591,2.29144 -2.29145,2.29144 -1.26553,0 -2.29144,-1.02591 -2.29144,-2.29144 0,-1.26553 1.02591,-2.29144 2.29144,-2.29144 1.26554,0 2.29145,1.02591 2.29145,2.29144 z"
       style="fill:#000000;fill-opacity:1;fill-rule:nonzero;stroke:none"
       transform="matrix(1.3333333,0,0,-1.3333333,149.992,296.44533)" />
    <path
       id="path45"
       d="m 4.5000625,-4.2878203 c 0,-0.046875 -0.023437,-0.1054688 -0.09375,-0.1054688 -0.1171875,0 -0.515625,0.3984375 -0.6796875,0.6914063 -0.2226563,-0.5390625 -0.609375,-0.703125 -0.9257813,-0.703125 -1.171875,0 -2.4023437,1.4765625 -2.4023437,2.9179687 0,0.98437504 0.5859375,1.59375004 1.3125,1.59375004 0.4335937,0 0.8203125,-0.234375 1.1835937,-0.59765625 -0.09375,0.3515625 -0.421875,1.69921871 -0.4570312,1.79296871 -0.082031,0.2695313 -0.1523438,0.3164063 -0.7148438,0.328125 -0.1289062,0 -0.2226562,0 -0.2226562,0.1992188 0,0 0,0.1054687 0.1289062,0.1054687 0.3164063,0 0.6679688,-0.035156 0.9960938,-0.035156 0.328125,0 0.6914062,0.035156 1.0195312,0.035156 0.046875,0 0.1757813,0 0.1757813,-0.1992187 0,-0.1054688 -0.09375,-0.1054688 -0.2578125,-0.1054688 -0.46875,0 -0.46875,-0.070312 -0.46875,-0.1640625 0,-0.070312 0.011719,-0.1289062 0.035156,-0.2226562 z m -2.7539063,4.18359374 c -0.5976562,0 -0.6445312,-0.7734375 -0.6445312,-0.93750004 0,-0.4804687 0.2929687,-1.5703125 0.4570312,-1.9804687 0.3164063,-0.7382813 0.8320313,-1.1601563 1.2421875,-1.1601563 0.6445313,0 0.7851563,0.8085938 0.7851563,0.8789063 0,0.058594 -0.5507813,2.2382812 -0.5742188,2.2734375 -0.1523437,0.28124999 -0.7148437,0.92578124 -1.265625,0.92578124 z m 0,0"
       style="fill:#000000;fill-opacity:1;fill-rule:nonzero;stroke:none"
       aria-label="q"
       transform="matrix(1.3333333,0,0,1.3333333,224.21867,161.596)" />
    <path
       id="path46"
       d="m 140.43387,135.0272 28.73709,13.72907"
       style="fill:none;stroke:#ff0000;stroke-width:0.79701;stroke-linecap:butt;stroke-linejoin:miter;stroke-miterlimit:10;stroke-dasharray:none;stroke-opacity:1"
       transform="matrix(1.3333333,0,0,-1.3333333,149.992,296.44533)" />
    <path
       id="path47"
       d="M 4.66248,0 C 3.28098,0.25902 1.0361,1.0361 -0.51805,1.94269 V -1.94269 C 1.0361,-1.0361 3.28098,-0.25902 4.66248,0"
       style="fill:#ff0000;fill-opacity:1;fill-rule:nonzero;stroke:none"
       transform="matrix(1.203,-0.57470667,-0.57470667,-1.203,375.55325,98.103653)" />
    <g
       id="g47"
       aria-label="ˆr"
       transform="matrix(1.3333333,0,0,1.3333333,352.22133,103.05867)">
      <path
         id="path48"
         d="m 2.4970859,-6.9141172 -1.3359375,1.359375 0.1757813,0.1757813 1.1601562,-1.0195313 1.1367188,1.0195313 0.1875,-0.1757813 z m 0,0"
         style="fill:#ff0000;fill-opacity:1;fill-rule:nonzero;stroke:none" />
      <path
         id="path49"
         d="m 0.43165625,-0.58599219 c -0.0351563,0.15234375 -0.09375,0.375 -0.09375,0.421875 0,0.1875 0.140625,0.26953125 0.29296875,0.26953125 0.1171875,0 0.29296875,-0.0703125 0.36328125,-0.26953125 C 1.0175937,-0.21099219 1.3574375,-1.5586484 1.3925937,-1.7461484 1.474625,-2.0742734 1.6504062,-2.7656797 1.709,-3.0352109 c 0.046875,-0.1289063 0.328125,-0.5976563 0.5625,-0.8203125 0.082031,-0.070312 0.375,-0.328125 0.796875,-0.328125 0.2578125,0 0.4101562,0.1171875 0.421875,0.1171875 -0.3046875,0.046875 -0.515625,0.2929687 -0.515625,0.5507812 0,0.1640625 0.1054687,0.3515625 0.375,0.3515625 0.2695312,0 0.5507812,-0.234375 0.5507812,-0.5859375 0,-0.3515625 -0.328125,-0.65625 -0.8320312,-0.65625 -0.6445313,0 -1.0898438,0.4921875 -1.2773438,0.7734375 C 1.709,-4.0898984 1.3574375,-4.4063047 0.8886875,-4.4063047 c -0.45703125,0 -0.64453125,0.3867188 -0.73828125,0.5742188 -0.17578125,0.3398437 -0.3046875,0.9375 -0.3046875,0.9609375 0,0.1054687 0.09375,0.1054687 0.1171875,0.1054687 0.09375,0 0.10546875,-0.011719 0.1640625,-0.234375 0.17578125,-0.703125 0.375,-1.1835937 0.7265625,-1.1835937 0.17578125,0 0.31640625,0.082031 0.31640625,0.4570312 0,0.2109375 -0.035156,0.3164063 -0.1640625,0.8320313 z m 0,0"
         style="fill:#ff0000;fill-opacity:1;fill-rule:nonzero;stroke:none" />
    </g>
  </g>
</svg>
