<?xml version="1.0" encoding="UTF-8" standalone="no"?>
<!-- Created with Inkscape (http://www.inkscape.org/) -->

<svg
   version="1.1"
   id="svg1"
   width="438.35599"
   height="416.36667"
   viewBox="0 0 438.35599 416.36667"
   xmlns="http://www.w3.org/2000/svg"
   xmlns:svg="http://www.w3.org/2000/svg">
  <defs
     id="defs1" />
  <g
     id="g1">
    <path
       id="path1"
       d="M 0,0 -64.4698,-60.58116"
       style="fill:none;stroke:#000000;stroke-width:0.79701;stroke-linecap:butt;stroke-linejoin:miter;stroke-miterlimit:10;stroke-dasharray:none;stroke-opacity:1"
       transform="matrix(1.3333333,0,0,-1.3333333,158.24133,305.484)" />
    <path
       id="path2"
       d="M 4.66248,0 C 3.28098,0.25902 1.0361,1.0361 -0.51805,1.94269 V -1.94269 C 1.0361,-1.0361 3.28098,-0.25902 4.66248,0"
       style="fill:#000000;fill-opacity:1;fill-rule:nonzero;stroke:none"
       transform="matrix(-0.9716,0.913,0.913,0.9716,72.2816,386.25888)" />
    <path
       id="path3"
       d="m 2.830707,-6.2224023 c 0,-0.1992188 -0.140625,-0.3632813 -0.3691406,-0.3632813 -0.2695312,0 -0.5390625,0.2636719 -0.5390625,0.5273438 0,0.1933593 0.140625,0.3632812 0.3808594,0.3632812 0.2285156,0 0.5273437,-0.2285156 0.5273437,-0.5273437 z m -0.7558593,3.7441406 c 0.1171875,-0.2929688 0.1171875,-0.3105469 0.2167968,-0.5800781 0.082031,-0.1992188 0.1289063,-0.3398438 0.1289063,-0.5273438 0,-0.4453125 -0.3164063,-0.8144531 -0.8144531,-0.8144531 -0.93750004,0 -1.31835942,1.4414062 -1.31835942,1.5292969 0,0.099609 0.0996094,0.099609 0.12304688,0.099609 0.0996094,0 0.10546875,-0.017578 0.15820312,-0.1757812 0.26953125,-0.9375 0.66796872,-1.2363281 1.00781252,-1.2363281 0.076172,0 0.2460937,0 0.2460937,0.3164062 0,0.2109375 -0.070312,0.421875 -0.1113281,0.5214844 -0.076172,0.2578125 -0.5273437,1.4121094 -0.6855469,1.8398437 -0.0996093,0.2636719 -0.22851559,0.59179691 -0.22851559,0.79687503 0,0.46875 0.33984379,0.8203125 0.81445309,0.8203125 0.9375,0 1.3066407,-1.44726563 1.3066407,-1.53515623 0,-0.099609 -0.087891,-0.099609 -0.1171875,-0.099609 -0.099609,0 -0.099609,0.029297 -0.1523438,0.1816406 -0.1757812,0.62695316 -0.5097656,1.23046878 -1.0136719,1.23046878 -0.1699218,0 -0.2402343,-0.0996094 -0.2402343,-0.328125 0,-0.24609375 0.058594,-0.38671875 0.2871093,-0.99609378 z m 0,0"
       style="fill:#000000;fill-opacity:1;fill-rule:nonzero;stroke:none"
       aria-label="i"
       transform="matrix(2.6666667,0,0,2.6666667,58.650667,403.52667)" />
    <path
       id="path4"
       d="M 0,0 181.83534,-22.63493"
       style="fill:none;stroke:#000000;stroke-width:0.79701;stroke-linecap:butt;stroke-linejoin:miter;stroke-miterlimit:10;stroke-dasharray:none;stroke-opacity:1"
       transform="matrix(1.3333333,0,0,-1.3333333,158.24133,305.484)" />
    <path
       id="path5"
       d="M 4.66248,0 C 3.28098,0.25902 1.0361,1.0361 -0.51805,1.94269 V -1.94269 C 1.0361,-1.0361 3.28098,-0.25902 4.66248,0"
       style="fill:#000000;fill-opacity:1;fill-rule:nonzero;stroke:none"
       transform="matrix(1.32308,0.16466667,0.16466667,-1.32308,400.68844,335.66391)" />
    <path
       id="path6"
       d="m 3.9550859,-6.2225625 c 0,-0.1933594 -0.140625,-0.3632812 -0.3808593,-0.3632812 -0.2285157,0 -0.5273438,0.2285156 -0.5273438,0.5273437 0,0.1992188 0.140625,0.3632813 0.3691406,0.3632813 0.2695313,0 0.5390625,-0.2636719 0.5390625,-0.5273438 z M 1.9511797,0.49814063 C 1.7636797,1.254 1.2832109,1.8223594 0.72657031,1.8223594 c -0.0585938,0 -0.2109375,0 -0.38671875,-0.087891 0.29882813,-0.070312 0.4453125,-0.328125 0.4453125,-0.5273438 0,-0.1640625 -0.10546875,-0.3515625 -0.375,-0.3515625 -0.25195312,0 -0.5390625,0.2109375 -0.5390625,0.5683594 0,0.3984375 0.3984375,0.6152344 0.87304688,0.6152344 0.69726566,0 1.62890626,-0.5273438 1.87499996,-1.5117188 l 0.9140625,-3.6445312 c 0.052734,-0.1992188 0.052734,-0.3398438 0.052734,-0.3691407 0,-0.5683593 -0.4160156,-0.9140625 -0.9140625,-0.9140625 -1.0195312,0 -1.5878906,1.4414063 -1.5878906,1.5292969 0,0.099609 0.099609,0.099609 0.1230469,0.099609 0.087891,0 0.099609,-0.00586 0.1757812,-0.1992188 C 1.6347734,-3.574125 2.0918047,-4.1835 2.6367266,-4.1835 c 0.140625,0 0.3222656,0.041016 0.3222656,0.4570313 0,0.2285156 -0.029297,0.3398437 -0.070312,0.5097656 z m 0,0"
       style="fill:#000000;fill-opacity:1;fill-rule:nonzero;stroke:none"
       aria-label="j"
       transform="matrix(2.6666667,0,0,2.6666667,413.05467,344.156)" />
    <path
       id="path7"
       d="M 0,0 V 197.78209"
       style="fill:none;stroke:#000000;stroke-width:0.79701;stroke-linecap:butt;stroke-linejoin:miter;stroke-miterlimit:10;stroke-dasharray:none;stroke-opacity:1"
       transform="matrix(1.3333333,0,0,-1.3333333,158.24133,305.484)" />
    <path
       id="path8"
       d="M 4.66248,0 C 3.28098,0.25902 1.0361,1.0361 -0.51805,1.94269 V -1.94269 C 1.0361,-1.0361 3.28098,-0.25902 4.66248,0"
       style="fill:#000000;fill-opacity:1;fill-rule:nonzero;stroke:none"
       transform="matrix(0,-1.3333333,-1.3333333,0,158.24133,41.774547)" />
    <path
       id="path9"
       d="m 2.8587188,-6.8028359 c 0,-0.011719 0,-0.1113282 -0.1289063,-0.1113282 -0.2285156,0 -0.9550781,0.082031 -1.21875,0.099609 -0.076172,0.011719 -0.1875,0.023437 -0.1875,0.1992188 0,0.1230468 0.087891,0.1230468 0.2402344,0.1230468 0.4746094,0 0.4980469,0.070312 0.4980469,0.1699219 l -0.029297,0.1992188 -1.44726565,5.73632809 c -0.0410156,0.140625 -0.0410156,0.15820312 -0.0410156,0.21679687 0,0.22851563 0.19921875,0.28125 0.29296875,0.28125 0.12890625,0 0.2753906,-0.09375 0.3398437,-0.2109375 0.046875,-0.08789062 0.4980469,-1.93359376 0.5566407,-2.17968746 0.3398437,0.029297 1.1542968,0.1875 1.1542968,0.84375 0,0.070312 0,0.1113281 -0.029297,0.2109375 -0.023437,0.1171875 -0.041016,0.24023434 -0.041016,0.34570309 0,0.59179687 0.3984375,0.99023437 0.9140625,0.99023437 0.2988282,0 0.5683594,-0.15820312 0.7910157,-0.52734375 0.2460937,-0.43945312 0.3574218,-0.99023441 0.3574218,-1.00781251 0,-0.099609 -0.087891,-0.099609 -0.1171875,-0.099609 -0.099609,0 -0.1113281,0.041016 -0.140625,0.1816407 -0.1992187,0.72656246 -0.4277343,1.23046871 -0.8671875,1.23046871 -0.1875,0 -0.3222656,-0.10546875 -0.3222656,-0.46875 0,-0.1640625 0.041016,-0.3984375 0.082031,-0.55664061 0.041016,-0.1699219 0.041016,-0.2050781 0.041016,-0.3046875 0,-0.6503906 -0.6269531,-0.9375 -1.4765625,-1.0488281 0.3105469,-0.1816407 0.6269531,-0.4980469 0.8554687,-0.7382813 0.4804688,-0.5273437 0.9375,-0.9550781 1.4296875,-0.9550781 0.058594,0 0.064453,0 0.087891,0.011719 0.1171875,0.017578 0.1289062,0.017578 0.2109375,0.076172 0.017578,0.011719 0.017578,0.023437 0.035156,0.041016 -0.4746094,0.029297 -0.5683594,0.421875 -0.5683594,0.5390625 0,0.1582032 0.1113282,0.3457032 0.3808594,0.3457032 0.2578125,0 0.5507813,-0.2167969 0.5507813,-0.6035157 0,-0.2988281 -0.234375,-0.6269531 -0.6796875,-0.6269531 -0.28125,0 -0.7382813,0.076172 -1.453125,0.8730469 -0.3398438,0.3808594 -0.7265625,0.7792969 -1.1074219,0.9257812 z m 0,0"
       style="fill:#000000;fill-opacity:1;fill-rule:nonzero;stroke:none"
       aria-label="k"
       transform="matrix(2.6666667,0,0,2.6666667,150.908,31.289333)" />
    <path
       id="path10"
       d="M -48.47667,-45.55272 58.07301,-58.81602"
       style="fill:none;stroke:#000000;stroke-width:0.3985;stroke-linecap:butt;stroke-linejoin:miter;stroke-miterlimit:10;stroke-dasharray:2.98883, 2.98883;stroke-dashoffset:0;stroke-opacity:1"
       transform="matrix(1.3333333,0,0,-1.3333333,158.24133,305.484)" />
    <g
       id="g10"
       aria-label="x&#10;0"
       transform="matrix(2.6666667,0,0,2.6666667,57.118667,369.94667)">
      <path
         id="path11"
         d="m 3.3275703,-3.0063672 c 0.058594,-0.2636719 0.2871094,-1.1777344 0.984375,-1.1777344 0.052734,0 0.2871094,0 0.4980469,0.1289063 -0.28125,0.052734 -0.4804688,0.2988281 -0.4804688,0.5390625 0,0.1582031 0.1113282,0.3457031 0.3808594,0.3457031 0.2167969,0 0.5390625,-0.1757812 0.5390625,-0.5742187 0,-0.5214844 -0.5859375,-0.65625 -0.9257812,-0.65625 -0.5800782,0 -0.9257813,0.5273437 -1.0488282,0.7558593 -0.2460937,-0.65625 -0.7851562,-0.7558593 -1.0722656,-0.7558593 -1.0371094,0 -1.60546874,1.2832031 -1.60546874,1.5292968 0,0.099609 0.0996094,0.099609 0.1171875,0.099609 0.0820313,0 0.11132813,-0.017578 0.12890625,-0.1054687 C 1.1830391,-3.9321488 1.8392891,-4.184102 2.1791328,-4.184102 c 0.1933594,0 0.5390625,0.087891 0.5390625,0.6679688 0,0.3105469 -0.1699219,0.9785156 -0.5390625,2.3730469 -0.1582031,0.61523434 -0.5039062,1.03124996 -0.9433594,1.03124996 -0.058594,0 -0.29296871,0 -0.49804684,-0.12890625 0.24609375,-0.046875 0.46875004,-0.2578125 0.46875004,-0.5390625 0,-0.26367191 -0.22265629,-0.34570311 -0.36914066,-0.34570311 -0.29882813,0 -0.55078125,0.25781249 -0.55078125,0.58007811 0,0.45703125 0.49804687,0.65625 0.93750001,0.65625 0.65625,0 1.0136719,-0.69726562 1.0488281,-0.75585937 0.1171875,0.36328125 0.4746094,0.75585937 1.0722656,0.75585937 1.0253907,0 1.59375,-1.28906251 1.59375,-1.53515621 0,-0.099609 -0.087891,-0.099609 -0.1171875,-0.099609 -0.09375,0 -0.1113281,0.041016 -0.1289062,0.1113281 -0.328125,1.06640626 -1.0078125,1.30078126 -1.3242188,1.30078126 -0.3925781,0 -0.5507812,-0.31640625 -0.5507812,-0.65625 0,-0.21679687 0.058594,-0.43945316 0.1699219,-0.87304686 z m 0,0"
         style="fill:#000000;fill-opacity:1;fill-rule:nonzero;stroke:none" />
      <path
         id="path12"
         d="m 9.2909492,-0.73292969 c 0,-0.76757811 -0.087891,-1.31835941 -0.4101562,-1.80468751 -0.2167969,-0.3222656 -0.6503907,-0.5976562 -1.2070313,-0.5976562 -1.6171875,0 -1.6171875,1.9042968 -1.6171875,2.40234371 0,0.50390625 0,2.36718749 1.6171875,2.36718749 1.6171875,0 1.6171875,-1.86328124 1.6171875,-2.36718749 z M 7.6737617,1.4350391 c -0.3222656,0 -0.7441406,-0.1875 -0.8847656,-0.75585941 -0.099609,-0.41015625 -0.099609,-0.984375 -0.099609,-1.5 0,-0.50976559 0,-1.03710939 0.1054688,-1.42382809 0.1464843,-0.5507813 0.5917968,-0.6972657 0.8789062,-0.6972657 0.375,0 0.7382813,0.2285157 0.8671875,0.6328125 0.1113281,0.3808594 0.1171875,0.8789063 0.1171875,1.48828129 0,0.515625 0,1.03125 -0.09375,1.47070312 C 8.4237617,1.2826953 7.9550117,1.4350391 7.6737617,1.4350391 Z m 0,0"
         style="fill:#000000;fill-opacity:1;fill-rule:nonzero;stroke:none" />
    </g>
    <path
       id="path13"
       d="M 106.54968,-13.26329 58.07301,-58.81602"
       style="fill:none;stroke:#000000;stroke-width:0.3985;stroke-linecap:butt;stroke-linejoin:miter;stroke-miterlimit:10;stroke-dasharray:2.98883, 2.98883;stroke-dashoffset:0;stroke-opacity:1"
       transform="matrix(1.3333333,0,0,-1.3333333,158.24133,305.484)" />
    <g
       id="g13"
       aria-label="y&#10;0"
       transform="matrix(2.6666667,0,0,2.6666667,287.83333,308.616)">
      <path
         id="path14"
         d="m 4.8393555,-3.7964297 c 0.041016,-0.1347656 0.041016,-0.1582031 0.041016,-0.2285156 0,-0.1757813 -0.140625,-0.2695313 -0.2871094,-0.2695313 -0.099609,0 -0.2636719,0.064453 -0.3515625,0.2109375 -0.017578,0.052734 -0.099609,0.3574219 -0.140625,0.5390625 -0.070312,0.2578125 -0.1347656,0.5273438 -0.1992187,0.796875 L 3.456543,-0.95463281 c -0.041016,0.14648437 -0.46875,0.84375 -1.125,0.84375 -0.5097657,0 -0.6210938,-0.43359375 -0.6210938,-0.80273438 0,-0.46289061 0.1699219,-1.07812501 0.5097656,-1.95703121 0.1582032,-0.4042969 0.1992188,-0.515625 0.1992188,-0.7148438 0,-0.4453125 -0.3164063,-0.8144531 -0.8144531,-0.8144531 -0.94921878,0 -1.31835941,1.4414062 -1.31835941,1.5292969 0,0.099609 0.0996094,0.099609 0.12304688,0.099609 0.0996094,0 0.10546875,-0.017578 0.15820312,-0.1757812 0.26953125,-0.9375 0.66796871,-1.2363281 1.00781251,-1.2363281 0.076172,0 0.2460937,0 0.2460937,0.3164062 0,0.2519531 -0.099609,0.5097656 -0.1699218,0.6972656 C 1.253418,-2.10893 1.0776367,-1.5405706 1.0776367,-1.07768 c 0,0.89062501 0.6269531,1.18945314 1.2128906,1.18945314 0.3867188,0 0.7265625,-0.16992188 1.0078125,-0.45117188 C 3.1694336,0.18208594 3.0463867,0.66841406 2.6479492,1.1957578 2.3901367,1.5356016 2.0092773,1.8227109 1.5522461,1.8227109 c -0.140625,0 -0.58593751,-0.029297 -0.75585938,-0.4160156 0.15820312,0 0.28710938,0 0.42773438,-0.1230469 0.099609,-0.087891 0.1992187,-0.2167968 0.1992187,-0.40429684 0,-0.31054687 -0.2695312,-0.3515625 -0.3691406,-0.3515625 -0.22851561,0 -0.55664061,0.15820313 -0.55664061,0.65039064 0,0.4980469 0.43945313,0.8613281 1.05468751,0.8613281 1.0253906,0 2.0507812,-0.9023437 2.3320312,-2.02734374 z m 0,0"
         style="fill:#000000;fill-opacity:1;fill-rule:nonzero;stroke:none" />
      <path
         id="path15"
         d="m 8.4824219,-0.73197656 c 0,-0.76757814 -0.087891,-1.31835934 -0.4101563,-1.80468754 -0.2167969,-0.3222656 -0.6503906,-0.5976562 -1.2070312,-0.5976562 -1.6171875,0 -1.6171875,1.9042969 -1.6171875,2.40234374 0,0.50390625 0,2.36718746 1.6171875,2.36718746 1.6171875,0 1.6171875,-1.86328121 1.6171875,-2.36718746 z M 6.8652344,1.4359922 c -0.3222657,0 -0.7441407,-0.1875 -0.8847657,-0.75585939 -0.099609,-0.41015625 -0.099609,-0.984375 -0.099609,-1.5 0,-0.50976561 0,-1.03710941 0.1054687,-1.42382811 0.1464844,-0.5507813 0.5917969,-0.6972656 0.8789063,-0.6972656 0.375,0 0.7382812,0.2285156 0.8671875,0.6328125 0.1113281,0.3808593 0.1171875,0.8789062 0.1171875,1.48828121 0,0.515625 0,1.03125 -0.09375,1.47070313 C 7.6152344,1.2836484 7.1464844,1.4359922 6.8652344,1.4359922 Z m 0,0"
         style="fill:#000000;fill-opacity:1;fill-rule:nonzero;stroke:none" />
    </g>
    <path
       id="path16"
       d="M 0,154.4967 58.07301,95.68068"
       style="fill:none;stroke:#000000;stroke-width:0.3985;stroke-linecap:butt;stroke-linejoin:miter;stroke-miterlimit:10;stroke-dasharray:2.98883, 2.98883;stroke-dashoffset:0;stroke-opacity:1"
       transform="matrix(1.3333333,0,0,-1.3333333,158.24133,305.484)" />
    <g
       id="g16"
       aria-label="z&#10;0"
       transform="matrix(2.6666667,0,0,2.6666667,124.58133,103.21733)">
      <path
         id="path17"
         d="M 1.3244805,-0.82564063 C 1.863543,-1.4057188 2.1506523,-1.6518125 2.5080742,-1.9623594 c 0,-0.011719 0.6210938,-0.5390625 0.9785156,-0.8964844 0.9433594,-0.9257812 1.1660157,-1.40625 1.1660157,-1.4414062 0,-0.099609 -0.087891,-0.099609 -0.1113282,-0.099609 -0.070312,0 -0.099609,0.017578 -0.1464843,0.1054688 -0.2988282,0.4804687 -0.5097657,0.6386718 -0.75,0.6386718 -0.2402344,0 -0.3574219,-0.1464843 -0.5097657,-0.3164062 -0.1875,-0.2285156 -0.3574218,-0.4277344 -0.6855468,-0.4277344 -0.7441407,0 -1.2070313,0.9257813 -1.2070313,1.1308594 0,0.052734 0.035156,0.1113281 0.1230469,0.1113281 0.087891,0 0.1113281,-0.046875 0.1289062,-0.1113281 0.1875,-0.4570313 0.7675782,-0.4628906 0.84375,-0.4628906 0.2109375,0 0.3984375,0.064453 0.6328125,0.1464843 0.3984375,0.1523438 0.5039063,0.1523438 0.7617188,0.1523438 -0.3574219,0.4277344 -1.1953125,1.1425781 -1.3828125,1.3007812 L 1.4533867,-1.2943906 C 0.77955859,-0.62642188 0.42799609,-0.0580625 0.42799609,0.01225 c 0,0.09960937 0.0996094,0.09960937 0.1171875,0.09960937 0.0820313,0 0.0996094,-0.0234375 0.1640625,-0.12890625 0.22851563,-0.3515625 0.52734371,-0.62109375 0.84375001,-0.62109375 0.2285156,0 0.328125,0.09375 0.5800781,0.38085938 0.1699219,0.2109375 0.3457031,0.36914062 0.6386719,0.36914062 0.984375,0 1.5585937,-1.26562497 1.5585937,-1.53515627 0,-0.052734 -0.035156,-0.099609 -0.1171875,-0.099609 -0.087891,0 -0.1113281,0.058594 -0.140625,0.1289063 -0.2285156,0.65039062 -0.8671875,0.83789062 -1.1953125,0.83789062 -0.1992187,0 -0.375,-0.0585938 -0.5859375,-0.12890625 C 1.9514336,-0.81392188 1.8049492,-0.8549375 1.5940117,-0.8549375 c -0.017578,0 -0.1816406,0 -0.2695312,0.0292969 z m 0,0"
         style="fill:#000000;fill-opacity:1;fill-rule:nonzero;stroke:none" />
      <path
         id="path18"
         d="m 8.2312187,-0.73189063 c 0,-0.76757817 -0.087891,-1.31835937 -0.4101562,-1.80468747 -0.2167969,-0.3222657 -0.6503906,-0.5976563 -1.2070313,-0.5976563 -1.6171875,0 -1.6171875,1.9042969 -1.6171875,2.40234377 0,0.50390625 0,2.36718753 1.6171875,2.36718753 1.6171875,0 1.6171875,-1.86328128 1.6171875,-2.36718753 z M 6.6140312,1.4360781 c -0.3222656,0 -0.7441406,-0.1875 -0.8847656,-0.75585935 -0.099609,-0.41015625 -0.099609,-0.984375 -0.099609,-1.5 0,-0.50976565 0,-1.03710935 0.1054688,-1.42382815 0.1464844,-0.5507812 0.5917969,-0.6972656 0.8789062,-0.6972656 0.375,0 0.7382813,0.2285156 0.8671875,0.6328125 0.1113282,0.3808594 0.1171875,0.8789062 0.1171875,1.48828125 0,0.515625 0,1.03125 -0.09375,1.47070312 C 7.3640312,1.2837344 6.8952812,1.4360781 6.6140312,1.4360781 Z m 0,0"
         style="fill:#000000;fill-opacity:1;fill-rule:nonzero;stroke:none" />
    </g>
    <path
       id="path19"
       d="M 0,0 53.98543,90.25832"
       style="fill:none;stroke:#0000ff;stroke-width:0.79701;stroke-linecap:butt;stroke-linejoin:miter;stroke-miterlimit:10;stroke-dasharray:none;stroke-opacity:1"
       transform="matrix(1.3333333,0,0,-1.3333333,158.24133,305.484)" />
    <path
       id="path20"
       d="M 4.66248,0 C 3.28098,0.25902 1.0361,1.0361 -0.51805,1.94269 V -1.94269 C 1.0361,-1.0361 3.28098,-0.25902 4.66248,0"
       style="fill:#0000ff;fill-opacity:1;fill-rule:nonzero;stroke:none"
       transform="matrix(0.6844,-1.1442267,-1.1442267,-0.6844,230.22188,185.1396)" />
    <g
       id="g20"
       aria-label="⃗x&#10;0"
       transform="matrix(2.6666667,0,0,2.6666667,177.08667,218.72267)">
      <path
         id="path21"
         d="m 5.3493359,-5.923832 c -0.140625,0.1289062 -0.46875,0.4042968 -0.46875,0.5859375 0,0.099609 0.099609,0.1992187 0.1992188,0.1992187 0.087891,0 0.140625,-0.070312 0.1875,-0.1289062 0.1230469,-0.1523438 0.3515625,-0.4277344 0.7910156,-0.6503907 0.064453,-0.041016 0.1640625,-0.087891 0.1640625,-0.2050781 0,-0.099609 -0.064453,-0.1523437 -0.1347656,-0.1992187 -0.2226563,-0.1523438 -0.328125,-0.3339844 -0.4101563,-0.5683594 -0.017578,-0.09375 -0.058594,-0.2226563 -0.1992187,-0.2226563 -0.140625,0 -0.1992188,0.1289063 -0.1992188,0.2109375 0,0.046875 0.082031,0.3691407 0.2402344,0.5800782 H 2.1618359 c -0.1699218,0 -0.3515625,0 -0.3515625,0.1992187 0,0.1992188 0.1816407,0.1992188 0.3515625,0.1992188 z m 0,0"
         style="fill:#0000ff;fill-opacity:1;fill-rule:nonzero;stroke:none" />
      <path
         id="path22"
         d="M 3.4875195,-2.3378945 C 3.7863477,-2.7187539 4.1613477,-3.205082 4.401582,-3.4687539 4.7121289,-3.8261758 5.1222852,-3.9726602 5.5910352,-3.9843789 v -0.3105469 c -0.2636719,0.023437 -0.5625,0.029297 -0.8203125,0.029297 -0.2988282,0 -0.8261719,-0.017578 -0.9550782,-0.029297 v 0.3105469 c 0.2109375,0.017578 0.2871094,0.1523437 0.2871094,0.3105469 0,0.1582031 -0.099609,0.2871093 -0.1464844,0.3457031 L 3.3351758,-2.548832 2.5617383,-3.5566445 c -0.09375,-0.099609 -0.09375,-0.1171875 -0.09375,-0.1757813 0,-0.1523437 0.1523437,-0.2402344 0.3515625,-0.2519531 v -0.3105469 c -0.2578125,0.011719 -0.9140625,0.029297 -1.078125,0.029297 -0.2050781,0 -0.6738281,-0.00586 -0.94335939,-0.029297 v 0.3105469 c 0.69726559,0 0.70898439,0.011719 1.17187499,0.609375 l 0.9902344,1.2832031 -0.9375,1.18359377 C 1.542207,-0.32812891 0.95626953,-0.31055078 0.74533203,-0.31055078 V -3.90625e-6 C 1.0090039,-0.01758203 1.3136914,-0.02930078 1.5715039,-0.02930078 c 0.2929688,0 0.7089844,0.01757812 0.9492188,0.02929687375 V -0.31055078 c -0.2167969,-0.0292969 -0.2871094,-0.15820313 -0.2871094,-0.3046875 0,-0.22265625 0.2871094,-0.55078122 0.8964844,-1.26562502 l 0.7558593,0.99609377 c 0.076172,0.10546875 0.2109375,0.26953125 0.2109375,0.328125 0,0.0878906 -0.09375,0.24023437 -0.3632812,0.24609375 V -3.90625e-6 C 4.0324414,-0.01172266 4.5949414,-0.02930078 4.8117383,-0.02930078 c 0.2695312,0 0.65625,0.01171875 0.9550781,0.02929687375 V -0.31055078 c -0.5390625,0 -0.7148437,-0.0175781 -0.9433594,-0.3046875 z m 0,0"
         style="fill:#0000ff;fill-opacity:1;fill-rule:nonzero;stroke:none" />
      <path
         id="path23"
         d="m 9.483125,-0.73096094 c 0,-0.76757816 -0.087891,-1.31835936 -0.4101562,-1.80468746 -0.2167969,-0.3222657 -0.6503907,-0.5976563 -1.2070313,-0.5976563 -1.6171875,0 -1.6171875,1.9042969 -1.6171875,2.40234376 0,0.50390625 0,2.36718754 1.6171875,2.36718754 1.6171875,0 1.6171875,-1.86328129 1.6171875,-2.36718754 z M 7.8659375,1.4370078 c -0.3222656,0 -0.7441406,-0.1875 -0.8847656,-0.75585936 -0.099609,-0.41015625 -0.099609,-0.984375 -0.099609,-1.5 0,-0.50976564 0,-1.03710934 0.1054688,-1.42382814 0.1464843,-0.5507812 0.5917968,-0.6972656 0.8789062,-0.6972656 0.375,0 0.7382813,0.2285156 0.8671875,0.6328125 0.1113281,0.3808594 0.1171875,0.8789062 0.1171875,1.48828124 0,0.515625 0,1.03125 -0.09375,1.47070312 C 8.6159375,1.2846641 8.1471875,1.4370078 7.8659375,1.4370078 Z m 0,0"
         style="fill:#0000ff;fill-opacity:1;fill-rule:nonzero;stroke:none" />
    </g>
    <path
       id="path24"
       d="M -19.39066,-18.22108 140.43387,-38.11603"
       style="fill:none;stroke:#000000;stroke-width:0.3985;stroke-linecap:butt;stroke-linejoin:miter;stroke-miterlimit:10;stroke-dasharray:2.98883, 2.98883;stroke-dashoffset:0;stroke-opacity:1"
       transform="matrix(1.3333333,0,0,-1.3333333,158.24133,305.484)" />
    <path
       id="path25"
       d="m 3.3277773,-3.0063242 c 0.058594,-0.2636719 0.2871094,-1.1777344 0.984375,-1.1777344 0.052734,0 0.2871094,0 0.4980469,0.1289063 -0.28125,0.052734 -0.4804687,0.2988281 -0.4804687,0.5390625 0,0.1582031 0.1113281,0.3457031 0.3808593,0.3457031 0.2167969,0 0.5390625,-0.1757813 0.5390625,-0.5742188 0,-0.5214843 -0.5859375,-0.65625 -0.9257812,-0.65625 -0.5800781,0 -0.9257813,0.5273438 -1.0488281,0.7558594 -0.2460938,-0.65625 -0.7851563,-0.7558594 -1.0722657,-0.7558594 -1.0371093,0 -1.60546871,1.2832032 -1.60546871,1.5292969 0,0.099609 0.0996094,0.099609 0.1171875,0.099609 0.0820313,0 0.11132813,-0.017578 0.12890625,-0.1054688 C 1.1832461,-3.9321059 1.8394961,-4.184059 2.1793398,-4.184059 c 0.1933594,0 0.5390625,0.087891 0.5390625,0.6679688 0,0.3105468 -0.1699218,0.9785156 -0.5390625,2.3730468 -0.1582031,0.61523441 -0.5039062,1.03125003 -0.9433593,1.03125003 -0.058594,0 -0.29296878,0 -0.49804691,-0.12890625 0.24609375,-0.046875 0.46875001,-0.2578125 0.46875001,-0.5390625 0,-0.26367188 -0.22265626,-0.34570308 -0.36914063,-0.34570308 -0.29882813,0 -0.55078125,0.25781246 -0.55078125,0.58007808 0,0.45703125 0.49804687,0.65625 0.93749998,0.65625 0.65625,0 1.0136719,-0.69726562 1.0488281,-0.75585937 0.1171875,0.36328125 0.4746094,0.75585937 1.0722657,0.75585937 1.0253906,0 1.59375,-1.28906248 1.59375,-1.53515628 0,-0.099609 -0.087891,-0.099609 -0.1171875,-0.099609 -0.09375,0 -0.1113282,0.041016 -0.1289063,0.1113281 -0.328125,1.06640623 -1.0078125,1.30078123 -1.3242187,1.30078123 -0.3925782,0 -0.5507813,-0.31640625 -0.5507813,-0.65625 0,-0.21679687 0.058594,-0.43945313 0.1699219,-0.87304683 z m 0,0"
       style="fill:#000000;fill-opacity:1;fill-rule:nonzero;stroke:none"
       aria-label="x"
       transform="matrix(2.6666667,0,0,2.6666667,107.81733,335.49733)" />
    <path
       id="path26"
       d="M 159.82454,-19.89494 140.43387,-38.11603"
       style="fill:none;stroke:#000000;stroke-width:0.3985;stroke-linecap:butt;stroke-linejoin:miter;stroke-miterlimit:10;stroke-dasharray:2.98883, 2.98883;stroke-dashoffset:0;stroke-opacity:1"
       transform="matrix(1.3333333,0,0,-1.3333333,158.24133,305.484)" />
    <path
       id="path27"
       d="m 4.8397148,-3.7974883 c 0.041016,-0.1347656 0.041016,-0.1582031 0.041016,-0.2285156 0,-0.1757813 -0.140625,-0.2695313 -0.2871094,-0.2695313 -0.099609,0 -0.2636719,0.064453 -0.3515625,0.2109375 -0.017578,0.052734 -0.099609,0.3574219 -0.140625,0.5390625 -0.070312,0.2578125 -0.1347656,0.5273438 -0.1992188,0.796875 l -0.4453125,1.79296879 c -0.041016,0.14648438 -0.46875,0.84375 -1.125,0.84375 -0.5097656,0 -0.6210937,-0.43359375 -0.6210937,-0.80273437 0,-0.46289062 0.1699219,-1.07812502 0.5097656,-1.95703122 0.1582031,-0.4042969 0.1992188,-0.515625 0.1992188,-0.7148438 0,-0.4453125 -0.3164063,-0.8144531 -0.8144532,-0.8144531 -0.94921871,0 -1.31835933,1.4414062 -1.31835933,1.5292969 0,0.099609 0.0996094,0.099609 0.12304687,0.099609 0.0996094,0 0.10546875,-0.017578 0.15820313,-0.1757812 0.26953125,-0.9375 0.66796873,-1.2363281 1.00781253,-1.2363281 0.076172,0 0.2460937,0 0.2460937,0.3164062 0,0.2519531 -0.099609,0.5097656 -0.1699219,0.6972656 -0.3984375,1.0605469 -0.5742187,1.6289063 -0.5742187,2.0917969 0,0.89062502 0.6269531,1.18945314 1.2128906,1.18945314 0.3867188,0 0.7265625,-0.16992187 1.0078125,-0.45117187 C 3.169793,0.18102734 3.0467461,0.66735547 2.6483086,1.1946992 2.3904961,1.534543 2.0096367,1.8216523 1.5526055,1.8216523 c -0.140625,0 -0.58593753,-0.029297 -0.75585941,-0.4160156 0.15820313,0 0.28710941,0 0.42773441,-0.1230469 0.099609,-0.087891 0.1992187,-0.2167968 0.1992187,-0.40429683 0,-0.31054688 -0.2695312,-0.3515625 -0.3691406,-0.3515625 -0.22851563,0 -0.55664063,0.15820312 -0.55664063,0.65039063 0,0.4980469 0.43945312,0.8613281 1.05468753,0.8613281 1.0253906,0 2.0507812,-0.9023437 2.3320312,-2.02734373 z m 0,0"
       style="fill:#000000;fill-opacity:1;fill-rule:nonzero;stroke:none"
       aria-label="y"
       transform="matrix(2.6666667,0,0,2.6666667,364.348,317.45867)" />
    <path
       id="path28"
       d="m 143.4227,-16.80603 c 0,1.65071 -1.33814,2.98883 -2.98883,2.98883 -1.65071,0 -2.98883,-1.33812 -2.98883,-2.98883 0,-1.6507 1.33812,-2.98883 2.98883,-2.98883 1.65069,0 2.98883,1.33813 2.98883,2.98883 z"
       style="fill:#ffffff;fill-opacity:1;fill-rule:nonzero;stroke:none"
       transform="matrix(1.3333333,0,0,-1.3333333,158.24133,305.484)" />
    <path
       id="path29"
       d="M 140.43387,135.0272 V -38.11603"
       style="fill:none;stroke:#000000;stroke-width:0.3985;stroke-linecap:butt;stroke-linejoin:miter;stroke-miterlimit:10;stroke-dasharray:2.98883, 2.98883;stroke-dashoffset:0;stroke-opacity:1"
       transform="matrix(1.3333333,0,0,-1.3333333,158.24133,305.484)" />
    <path
       id="path30"
       d="M 0,173.14325 140.43387,135.0272"
       style="fill:none;stroke:#000000;stroke-width:0.3985;stroke-linecap:butt;stroke-linejoin:miter;stroke-miterlimit:10;stroke-dasharray:2.98883, 2.98883;stroke-dashoffset:0;stroke-opacity:1"
       transform="matrix(1.3333333,0,0,-1.3333333,158.24133,305.484)" />
    <path
       id="path31"
       d="M 1.3242305,-0.82630078 C 1.863293,-1.4063789 2.1504023,-1.6524727 2.5078242,-1.9630195 c 0,-0.011719 0.6210938,-0.5390625 0.9785156,-0.8964844 0.9433594,-0.9257813 1.1660157,-1.40625 1.1660157,-1.4414063 0,-0.099609 -0.087891,-0.099609 -0.1113282,-0.099609 -0.070312,0 -0.099609,0.017578 -0.1464843,0.1054687 -0.2988282,0.4804688 -0.5097657,0.6386719 -0.75,0.6386719 -0.2402344,0 -0.3574219,-0.1464844 -0.5097657,-0.3164063 -0.1875,-0.2285156 -0.3574218,-0.4277343 -0.6855468,-0.4277343 -0.7441407,0 -1.2070313,0.9257812 -1.2070313,1.1308593 0,0.052734 0.035156,0.1113282 0.1230469,0.1113282 0.087891,0 0.1113281,-0.046875 0.1289062,-0.1113282 0.1875,-0.4570312 0.7675782,-0.4628906 0.84375,-0.4628906 0.2109375,0 0.3984375,0.064453 0.6328125,0.1464844 0.3984375,0.1523437 0.5039063,0.1523437 0.7617188,0.1523437 -0.3574219,0.4277344 -1.1953125,1.1425782 -1.3828125,1.3007813 l -0.8964844,0.8378906 c -0.67382811,0.66796877 -1.02539061,1.23632814 -1.02539061,1.30664064 0,0.09960938 0.0996094,0.09960938 0.1171875,0.09960938 0.0820313,0 0.0996094,-0.0234375 0.1640625,-0.12890625 0.22851563,-0.3515625 0.52734371,-0.62109375 0.84375001,-0.62109375 0.2285156,0 0.328125,0.09375 0.5800781,0.38085937 0.1699219,0.2109375 0.3457031,0.36914063 0.6386719,0.36914063 0.984375,0 1.5585937,-1.26562502 1.5585937,-1.53515622 0,-0.052734 -0.035156,-0.099609 -0.1171875,-0.099609 -0.087891,0 -0.1113281,0.058594 -0.140625,0.1289062 -0.2285156,0.65039067 -0.8671875,0.83789067 -1.1953125,0.83789067 -0.1992187,0 -0.375,-0.0585938 -0.5859375,-0.12890625 -0.3398437,-0.12890625 -0.4863281,-0.16992188 -0.6972656,-0.16992188 -0.017578,0 -0.1816406,0 -0.2695312,0.0292962 z m 0,0"
       style="fill:#000000;fill-opacity:1;fill-rule:nonzero;stroke:none"
       aria-label="z"
       transform="matrix(2.6666667,0,0,2.6666667,135.332,80.348)" />
    <path
       id="path32"
       d="M 0,0 135.38121,130.37198"
       style="fill:none;stroke:#0000ff;stroke-width:0.79701;stroke-linecap:butt;stroke-linejoin:miter;stroke-miterlimit:10;stroke-dasharray:none;stroke-opacity:1"
       transform="matrix(1.3333333,0,0,-1.3333333,158.24133,305.484)" />
    <path
       id="path33"
       d="M 4.66248,0 C 3.28098,0.25902 1.0361,1.0361 -0.51805,1.94269 V -1.94269 C 1.0361,-1.0361 3.28098,-0.25902 4.66248,0"
       style="fill:#0000ff;fill-opacity:1;fill-rule:nonzero;stroke:none"
       transform="matrix(0.96038667,-0.92484,-0.92484,-0.96038667,338.74961,131.65472)" />
    <g
       id="g33"
       aria-label="⃗x"
       transform="matrix(2.6666667,0,0,2.6666667,288.29333,200.77733)">
      <path
         id="path34"
         d="m 5.3494727,-5.9238242 c -0.140625,0.1289062 -0.46875,0.4042969 -0.46875,0.5859375 0,0.099609 0.099609,0.1992187 0.1992187,0.1992187 0.087891,0 0.140625,-0.070312 0.1875,-0.1289062 0.1230469,-0.1523438 0.3515625,-0.4277344 0.7910156,-0.6503906 0.064453,-0.041016 0.1640625,-0.087891 0.1640625,-0.2050782 0,-0.099609 -0.064453,-0.1523437 -0.1347656,-0.1992187 -0.2226562,-0.1523438 -0.328125,-0.3339844 -0.4101562,-0.5683594 -0.017578,-0.09375 -0.058594,-0.2226562 -0.1992188,-0.2226562 -0.140625,0 -0.1992187,0.1289062 -0.1992187,0.2109375 0,0.046875 0.082031,0.3691406 0.2402343,0.5800781 H 2.1619727 c -0.1699219,0 -0.3515625,0 -0.3515625,0.1992187 0,0.1992188 0.1816406,0.1992188 0.3515625,0.1992188 z m 0,0"
         style="fill:#0000ff;fill-opacity:1;fill-rule:nonzero;stroke:none" />
      <path
         id="path35"
         d="M 3.4876562,-2.3378867 C 3.7864844,-2.7187461 4.1614844,-3.2050742 4.4017187,-3.4687461 4.7122656,-3.826168 5.1224219,-3.9726523 5.5911719,-3.9843711 V -4.294918 c -0.2636719,0.023437 -0.5625,0.029297 -0.8203125,0.029297 -0.2988282,0 -0.8261719,-0.017578 -0.9550782,-0.029297 v 0.3105469 c 0.2109375,0.017578 0.2871094,0.1523438 0.2871094,0.3105469 0,0.1582031 -0.099609,0.2871094 -0.1464844,0.3457031 L 3.3353125,-2.5488242 2.561875,-3.5566367 c -0.09375,-0.099609 -0.09375,-0.1171875 -0.09375,-0.1757813 0,-0.1523437 0.1523437,-0.2402343 0.3515625,-0.2519531 V -4.294918 c -0.2578125,0.011719 -0.9140625,0.029297 -1.078125,0.029297 -0.2050781,0 -0.6738281,-0.00586 -0.94335938,-0.029297 v 0.3105469 c 0.69726558,0 0.70898438,0.011719 1.17187498,0.609375 l 0.9902344,1.2832031 -0.9375,1.18359378 C 1.5423437,-0.32812109 0.95640625,-0.31054297 0.74546875,-0.31054297 V 3.90625e-6 C 1.0091406,-0.01757422 1.3138281,-0.02929297 1.5716406,-0.02929297 c 0.2929688,0 0.7089844,0.01757813 0.9492188,0.02929687625 V -0.31054297 C 2.3040625,-0.33983984 2.23375,-0.46874609 2.23375,-0.61523047 c 0,-0.22265625 0.2871094,-0.55078123 0.8964844,-1.26562503 l 0.7558593,0.99609378 c 0.076172,0.10546875 0.2109375,0.26953125 0.2109375,0.328125 0,0.0878906 -0.09375,0.24023438 -0.3632812,0.24609375 V 3.90625e-6 C 4.0325781,-0.01171484 4.5950781,-0.02929297 4.811875,-0.02929297 c 0.2695312,0 0.65625,0.01171875 0.9550781,0.02929687625 V -0.31054297 c -0.5390625,0 -0.7148437,-0.0175781 -0.9433594,-0.3046875 z m 0,0"
         style="fill:#0000ff;fill-opacity:1;fill-rule:nonzero;stroke:none" />
    </g>
    <path
       id="path36"
       d="m 62.05812,55.72496 c 0,2.20094 -1.78416,3.98511 -3.98511,3.98511 -2.20094,0 -3.98511,-1.78417 -3.98511,-3.98511 0,-2.20094 1.78417,-3.98511 3.98511,-3.98511 2.20095,0 3.98511,1.78417 3.98511,3.98511 z"
       style="fill:#ffffff;fill-opacity:1;fill-rule:nonzero;stroke:none"
       transform="matrix(1.3333333,0,0,-1.3333333,158.24133,305.484)" />
    <path
       id="path37"
       d="m 62.05812,-28.18315 c 0,2.20094 -1.78416,3.98511 -3.98511,3.98511 -2.20094,0 -3.98511,-1.78417 -3.98511,-3.98511 0,-2.20095 1.78417,-3.98511 3.98511,-3.98511 2.20095,0 3.98511,1.78416 3.98511,3.98511 z"
       style="fill:#ffffff;fill-opacity:1;fill-rule:nonzero;stroke:none"
       transform="matrix(1.3333333,0,0,-1.3333333,158.24133,305.484)" />
    <path
       id="path38"
       d="m 61.06184,-6.87314 c 0,1.65071 -1.33813,2.98883 -2.98883,2.98883 -1.65071,0 -2.98883,-1.33812 -2.98883,-2.98883 0,-1.65071 1.33812,-2.98883 2.98883,-2.98883 1.6507,0 2.98883,1.33812 2.98883,2.98883 z"
       style="fill:#ffffff;fill-opacity:1;fill-rule:nonzero;stroke:none"
       transform="matrix(1.3333333,0,0,-1.3333333,158.24133,305.484)" />
    <path
       id="path39"
       d="M 58.07301,95.68068 V -58.81602"
       style="fill:none;stroke:#000000;stroke-width:0.3985;stroke-linecap:butt;stroke-linejoin:miter;stroke-miterlimit:10;stroke-dasharray:2.98883, 2.98883;stroke-dashoffset:0;stroke-opacity:1"
       transform="matrix(1.3333333,0,0,-1.3333333,158.24133,305.484)" />
    <path
       id="path40"
       d="m 58.07301,95.68068 78.15413,37.33687"
       style="fill:none;stroke:#ff0000;stroke-width:0.79701;stroke-linecap:butt;stroke-linejoin:miter;stroke-miterlimit:10;stroke-dasharray:none;stroke-opacity:1"
       transform="matrix(1.3333333,0,0,-1.3333333,158.24133,305.484)" />
    <path
       id="path41"
       d="M 4.66248,0 C 3.28098,0.25902 1.0361,1.0361 -0.51805,1.94269 V -1.94269 C 1.0361,-1.0361 3.28098,-0.25902 4.66248,0"
       style="fill:#ff0000;fill-opacity:1;fill-rule:nonzero;stroke:none"
       transform="matrix(1.203,-0.57470667,-0.57470667,-1.203,339.87751,128.12729)" />
    <g
       id="g41"
       aria-label="⃗r"
       transform="matrix(2.6666667,0,0,2.6666667,270.912,147.00933)">
      <path
         id="path42"
         d="m 5.348918,-5.9243984 c -0.140625,0.1289062 -0.46875,0.4042968 -0.46875,0.5859375 0,0.099609 0.099609,0.1992187 0.1992187,0.1992187 0.087891,0 0.140625,-0.070312 0.1875,-0.1289062 0.1230469,-0.1523438 0.3515625,-0.4277344 0.7910156,-0.6503907 0.064453,-0.041016 0.1640625,-0.087891 0.1640625,-0.2050781 0,-0.099609 -0.064453,-0.1523437 -0.1347656,-0.1992187 C 5.864543,-6.4751797 5.7590742,-6.6568203 5.677043,-6.8911953 5.659465,-6.9849453 5.618449,-7.1138516 5.4778242,-7.1138516 c -0.140625,0 -0.1992187,0.1289063 -0.1992187,0.2109375 0,0.046875 0.082031,0.3691407 0.2402343,0.5800782 H 2.161418 c -0.1699219,0 -0.3515625,0 -0.3515625,0.1992187 0,0.1992188 0.1816406,0.1992188 0.3515625,0.1992188 z m 0,0"
         style="fill:#ff0000;fill-opacity:1;fill-rule:nonzero;stroke:none" />
      <path
         id="path43"
         d="m 2.9685469,-3.3052578 v -1.0957031 l -1.3828125,0.1054687 v 0.3105469 c 0.6972656,0 0.7734375,0.070312 0.7734375,0.5566406 v 2.67187501 c 0,0.4453125 -0.1113282,0.4453125 -0.7734375,0.4453125 V -5.703125e-4 C 1.9724531,-0.01228906 2.4412031,-0.02986719 2.7165937,-0.02986719 c 0.3984375,0 0.8671875,0 1.265625,0.0292968775 V -0.31111719 H 3.7771406 c -0.7382812,0 -0.7617187,-0.10546875 -0.7617187,-0.46875 V -2.3091641 c 0,-0.9902343 0.421875,-1.875 1.1777343,-1.875 0.070312,0 0.087891,0 0.1113282,0.011719 -0.029297,0.00586 -0.2285157,0.1289062 -0.2285157,0.3867187 0,0.28125 0.2050782,0.4277344 0.4277344,0.4277344 0.1757813,0 0.4277344,-0.1171875 0.4277344,-0.4394531 0,-0.3164063 -0.3105469,-0.6035156 -0.7382813,-0.6035156 -0.7265625,0 -1.0839843,0.6679687 -1.2246093,1.0957029 z m 0,0"
         style="fill:#ff0000;fill-opacity:1;fill-rule:nonzero;stroke:none" />
    </g>
    <path
       id="path44"
       d="m 61.06184,95.68068 c 0,1.65071 -1.33813,2.98883 -2.98883,2.98883 -1.65071,0 -2.98883,-1.33812 -2.98883,-2.98883 0,-1.65071 1.33812,-2.98883 2.98883,-2.98883 1.6507,0 2.98883,1.33812 2.98883,2.98883 z"
       style="fill:#000000;fill-opacity:1;fill-rule:nonzero;stroke:none"
       transform="matrix(1.3333333,0,0,-1.3333333,158.24133,305.484)" />
    <path
       id="path45"
       d="m 4.5006094,-4.2946562 c 0,-0.035156 -0.029297,-0.099609 -0.099609,-0.099609 -0.1054688,0 -0.5039063,0.3984375 -0.6738281,0.6914062 -0.2226563,-0.5390625 -0.609375,-0.6972656 -0.9257813,-0.6972656 -1.1777344,0 -2.40234373,1.4707031 -2.40234373,2.9179688 0,0.9726562 0.5859375,1.59374995 1.31250003,1.59374995 0.4277343,0 0.8203125,-0.24023437 1.1777343,-0.59765625 -0.087891,0.34570313 -0.4160156,1.6933594 -0.4511718,1.78125 -0.076172,0.28125 -0.1582032,0.3164063 -0.7148438,0.328125 -0.1289062,0 -0.2285156,0 -0.2285156,0.1992188 0,0.011719 0,0.1113281 0.1289062,0.1113281 0.3164063,0 0.6679688,-0.029297 0.9960938,-0.029297 0.3398437,0 0.6972656,0.029297 1.0253906,0.029297 0.052734,0 0.1816406,0 0.1816406,-0.1992188 0,-0.1113281 -0.099609,-0.1113281 -0.2578125,-0.1113281 C 3.0885,1.6233125 3.0885,1.553 3.0885,1.4651094 c 0,-0.070312 0.017578,-0.1289063 0.041016,-0.2226563 z m -2.7597657,4.1835937 c -0.5976562,0 -0.6328125,-0.76757812 -0.6328125,-0.9316406 0,-0.4804688 0.2871094,-1.5644531 0.4570313,-1.9863281 0.3105469,-0.7382813 0.8261719,-1.1542969 1.2363281,-1.1542969 0.6445313,0 0.7851563,0.8085937 0.7851563,0.8789062 0,0.058594 -0.5507813,2.2382813 -0.5800782,2.2792969 -0.1464843,0.28125 -0.703125,0.9140625 -1.265625,0.9140625 z m 0,0"
       style="fill:#000000;fill-opacity:1;fill-rule:nonzero;stroke:none"
       aria-label="q"
       transform="matrix(2.6666667,0,0,2.6666667,229.264,163.35867)" />
    <path
       id="path46"
       d="m 140.43387,135.0272 28.73709,13.72907"
       style="fill:none;stroke:#ff0000;stroke-width:0.79701;stroke-linecap:butt;stroke-linejoin:miter;stroke-miterlimit:10;stroke-dasharray:none;stroke-opacity:1"
       transform="matrix(1.3333333,0,0,-1.3333333,158.24133,305.484)" />
    <path
       id="path47"
       d="M 4.66248,0 C 3.28098,0.25902 1.0361,1.0361 -0.51805,1.94269 V -1.94269 C 1.0361,-1.0361 3.28098,-0.25902 4.66248,0"
       style="fill:#ff0000;fill-opacity:1;fill-rule:nonzero;stroke:none"
       transform="matrix(1.203,-0.57470667,-0.57470667,-1.203,383.80259,107.14232)" />
    <g
       id="g47"
       aria-label="ˆr"
       transform="matrix(2.6666667,0,0,2.6666667,357.888,107.13867)">
      <path
         id="path48"
         d="m 2.4897539,-6.914793 -1.3359375,1.3535157 0.1816406,0.1816406 1.1542969,-1.0136719 1.1425781,1.0136719 0.1816407,-0.1816406 z m 0,0"
         style="fill:#ff0000;fill-opacity:1;fill-rule:nonzero;stroke:none" />
      <path
         id="path49"
         d="m 0.43018359,-0.58666797 c -0.0351563,0.14648438 -0.09375,0.375 -0.09375,0.42773438 0,0.17578125 0.140625,0.26953125 0.29296875,0.26953125 0.1171875,0 0.29882813,-0.08203125 0.36328125,-0.28125 0.0234375,-0.0410156 0.36328121,-1.39453126 0.39843751,-1.57031246 0.082031,-0.3339844 0.2636719,-1.03125 0.3222656,-1.2949219 0.041016,-0.1347656 0.3164063,-0.5976563 0.5566406,-0.8203125 0.082031,-0.070312 0.3691407,-0.328125 0.796875,-0.328125 0.2578125,0 0.4101563,0.1171875 0.4160157,0.1171875 -0.2988282,0.052734 -0.515625,0.2929687 -0.515625,0.5507812 0,0.1582032 0.1113281,0.3457032 0.3808593,0.3457032 0.2695313,0 0.5449219,-0.2285157 0.5449219,-0.5859375 0,-0.3457032 -0.3164062,-0.6445313 -0.8261719,-0.6445313 -0.6445312,0 -1.0839843,0.4863281 -1.2773437,0.7675781 -0.076172,-0.4511718 -0.4335938,-0.7675781 -0.90234376,-0.7675781 -0.45703125,0 -0.65039062,0.3867188 -0.73828125,0.5683594 -0.18164062,0.3339844 -0.31054687,0.9316406 -0.31054687,0.9609375 0,0.099609 0.09960937,0.099609 0.12304687,0.099609 0.09960938,0 0.10546875,-0.00586 0.16992188,-0.2285157 0.1640625,-0.703125 0.36328125,-1.1835937 0.7265625,-1.1835937 0.16992183,0 0.30468753,0.082031 0.30468753,0.4570312 0,0.2109375 -0.029297,0.3222657 -0.1582032,0.8378907 z m 0,0"
         style="fill:#ff0000;fill-opacity:1;fill-rule:nonzero;stroke:none" />
    </g>
  </g>
</svg>
